<?xml version="1.0" encoding="utf-8"?>
<!-- Generator: Adobe Illustrator 22.1.0, SVG Export Plug-In . SVG Version: 6.00 Build 0)  -->
<svg version="1.1" id="Layer_1" xmlns="http://www.w3.org/2000/svg" xmlns:xlink="http://www.w3.org/1999/xlink" x="0px" y="0px"
	 viewBox="0 0 841.9 595.3" style="enable-background:new 0 0 841.9 595.3;" xml:space="preserve">
<style type="text/css">
	.st0{fill:#FFFFFF;}
	.st1{fill:url(#SVGID_1_);}
	.st2{fill:url(#SVGID_2_);}
	.st3{fill:url(#SVGID_3_);}
	.st4{fill:url(#SVGID_4_);}
	.st5{fill:url(#SVGID_5_);}
	.st6{fill:url(#SVGID_6_);}
	.st7{fill:url(#SVGID_7_);}
	.st8{fill:url(#SVGID_8_);}
	.st9{fill:url(#SVGID_9_);}
	.st10{fill:url(#SVGID_10_);}
	.st11{fill:url(#SVGID_11_);}
	.st12{fill:url(#SVGID_12_);}
</style>
<path class="st0" d="M307.2,140.7C394.1,78,515,97.2,577.7,183.9c62.8,86.3,43.6,207.5-43,270.5c-86.2,62.9-207.6,43.7-270.5-42.9
	C201.4,325.1,220.5,203.8,307.2,140.7z"/>
<radialGradient id="SVGID_1_" cx="416.3126" cy="297.4109" r="292.477" gradientTransform="matrix(1.0146 0 0 1.0013 -1.4584 -0.1647)" gradientUnits="userSpaceOnUse">
	<stop  offset="0" style="stop-color:#243060"/>
	<stop  offset="0.2177" style="stop-color:#2F3A67"/>
	<stop  offset="0.5436" style="stop-color:#424C75"/>
	<stop  offset="0.5927" style="stop-color:#38436E"/>
	<stop  offset="0.6669" style="stop-color:#2E3968"/>
	<stop  offset="0.7668" style="stop-color:#273464"/>
	<stop  offset="1" style="stop-color:#253263"/>
</radialGradient>
<path class="st1" d="M420.9,4.9C257,4.9,124,136,124,297.6S257,590.3,420.9,590.3s296.9-131,296.9-292.7S584.9,4.9,420.9,4.9z
	 M422.8,484.7c-103.2,0.8-188.8-83.5-189.6-186.7c-0.8-103.1,83.3-188.8,186.5-189.6c103.1-0.9,188.7,83.3,189.7,186.3
	C610.4,397.9,526.1,483.9,422.8,484.7z"/>
<linearGradient id="SVGID_2_" gradientUnits="userSpaceOnUse" x1="422.7556" y1="397.137" x2="626.6374" y2="397.137">
	<stop  offset="0" style="stop-color:#7886AB"/>
	<stop  offset="0.2674" style="stop-color:#707EA0"/>
	<stop  offset="0.8286" style="stop-color:#57637F"/>
	<stop  offset="1" style="stop-color:#4F5B74"/>
</linearGradient>
<path class="st2" d="M422.8,484.7c30.6,10.2,63.3,15.8,97.3,15.5c32.5-0.2,63.5-5.9,92.5-15.7c9.3-29.3,14.5-60.4,14.1-92.8
	c-0.1-34.3-6.5-67.1-17.2-97.6C580.4,383,511,453.8,422.8,484.7z"/>
<linearGradient id="SVGID_3_" gradientUnits="userSpaceOnUse" x1="216.4719" y1="195.1485" x2="419.6168" y2="195.1485">
	<stop  offset="0" style="stop-color:#7886AB"/>
	<stop  offset="0.2674" style="stop-color:#707EA0"/>
	<stop  offset="0.8286" style="stop-color:#57637F"/>
	<stop  offset="1" style="stop-color:#4F5B74"/>
</linearGradient>
<path class="st3" d="M419.6,108.4c-30.3-10-62.7-15.5-96.4-15.2c-32.4,0.3-63.5,5.9-92.6,15.7c-9.3,29.3-14.4,60.4-14.2,92.8
	c0.3,33.5,6.3,65.5,16.5,95.5C262.6,208.9,331.7,138.9,419.6,108.4z"/>
<linearGradient id="SVGID_4_" gradientUnits="userSpaceOnUse" x1="217.2853" y1="399.4801" x2="422.7556" y2="399.4801">
	<stop  offset="0" style="stop-color:#D37D23"/>
	<stop  offset="0.4024" style="stop-color:#D88E34"/>
	<stop  offset="0.5051" style="stop-color:#DA9238"/>
	<stop  offset="1" style="stop-color:#D37D23"/>
</linearGradient>
<path class="st4" d="M233,297.2c-10.2,30.8-15.9,63.6-15.7,97.8c0.3,32.5,5.9,63.5,15.7,92.6c29.3,9.3,60.5,14.4,92.8,14.2
	c34-0.2,66.6-6.4,96.9-17.1C334,455.2,263.6,385.7,233,297.2z"/>
<linearGradient id="SVGID_5_" gradientUnits="userSpaceOnUse" x1="176.2965" y1="503.3611" x2="259.257" y2="503.3611">
	<stop  offset="0" style="stop-color:#7886AB"/>
	<stop  offset="0.2674" style="stop-color:#707EA0"/>
	<stop  offset="0.8286" style="stop-color:#57637F"/>
	<stop  offset="1" style="stop-color:#4F5B74"/>
</linearGradient>
<path class="st5" d="M176.3,463.6c9.1,13,21.4,28.3,37.6,43.9c16.2,15.5,32,27.1,45.4,35.7c-4.9-7.7-10-16.7-14.8-26.9
	c-4.9-10.3-8.6-19.9-11.5-28.7c-9-3.1-18.6-6.7-28.6-10.9C194.2,472.4,184.9,468,176.3,463.6z"/>
<linearGradient id="SVGID_6_" gradientUnits="userSpaceOnUse" x1="419.6168" y1="192.8242" x2="624.3902" y2="192.8242">
	<stop  offset="0" style="stop-color:#D37D23"/>
	<stop  offset="0.4024" style="stop-color:#D88E34"/>
	<stop  offset="0.5051" style="stop-color:#DA9238"/>
	<stop  offset="1" style="stop-color:#D37D23"/>
</linearGradient>
<path class="st6" d="M419.6,108.4c88.5,29.1,158.8,97.9,189.8,185.7c9.8-30.2,15.3-62.3,15-95.8c-0.3-32.4-5.9-63.4-15.8-92.6
	c-29.2-9.3-60.3-14.4-92.7-14.2C482.1,91.9,449.8,97.9,419.6,108.4z"/>
<linearGradient id="SVGID_7_" gradientUnits="userSpaceOnUse" x1="582.5585" y1="91.2133" x2="664.5997" y2="91.2133">
	<stop  offset="0" style="stop-color:#7886AB"/>
	<stop  offset="0.2674" style="stop-color:#707EA0"/>
	<stop  offset="0.8286" style="stop-color:#57637F"/>
	<stop  offset="1" style="stop-color:#4F5B74"/>
</linearGradient>
<path class="st7" d="M664.6,130.3c-7.6-11.2-17.5-23.8-29.9-36.6c-18.4-18.9-36.9-32.3-52.1-41.6c4.8,7.1,10,15.6,14.8,25.6
	c5,10.2,8.6,19.7,11.2,28.1c8.9,2.9,18.5,6.4,28.6,10.9C647.3,121.1,656.5,125.8,664.6,130.3z"/>
<linearGradient id="SVGID_8_" gradientUnits="userSpaceOnUse" x1="587.3967" y1="499.7438" x2="668.3836" y2="499.7438">
	<stop  offset="0" style="stop-color:#7886AB"/>
	<stop  offset="0.2674" style="stop-color:#707EA0"/>
	<stop  offset="0.8286" style="stop-color:#57637F"/>
	<stop  offset="1" style="stop-color:#4F5B74"/>
</linearGradient>
<path class="st8" d="M587.4,540c13.2-8.8,28.6-20.6,44.4-36.3c15.8-15.7,27.7-31.1,36.6-44.2c-8.4,4.6-17.5,9.2-27.5,13.6
	c-9.9,4.4-19.4,8.2-28.3,11.3c-2.7,8.7-6.3,18.5-11,28.8C597,523.4,592.1,532.3,587.4,540z"/>
<linearGradient id="SVGID_9_" gradientUnits="userSpaceOnUse" x1="174.5407" y1="94.3773" x2="255.7589" y2="94.3773">
	<stop  offset="0" style="stop-color:#7886AB"/>
	<stop  offset="0.2674" style="stop-color:#707EA0"/>
	<stop  offset="0.8286" style="stop-color:#57637F"/>
	<stop  offset="1" style="stop-color:#4F5B74"/>
</linearGradient>
<path class="st9" d="M255.8,54.4c-13.1,8.5-28.7,20.1-44.6,35.7c-16,15.7-27.9,31.2-36.6,44.2c8.3-4.7,17.5-9.4,27.7-14
	c10-4.5,19.5-8.3,28.4-11.4c2.6-8.5,6.1-18.2,10.9-28.4C246.2,70.5,251.1,61.8,255.8,54.4z"/>
<path class="st0" d="M630.2,92.3c11.6,15.9,8,38.3-7.9,50c-16,11.6-38.4,8-50-7.9c-11.6-16-8.1-38.4,7.9-50
	C596.2,72.8,618.6,76.3,630.2,92.3z"/>
<path class="st0" d="M269.4,459c11.6,16,8.1,38.4-8,50c-15.9,11.7-38.3,8.1-50-7.9c-11.5-16-8-38.3,8-50
	C235.3,439.5,257.8,443.1,269.4,459z"/>
<linearGradient id="SVGID_10_" gradientUnits="userSpaceOnUse" x1="201.6731" y1="116.3264" x2="273.2306" y2="116.3264">
	<stop  offset="0" style="stop-color:#D37D23"/>
	<stop  offset="0.4024" style="stop-color:#D88E34"/>
	<stop  offset="0.5051" style="stop-color:#DA9238"/>
	<stop  offset="1" style="stop-color:#D37D23"/>
</linearGradient>
<path class="st10" d="M216.4,87.4c16-11.6,38.4-8,50,8c11.6,15.9,8,38.3-7.9,50c-16,11.6-38.4,8.1-50-7.9
	C196.9,121.3,200.4,99,216.4,87.4z"/>
<linearGradient id="SVGID_11_" gradientUnits="userSpaceOnUse" x1="356.0276" y1="297.6401" x2="485.862" y2="297.6401">
	<stop  offset="0" style="stop-color:#D37D23"/>
	<stop  offset="0.4024" style="stop-color:#D88E34"/>
	<stop  offset="0.5051" style="stop-color:#DA9238"/>
	<stop  offset="1" style="stop-color:#D37D23"/>
</linearGradient>
<path class="st11" d="M382.8,245.1c29.1-21,69.7-14.6,90.7,14.5c21.1,28.9,14.6,69.5-14.4,90.7c-28.9,21.1-69.6,14.7-90.7-14.4
	C347.4,306.8,353.8,266.2,382.8,245.1z"/>
<linearGradient id="SVGID_12_" gradientUnits="userSpaceOnUse" x1="568.3964" y1="477.1038" x2="639.9853" y2="477.1038">
	<stop  offset="0" style="stop-color:#D37D23"/>
	<stop  offset="0.4024" style="stop-color:#D88E34"/>
	<stop  offset="0.5051" style="stop-color:#DA9238"/>
	<stop  offset="1" style="stop-color:#D37D23"/>
</linearGradient>
<path class="st12" d="M583.2,448.2c16-11.6,38.4-8.1,50,7.9c11.5,16,8,38.4-8,50c-16,11.6-38.4,8-50-8
	C563.6,482.1,567.2,459.7,583.2,448.2z"/>
</svg>
