<?xml version="1.0" encoding="utf-8"?>
<!-- Generator: Adobe Illustrator 22.1.0, SVG Export Plug-In . SVG Version: 6.00 Build 0)  -->
<svg version="1.1" id="Camada_1" xmlns="http://www.w3.org/2000/svg" xmlns:xlink="http://www.w3.org/1999/xlink" x="0px" y="0px"
	 viewBox="0 0 170 170" style="enable-background:new 0 0 170 170;" xml:space="preserve">
<style type="text/css">
	.st0{fill:#5A6DAA;}
</style>
<path id="XMLID_19_" class="st0" d="M89.9,72.2V67c0-2.5,1.7-3.1,2.9-3.1c1.2,0,7.3,0,7.3,0V52.9l-10,0c-11.1,0-13.6,8.3-13.6,13.6
	v5.8H70V80v5.1h6.5c0,14.7,0,32.3,0,32.3h12.9c0,0,0-17.8,0-32.3H99l0.5-5.1l0.7-7.9H89.9z"/>
<g>
	<path class="st0" d="M96,164.5c-0.3,0-0.6,0-0.9,0C95,165.2,96,165,96,164.5z"/>
	<path class="st0" d="M91.3,165c0.6,0,1-0.1,1.3-0.3C92.2,164.8,91.2,164.3,91.3,165z"/>
	<path class="st0" d="M89.3,166.6c-0.2,0.3,0.3,0.4,0.6,0.4c0.4,0,0.7-0.2,0.3-0.4C90,167.1,89.7,166.4,89.3,166.6z"/>
	<path class="st0" d="M88.9,166.6c-0.8-0.1-0.9,0.2-1.5-0.1C87.3,167,89,167,88.9,166.6z"/>
	<path class="st0" d="M80.2,166.5c0-0.2,0.3-0.1,0.4-0.3c-0.2-0.2-0.9-0.8-1.2-0.4C79.8,166,79.9,166,80.2,166.5z"/>
	<path class="st0" d="M72.5,161c-0.3-0.1-0.5-0.3-0.7-0.5c-0.1,0.5,1.2,1.1,1.6,0.9c-0.2-0.1-0.3-0.1-0.5-0.2
		C72.7,161.1,72.6,161.1,72.5,161z"/>
	<path class="st0" d="M63.8,166.6c0.2,0.4,1,0.4,1.2,0.1C64.6,166.5,64.1,166.4,63.8,166.6z"/>
	<path class="st0" d="M66.8,159.5c0.1-0.3,0.2-0.5,0.1-0.7c-0.4-0.1-0.8-0.1-1.4-0.4c-0.1,0.3-0.2,0.5-0.4,0.6
		C65.7,158.9,66.6,158.6,66.8,159.5z"/>
	<path class="st0" d="M61.9,160c0.5,0.2,1.2,0.4,1,0.8c-0.3,0-0.9-0.6-1.1-0.3c0.4,0.6,1.1,0.7,1.8,0.7c0.7,0,1.5-0.1,2.1,0.1
		C65,160.5,62.8,159.9,61.9,160z"/>
	<path class="st0" d="M59.1,159.3l0.2-0.5c-0.6-0.2-0.6-0.5-0.8-0.8c-0.1,0.7-0.7-0.3-0.9,0.1c0.4,0.2,0.7,0.3,0.9,0.5
		C58.8,158.9,59,159.1,59.1,159.3z"/>
	<path class="st0" d="M57.4,158.1c0.1-0.6,0.1-0.4,0.6-0.7c-0.7-0.4-1.2-0.3-1.9-0.5c0.7,0.2-0.2,0.7,0.3,1
		C56.7,157.6,57.3,157.6,57.4,158.1z"/>
	<path class="st0" d="M55.8,160.3c-0.4-0.2-0.8-0.4-0.9-0.7C54.4,160.2,55.5,160.6,55.8,160.3z"/>
	<path class="st0" d="M54.7,156.1c0.4,0.6,0.9,0.6,1.4,0.5C55.6,156.2,55.1,156,54.7,156.1z"/>
	<path class="st0" d="M56.2,155.8c-0.3-0.1-0.8-0.7-1-0.4C55.4,155.9,55.7,156.2,56.2,155.8z"/>
	<path class="st0" d="M52.2,158.4c-0.6-0.2-1.3-1.1-1.7-0.9C50.5,157.8,52.4,158.7,52.2,158.4z"/>
	<path class="st0" d="M53.9,153.2c-0.3,0-2-0.9-2.1-0.8c0,0.2,0.4,0.5,1,0.8C53.3,153.4,53.9,153.5,53.9,153.2z"/>
	<path class="st0" d="M47.6,152.1c0.3-0.4,0-0.5,0.4-0.5c-0.2-0.1-0.4-0.3-0.6-0.4C47,151.4,47.5,151.7,47.6,152.1z"/>
	<path class="st0" d="M46.6,148.9c0.5,0.6,1.4-0.5,0.6-0.4c0.1,0.1,0.1,0.2-0.1,0.4C46.9,148.7,46.7,148.6,46.6,148.9z"/>
	<path class="st0" d="M39.2,154c1.3,0.4,1,1.2,2.1,1.6C41.3,155.1,39.7,153.3,39.2,154z"/>
	<path class="st0" d="M44.8,147.3c0.5,0.3,0,0.5-0.2,0.5c0.5,0.1,1,0.4,1.4,0.1c-0.9,0,0.2-0.9-0.7-0.8
		C45.6,147.5,44.9,147.1,44.8,147.3z"/>
	<path class="st0" d="M44.6,149.5c-0.5-0.2-0.8-0.5-1-0.9c-0.2-0.3-0.4-0.7-1-0.9c0.2,0.2,0.5,0.8,0.8,1.2
		C43.8,149.3,44.2,149.7,44.6,149.5z"/>
	<path class="st0" d="M35.2,150.2c0.1-0.2,0.4-0.3,0.2-0.5c-0.6-0.4-1.2-0.5-1.7-0.8c-0.5-0.2-1-0.6-1.3-1.4
		c-0.2,0.2-0.4,0.3-0.6,0.3c0.5,0.3,0.8,0.8,1.1,1.2c0.3,0.4,0.6,0.8,1.1,1C33.8,149.7,34.8,149.7,35.2,150.2z"/>
	<path class="st0" d="M38.8,142.4c-0.5,0-0.5,0.3-0.3,0.6c0.2,0.3,0.7,0.5,0.9,0.6C39.4,143,38.4,143,38.8,142.4z"/>
	<path class="st0" d="M31.2,148.9c-0.2-0.3-0.5-0.5-0.7-0.8C29.9,148.2,31.1,149.5,31.2,148.9z"/>
	<path class="st0" d="M37.8,142.3c-0.5-0.6-0.7-1.5-1.5-1.2C36.7,141.3,37.7,142.7,37.8,142.3z"/>
	<path class="st0" d="M38,141.8c-0.7-1.1-0.6-2.8-1.4-3.2C36.6,139.6,37.1,141.2,38,141.8z"/>
	<path class="st0" d="M31.8,147.2c-0.3-0.5-0.4-0.6-0.7-1.3c-0.2,0.2-0.5,0.4-0.4,0.6C31.5,145.9,31,147.7,31.8,147.2z"/>
	<path class="st0" d="M35.9,142.5c-0.2-0.4,0.1-0.8-0.1-1.2c-0.3,0.4-0.2,0.3-0.6,0.6C35.4,142,35.6,142.8,35.9,142.5z"/>
	<path class="st0" d="M33.3,141.9c-0.1,0.2,0,0.4,0.2,0.5c0.2,0.1,0.5,0.1,0.7,0C33.9,142,33.6,141.9,33.3,141.9z"/>
	<path class="st0" d="M33.9,140.2c-0.5-0.6-1-1.2-0.9-1.7c-0.3,0.6-0.3,0.2-0.8,0.1C32,139.3,33.3,140,33.9,140.2z"/>
	<path class="st0" d="M29.3,133.6c0.2-0.1,0.4-0.2,0.3-0.4c-0.6,0-0.5,0.9-0.1,1.6c0.1,0.2,0.2,0.4,0.3,0.5c0.1,0.2,0.3,0.3,0.4,0.4
		c0.3,0.2,0.5,0.2,0.6,0C30.1,135.3,30,134,29.3,133.6z"/>
	<path class="st0" d="M24.4,127.6c-0.1-0.6-0.3-1.1-0.8-1.1C23.9,126.7,24,127.7,24.4,127.6z"/>
	<path class="st0" d="M18.5,115.4c0-0.1-0.1-0.1-0.1-0.2c-0.1-0.2-0.3-0.4-0.5-0.4c0,0.2,0.1,0.4,0.2,0.5c0,0.1,0.1,0.1,0.1,0.2
		c0,0,0.1,0,0.1,0.1c0.1,0.1,0.3,0.1,0.5,0.1C18.6,115.6,18.6,115.5,18.5,115.4C18.5,115.4,18.5,115.4,18.5,115.4z"/>
	<path class="st0" d="M14.9,100.9c0.1,0.4,0,1,0,1.5c0,0.5,0,0.9,0.4,1c0-0.5-0.1-0.8-0.1-1.1c0-0.3,0-0.5,0.3-0.8
		C14.9,102,15.4,100.7,14.9,100.9z"/>
	<path class="st0" d="M10.8,69.2c-0.5-0.4-1.3,0.2-0.9,0.7c0.1-0.2,0.3-0.4,0.5-0.5c0.1,0.1,0.1,0.3,0,0.6c-0.1,0.2-0.1,0.5,0.1,0.5
		C10.9,70.2,10.5,69.9,10.8,69.2z"/>
	<path class="st0" d="M32.1,32.3c-0.2,0.2-0.4,0.3-0.5,0.1c-0.5,0.8-1.2,1.4-0.9,1.8C30.9,33.3,31.9,32.9,32.1,32.3z"/>
	<path class="st0" d="M47.7,18.6c-0.4,0.3-0.7,0.7-0.6,1C47.6,19.3,48.3,19,47.7,18.6z"/>
	<path class="st0" d="M65.5,8.4c0,0,0.1,0,0.1,0l0.1,0l0,0l0,0L66.8,8l0,0l0,0c0.1,0,0.1-0.1,0.2-0.1c0.2-0.1,0.5-0.3,0.7-0.4
		c-0.3-0.1-0.6-0.1-0.9,0c0,0-0.1,0-0.1,0l-0.1,0l0,0l0,0l-1.1,0.4l0,0l-0.1,0C65.3,8,65.2,8,65,8.1c-0.3,0.1-0.5,0.3-0.7,0.5
		c0.4-0.1,0,0.2-0.1,0.4c0.4-0.2,0.7-0.3,1-0.5C65.3,8.5,65.4,8.5,65.5,8.4z"/>
	<path class="st0" d="M66.3,10.5C66.3,10.5,66.4,10.5,66.3,10.5L66.3,10.5l0.2,0l0.1,0v0.2c0,0-0.2,0-0.2,0h0h0
		C66.4,10.7,66.4,10.6,66.3,10.5l0.2-0.1c-0.2,0.1-0.5-0.1,0.1-0.1v0.1c0-0.1,0.9-0.3,1-0.3l0,0c0,0,0,0,0,0c0.1-0.2,0.1-0.4,0-0.9
		c0,0.1-0.1,0.2-0.1,0.3c0,0,0,0.1-0.1,0.1l-0.1,0l-0.1,0v0.4h0.1c-2.1,0.6-0.6,0-1.1,0.6h0l0-0.3l0-0.1l-0.1,0
		c-0.2,0.2-0.5,0.5-0.6,0.7c0.2-0.1,0.4-0.2,0.6-0.3C66.2,10.6,66.2,10.6,66.3,10.5z"/>
	<path class="st0" d="M68.7,8.9c-0.3-0.5-0.1-0.4-0.4-0.9c0.2,0,0.2-0.3,0-0.4c0,0.5-0.5,0.6-0.4,1.1c0.1,0,0.3-0.1,0.4,0.1
		c-0.1,0.5-0.6-0.4-0.7,0.2c0.1,0.4,0.3,0.7,0.5,0.7C68.2,9.4,68.4,9.1,68.7,8.9z"/>
	<path class="st0" d="M68.7,6.8L68.7,6.8L68.7,6.8c0.1,0,0.2-0.1,0.2-0.1c0.4-0.1,0.8-0.3,1.3-0.7c-1.6-0.5-0.1-0.2-1.1,0.3
		c-0.1,0.1-0.3,0.1-0.5,0.2l0,0l0,0l0,0l-0.1,0c0,0-0.1,0-0.1,0c-0.1,0-0.2,0.1-0.2,0.5c0.1-0.1,0.2-0.2,0.3-0.2
		C68.6,6.9,68.6,6.8,68.7,6.8z"/>
	<path class="st0" d="M80.9,5.2c-0.5,0.1-0.6,0.4-1.1,0.2C79.8,6.1,81.3,5.8,80.9,5.2z"/>
	<path class="st0" d="M83.7,7.5c-0.7,0.3-0.9,0-1.2,0.4C82.7,8,84,8.1,83.7,7.5z"/>
	<path class="st0" d="M96.1,18.4c-0.4,0-0.7,0-0.7,0.3c0.1,0.1,0.9,0.4,0.9,0C96.2,18.7,96.1,18.6,96.1,18.4z"/>
	<path class="st0" d="M95.9,17.9c0.1,0,0.2,0.1,0.2,0.3c0.6,0,1.2,0.1,1.1-0.5C96.6,17.9,96.2,17.6,95.9,17.9z"/>
	<path class="st0" d="M100,12.9c0.2,0,0.4,0.1,0.4-0.2c-0.2-0.1-0.3-0.2-0.4-0.4c-0.9,0.3-1.2,0.3-1.8,0.6c0.9,0.1,1,0,1.6,0.2
		C99.7,12.9,99.8,12.9,100,12.9z"/>
	<path class="st0" d="M119.2,27.4c0.7,0.5,0.7-0.7,1.1-0.9c-0.3-0.2-0.4,0-0.7-0.1C119.5,27.1,119.8,27.2,119.2,27.4z"/>
	<path class="st0" d="M124.9,19.5c0.5-0.7-0.3-0.9-0.8-0.7C124.7,19,124.3,19.4,124.9,19.5z"/>
	<path class="st0" d="M62.9,166.6c0.3,0,0.6,0,0.8-0.2c-1-0.4-2.2-1-2.3-2.1c0.9,0,0.9,1.1,1.4,0.8c-0.6-0.9-1.3-1.2-2.1-1.3
		c-0.8-0.2-1.7-0.3-2.6-0.9c0.1-0.2,0.2-0.3,0.4-0.4c-0.5-0.6-1.5-0.6-2.2-0.8c-0.7-0.7-1.5-1.2-2.3-1.7c-0.9-0.5-1.8-1-2.7-1.4
		c-0.9-0.5-1.8-1-2.6-1.5c-0.8-0.6-1.5-1.2-2-2c-0.7,0-1.4-0.4-2.2-0.9c-0.4-0.2-0.8-0.5-1.2-0.8c-0.4-0.3-0.8-0.6-1.1-0.8
		c0.8-0.4,1.9,1.3,2.6,0.8c-0.6-0.5-3.2-2.2-3.1-3c-0.2,0.2-0.4,0.4-0.7,0.2c-0.5-0.3-0.1-0.5-0.3-0.8c-0.5,0.2-1.2-0.3-1.9-1
		c-0.4-0.3-0.7-0.8-1-1.1c-0.3-0.4-0.5-0.7-0.7-0.9c0.1,0.1,0.1,0.3-0.1,0.4c0-0.5-1.6-0.8-1.6-1.7c0.3,0.4,0.5,0.5,0.8,0.3
		c-0.1-1-0.9,0-1.4-0.8c0.3-0.3,0.5,0.3,0.8,0.1c-0.6-0.5-1.4-1.4-2.1-2.3c-0.7-0.9-1.4-1.8-2-2.2c-0.6,0.2,0.3,0.6-0.3,0.7
		c-0.1-0.3-0.8-0.7-0.5-0.9c0.2-0.1,0.4,0.1,0.6,0c-0.5-0.6-0.9-1.2-1.4-1.8c-0.5-0.6-0.9-1.2-1.4-1.8c-0.5-0.6-0.9-1.3-1.4-2
		c-0.4-0.7-0.9-1.5-1.3-2.3c0.2-0.4-0.2-1-0.7-1.6c-0.5-0.6-1.1-1.3-1.3-1.8c-0.2-0.7-0.7-1.5-1.2-2.3c-0.1-0.2-0.3-0.4-0.4-0.6
		c-0.1-0.2-0.3-0.4-0.4-0.7c-0.3-0.4-0.5-0.9-0.8-1.3c-0.4-0.7-0.7-1.4-1-2.2c-0.3-0.7-0.5-1.5-0.8-2.2c-0.1-0.4-0.3-0.7-0.4-1.1
		l0,0l-0.3-0.9l0,0l0,0l0,0l0,0l0-0.1l-0.1-0.1c0-0.1-0.1-0.2-0.1-0.3c-0.2-0.3-0.4-0.7-0.8-0.9c0.3-0.1,0.6-0.2,0.4-0.4
		c-0.3,0.1-0.6,0.2-0.7,0.1c0-0.1,0-0.1,0-0.2c0,0,0-0.1,0-0.1l0-0.1c0-0.1,0-0.1,0-0.2c0-0.3,0-0.5,0-0.7c0-0.4,0.2-0.8,0.4-1.1
		c-0.4-0.1-0.7-0.4-1.1-0.7c0.1,0.4,0.8,1,0.4,1.4c-0.2-0.4-0.6-0.3-0.7-1.1c0.8-1.3,0.2-0.5,0.1-2.1c0.1,0.4,0.3,0.6,0.5,0.6
		c-0.2-0.2-0.3-0.5-0.4-0.8c0-0.2-0.1-0.3-0.1-0.4c0-0.1,0-0.3,0-0.4c0-0.6-0.1-1.1-0.4-1.5c0,1.1,0.2,1.3,0,2.2
		c-0.4-1-0.3-1.2-0.8-2.1c0.3-0.3,0.7,0.5,0.7-0.2c-0.5-0.4-0.3-1-0.2-1.8c0.1-0.7,0.3-1.4-0.2-2c0.2,0.4-0.1,1.1-0.2,0.6
		c-0.1-0.5,0.2-0.7,0.2-1c-0.6-0.3-0.8-0.8-0.8-1.4c0-0.6,0-1.2-0.3-1.6c0.2-0.5,0.4-0.5,0.6-0.7c-0.6-0.3-1-2.1-1-2.5
		c0.5-0.1,0.2,0.9,0.6,0.9c-0.3-2-0.9-2.6-1.3-3.5c-0.1-0.5,0.5-0.2,0.5-0.6c-0.7,0.4-1-1.2-1.1-2.2c0.6,0.1,0.9,0,1,0.2
		c-0.2,0.2,0,0.9,0.2,1.2c0.3-0.6,0.6,0.6,1,0.5c-0.1,0.4-0.2,0.4-0.5,0.2c0.2,0.7,0.3,1.5,0.3,2.4c0,0.8,0.1,1.6,0.4,2.3
		c-0.2,0-0.4-0.3-0.5,0.1c0.6-0.4,0.2,0.7,0.6,0.5c0.3-0.6,0.8,0.4,0.9,0.7c-0.3-0.2-0.4-0.2-0.5,0.3c0.5,0.2,0.6,0.5,0.5,0.9
		c0,0.2,0,0.4,0,0.6c0,0.2,0.1,0.3,0.3,0.4c-0.2,0.5-0.6-0.3-0.4,0.5c0.2,0,0.5-0.1,0.7-0.1c0.2,0.7,0.6,2.7,0.7,3.2
		c0,0.5,0.7-0.7,0.7,0.2c-0.4,0-0.2,0.5,0,1.1c0.2,0.6,0.3,1.2-0.3,1.4c0.1,0.2,0.2,0.4,0.3,0.6c0,0.1,0.1,0.2,0.1,0.3
		c0,0.1,0.1,0.2,0.1,0.3c0.1,0.4,0.2,0.8,0.3,1.1c0.2,0.7,0.3,1.4,1,2.2c-0.1,0.1-0.2,0.5-0.1,0.8c0,0.2,0.1,0.4,0.1,0.5
		c0,0.1,0.1,0.1,0.2,0.1c0,0-0.1-0.1,0-0.1c0,0,0-0.1,0-0.1c0-0.1,0-0.1,0-0.1c0.1-0.2,0.2-0.2,0.2,0c0,0.1,0,0.2,0,0.2
		c0,0.1,0,0.1,0,0.2c0,0.1,0,0.2,0,0.3c0,0.2,0,0.4,0.1,0.7c0,0.2,0.1,0.4,0.1,0.7l0,0.2l0,0.1l0,0l0,0l0.3,0.9
		c0.1,0.2,0.1,0.4,0.2,0.6c0.6,1.6,1.2,3.1,1.7,4.6c-0.1-0.2,0-0.4,0.2-0.5c0.1,0.2,0.2,0.5,0.3,0.7c-0.2,0.1-0.4,0.1-0.5,0
		c0.7,0.4,0.1,1.8,0.6,2.1c-0.1-0.6,0.3,0.2,0.2,0.4c0.5-0.1,0.4-0.1,0.9,0.2c-0.1-0.3-0.4-0.6-0.2-0.8c0.7,0.6,1.1,1.5,1.5,2.4
		c0.4,1,0.7,2,1.1,2.7c0.6,0.4,0.2-0.9,0.7-0.4c-0.2,0.8,1.4,0.9,0.9,1.5c-0.5,0.1-1.2-1.6-1.5-0.5c0.9,0.6,2.1,0.5,2.1,1.9
		c1.3-1,2.1,1.5,3.2,1.7c0,0.6,0.3,1.9,1.2,2.2c-0.6-1.2-1-2.4-0.5-3.3c0.1,0.2,0.3,0.4,0.5,0.4c-0.2-0.5-0.4-0.5-0.7-0.6
		c-0.2,0-0.5,0-0.7-0.5c-0.6,0.3,0.4,1-0.1,1.4c-0.9-1.2-1.7-2.3-2-3.4c0.2,0.6,0.6-0.1,0.8,0.4c0,0.2,0.2,1.1,0.5,1
		c0.4-0.1,1.1,0.2,1.6,0.6c0.5,0.5,0.9,1.2,0.9,1.9c1.1-0.1,0.9,1.3,1.1,1.5c-0.2-0.5,0.6-0.3,0.8-0.1c-0.6,0.5,0.7,1.8,0.7,0.6
		c0.5,0.6,0.2,1,0,1.1c0.7,0.2,1.3,0.5,2,0.5c-0.3,0.3-0.6,0.1-0.4,0.6c0.5,0.2,0.3-0.1,0.6-0.1c0.1,0.1,0,0.3-0.1,0.4
		c0.7-0.1,0.9,0.4,1.1,0.9c0.2,0.5,0.3,1.1,0.6,1c-0.1-0.2-0.2-0.4,0-0.5c0.2,0.3,0.5,0.7,0.7,1c0.2,0.3,0.3,0.6,0.2,0.9
		c0.7-0.3,0.2,0.6,0.8,1c0.5-0.3,1.3,0.1,1.9,0.6c0.6,0.5,1,1.1,0.6,1.4c0.7,0.1,1.4,0,1.6,1c0.8-0.5-0.8-1-0.6-1.5
		c0.3,0,0.7,0.4,1,0.7c0.4,0.3,0.7,0.7,1.1,0.7c0,0.6,0.1,1.1-0.3,1.5c0.4,0.2,0.8-0.1,1.2-0.1c-0.1-0.2-0.4-0.3-0.3-0.5
		c0.5,0,0.9,0.2,1.1,0.6c0.2,0.4,0.3,0.8,0,1.2c-0.2-0.4-1,0.2-0.7,0.3c0.7-0.4,1.5,0.4,2.2,0.2c-0.5-0.7-0.7,0.1-1.2-0.5
		c0.1-0.6,0.6-0.4,0.3-1c0.8,0.7,1.2,1,1.9,1.3c-0.2,0.3-0.5-0.1-0.7,0.3c0.4,0.5,0.6-0.3,1-0.1c0.1,0.4,0.5,0.7,0.3,1.1
		c0.9,0.1,1.5,0.3,2,0.7c0.3,0.2,0.6,0.4,0.9,0.7c0.3,0.2,0.7,0.5,1.2,0.7c0.6-0.5-0.9-0.6-0.6-1c1.1,0.1,2,0.5,3,0.9
		c0.9,0.3,1.9,0.7,2.9,0.8c-0.1,0.2-0.4,0.1-0.5,0.3c0.3,0,0.6,0,0.8,0.1c0.2,0.1,0.4,0.2,0.5,0.3c0.3,0.2,0.5,0.3,0.8,0
		c0.5,0.5,1.1,0.9,1.9,1.4c0.8,0.4,1.7,0.9,2.6,1.3c0.9,0.4,1.8,0.8,2.6,1.2c0.2,0.1,0.4,0.2,0.6,0.3c0.2,0.1,0.4,0.2,0.5,0.3
		c0.3,0.2,0.6,0.4,0.9,0.6c0.6,0.2,1.4,0.2,2.2,0.3c0.7,0.1,1.3,0.3,1.6,1c0.4-0.2,1-0.1,1.5,0.1c0.6,0.2,1.1,0.3,1.4,0.1
		c-0.2-0.1,0-0.3,0.2-0.3c0.6,0.3,1.2,0.5,1.8,0.6c0.6,0.1,1.1,0,1.6,0c0.5,0,1.1-0.1,1.7,0c0.6,0,1.3,0.1,2,0.3
		c0-0.9-2.2,0-1.7-1.2c-0.4-0.1-0.7-0.2-1-0.3c-0.1-0.1-0.3-0.1-0.4-0.2c0.3,0.1,0.6,0.1,0.9,0.1c0.8,0.1,1.6,0.2,2.4,0.4
		c0.4,0.1,0.8,0.1,1.2,0.1l1.2,0.1c0.4,0,0.8,0.1,1.2,0.1l1.2,0.1l1.2,0.1c0.4,0,0.8,0,1.2,0c0.8,0,1.7,0,2.5,0c0.4,0,0.8,0,1.2,0
		l1.2-0.1c0.4,0,0.8,0,1.2-0.1l1.2-0.1l1.2-0.1l0.6-0.1c0.2,0,0.4-0.1,0.6-0.1c0.8-0.1,1.7-0.2,2.5-0.4c0.2,0,0.4-0.1,0.6-0.1
		l0.6-0.1l1.2-0.2c0.4-0.1,0.8-0.2,1.2-0.2l1.2-0.3l1.2-0.3l0.6-0.2c0.2-0.1,0.4-0.1,0.6-0.2c0.8-0.2,1.6-0.5,2.4-0.7
		c0.4-0.1,0.8-0.3,1.2-0.4l1.2-0.4l1.2-0.4l1.2-0.5l1.2-0.5c0.4-0.2,0.8-0.3,1.2-0.5l2.3-1.1c0.2-0.1,0.4-0.2,0.6-0.3l0.6-0.3
		l1.1-0.6l1.1-0.6c0.4-0.2,0.7-0.4,1.1-0.6l2.2-1.3l2.1-1.4c0.3-0.2,0.7-0.5,1-0.7l1-0.8l1-0.8l0.5-0.4c0.2-0.1,0.3-0.3,0.5-0.4
		l1.9-1.6c0.3-0.3,0.6-0.6,0.9-0.8l0.9-0.9l0.9-0.9l0.9-0.9l0.9-0.9c0.3-0.3,0.6-0.6,0.9-0.9l1.7-1.9c0.1-0.2,0.3-0.3,0.4-0.5
		l0.4-0.5l0.8-1l0.8-1c0.3-0.3,0.5-0.7,0.7-1l0.7-1l0.4-0.5c0.1-0.2,0.2-0.3,0.4-0.5c0.5-0.7,0.9-1.4,1.4-2.1
		c0.1-0.2,0.2-0.3,0.3-0.5l0.3-0.5l0.6-1.1l0.6-1.1c0.2-0.4,0.4-0.7,0.6-1.1l0.6-1.1c0.2-0.4,0.4-0.7,0.6-1.1c0.3-0.8,0.7-1.5,1-2.3
		c0.2-0.4,0.3-0.8,0.5-1.1l0.5-1.1l0.5-1.1c0.1-0.4,0.3-0.8,0.4-1.2l0.4-1.2c0.1-0.4,0.3-0.8,0.4-1.2c0.2-0.8,0.5-1.6,0.7-2.4
		c0.1-0.4,0.2-0.8,0.3-1.2l0.3-1.2l0.3-1.2c0.1-0.4,0.2-0.8,0.2-1.2c0.2-0.8,0.3-1.6,0.5-2.4c0.1-0.8,0.2-1.6,0.4-2.4
		c0.8-6.4,0.8-12.9-0.1-19.1c-0.1-0.4-0.1-0.8-0.2-1.2c-0.1-0.4-0.1-0.8-0.2-1.2c-0.1-0.8-0.3-1.5-0.5-2.3c-0.4-1.5-0.7-3-1.2-4.5
		c-0.8-3-2-5.8-3.2-8.6c-0.6-1.4-1.3-2.7-2-4.1c-0.2-0.3-0.4-0.7-0.5-1c-0.2-0.3-0.3-0.7-0.5-1c-0.4-0.6-0.8-1.3-1.1-1.9
		c-0.2-0.3-0.4-0.6-0.6-0.9c-0.2-0.3-0.4-0.6-0.6-0.9c-0.4-0.6-0.8-1.2-1.2-1.8c-0.4-0.6-0.9-1.2-1.3-1.8c-0.4-0.6-0.9-1.2-1.3-1.7
		c-0.5-0.6-0.9-1.1-1.4-1.7l-0.3-0.4l-0.4-0.4c-0.2-0.3-0.5-0.5-0.7-0.8c-0.2-0.3-0.5-0.5-0.7-0.8c-0.2-0.3-0.5-0.5-0.7-0.8
		c-0.5-0.5-1-1-1.5-1.5c-0.3-0.2-0.5-0.5-0.8-0.7c-0.3-0.2-0.5-0.5-0.8-0.7c-0.5-0.5-1-0.9-1.6-1.4c-0.5-0.4-1.1-0.9-1.6-1.3
		c-0.3-0.2-0.5-0.4-0.8-0.6c-0.1-0.1-0.3-0.2-0.4-0.3l-0.4-0.3c-4.4-3.3-8.9-5.9-13.5-8c-4.6-2-9.2-3.5-13.7-4.4
		c-1.1-0.2-2.2-0.4-3.3-0.6c-0.1-0.2-0.3-0.3-0.5-0.1c0.2,0,0.2,0,0.3,0.1c-1-0.2-2-0.3-3-0.4c0.3-0.6,0.3-0.3,1-0.1
		c0.1-0.6-0.1-0.5,0.1-1c-0.8-0.3-0.9,0.2-1.2,0.4c0.3-1.1-1.9-0.6-2.5-1.2c0,0.4-0.2,0.5-0.5,0.5c0.1-0.2,0.2-0.3,0-0.5
		c-1.7,0-3.2,0.1-4.8,0.2c-0.4,0-0.8,0.1-1.1,0.1c-0.2,0-0.4,0-0.6,0c-0.2,0-0.4,0-0.6,0c-0.8,0-1.5,0.1-2.2,0
		c-1,0.6-3.7,1.5-3.9-0.2c-0.9-0.1-1.8-0.1-2.8,0c-0.5,0.1-0.9,0.1-1.4,0.2c-0.5,0.1-0.9,0.2-1.4,0.3c-0.5,0.1-0.9,0.2-1.4,0.3
		l-0.3,0.1l-0.2,0l-0.2,0.1c-0.3,0.1-0.6,0.1-0.8,0.2c-0.6,0.1-1.1,0.3-1.7,0.4c-0.3,0.1-0.6,0.1-0.9,0.2l-0.4,0.1l-0.1,0l-0.1,0
		l0,0l-0.1,0c-0.2,0.5-0.6,0.8-1,1c-0.2,0.1-0.4,0.1-0.6,0.2l-0.1,0l0,0l0,0h0h0h-0.7h0l0,0.1l0,0.1c-0.1,0-0.2,0.1-0.2,0.1
		c-0.2,0-0.3,0.1-0.5,0.1c0.2,0-0.2,0.5-0.6,0.4c-0.7-0.2-0.6-0.5-0.2-0.9c0.2-0.2,0.5-0.4,0.8-0.5c0.1,0,0.1-0.1,0.2-0.1l0.1-0.1
		l0.1,0l0,0l0.7-0.2h0l0,0l0,0c0.1,0,0.2-0.1,0.2-0.1c-0.5,0.2-0.4-1.1-0.4-1.5c0.5-0.4,1-0.7,1.4-0.9l0.2-0.1c0,0,0,0,0.1,0l0.1,0
		l0.2-0.1c0.2-0.1,0.5-0.2,0.7-0.3c0.5-0.2,1-0.4,1.4-0.7c0.6-0.1,0.8,0.3,1.4,0.1c0.1-0.1,0.2-0.2,0.3-0.3c0.1,0,0.1-0.1,0.2-0.1
		c0,0,0.1,0,0.1,0c0.2,0,0.4,0,0.6,0c0.4,0,0.9,0.2,1.4,0c0.5-0.2,0.7-1,1.2-1.1c0.6-0.1,1.2,0.5,1.7,0.4c0.3-0.1,0.8-0.4,1-0.5
		c0,0-0.1,0.4-0.1,0.4c0.5-0.1,0.7-0.6,1.2-0.7c0.1,0,0.2,0.5,0.3,0.5c0.7,0.2,1.4-0.8,2.1-1c0.6,0.4-0.5,0.8,0.3,0.8
		c0-0.6,0.8-0.6,1-1c0.6,0.9,2-0.2,1.9,0.7c0.6-0.2,1.4-0.5,2.3-0.6c0.8-0.2,1.7-0.3,2.2-0.3c-0.2,0-0.2-0.3-0.2-0.5
		c1.4,0,1.8,0,2.6-0.3c0,0.2-0.2,0.2-0.2,0.3c1,0,2-0.1,2.9,0c0.9,0,1.6,0.1,2.3,0.3c0.2-0.2,0.3-0.5,0.6-0.6
		c0.4,0.5,0.6,0.3,0.9-0.1c0.3,0.4,0.1,1,0.7,0.8c-0.6-0.6,0.8-0.5,1.2-0.5c0,0.3,0.5,0.3,0.3,0.7c0,0.4-0.6,0.1-0.6,0.4
		c1.2,0.1,1.3-0.4,1.5-1.2c-0.4-0.3-1.2-0.4-1.6-0.7c-0.2,0.5-0.8,0.5-1.4,0.3c-0.6-0.2-1.2-0.4-1.4-0.6c0.2,0,0.2-0.3,0.4-0.3
		c0,0.2-0.1,0.5,0.1,0.5c0.6-0.5,1.2-0.5,1.8-0.4c0.6,0.1,1.3,0.4,2,0.5c-0.3-0.7,0.4-0.5,0.5-1.1c-0.7-0.1-1.5-0.2-2.2-0.3
		c-0.7-0.1-1.5-0.2-2.1-0.3c0.6,0.4-0.6,0.5-0.8,0.6c-0.3-0.3-1.4-0.8-1.7-0.6c0.2,0,0.2,0.3,0.2,0.5c-0.8-0.8-1.9-0.5-3-0.8
		c1.2,0.1,0.7-0.3,1.6-0.5c-0.8-0.3-1.3-0.5-1.9,0.1c0-0.2,0-0.3,0-0.5c-0.5,0.1-1,0.1-1.5,0.1c-0.6,0-1.2-0.1-1.8-0.1
		c-0.6-0.1-1.2-0.1-1.9-0.1c-0.6,0-1.2,0.1-1.8,0.3c0-0.2,0-0.5-0.2-0.5c-0.5,0.2-1.1,0.3-1.6,0.3c-0.6,0-1.2,0.1-1.7,0.1
		c-1.1,0-2.1,0-2.6,0.4c-0.1-0.3,0.1-0.6,0.4-0.7c0.3-0.1,0.6-0.1,0.9,0c-0.3-1.2-1.3-0.1-1.8,0.1c0,0-0.1-0.3-0.1-0.3
		c-0.7,0.3-1,1.1-1.7,1.3c-0.5,0.1-0.9,0-1.3-0.1c-0.4-0.1-0.8-0.2-1.5,0.1c0.6,0.7-1.4,0.4-1.8,0.9c1-0.2,0.5,0.1-0.3,0.4
		c-0.1,0-0.1,0-0.2,0c-0.1,0-0.1,0-0.2,0c-0.1,0-0.3,0.1-0.4,0.1c-0.3,0.1-0.5,0.1-0.8,0.1c-0.5,0-0.8,0-0.9-0.3
		c0.8-0.2,0.8-0.6,1.2-0.9c-1.2,0.4-0.7,0-1.2-0.6c-1,0.5-1.2,0-2,0.2c0.3,0.5,1.2,0.2,1.6,0.4c-0.3,0.1-0.5,0.2-0.6,0.4
		c-0.6,0-1.2-0.8-1.5,0.1c-0.1-0.3-0.2-0.5-0.4-0.6c1.8-0.8,3.1-1.3,4.3-1.6c1-0.3,2.1-0.4,3.6-0.4c0.4-0.2,0.9-0.3,1.3-0.4
		c0.5-0.1,0.9-0.1,1.4-0.1c0.9-0.1,1.9-0.2,2.7-0.7c0.1,0.3,0.7,0,0.7,0.4c1.2-0.4,2.5-0.2,3.7-0.1c0.6,0.1,1.2,0.1,1.8,0.1
		c0.3,0,0.6-0.1,0.8-0.2c0.3-0.1,0.5-0.2,0.8-0.4c-0.3,0-0.6,0-0.9,0c-0.3,0-0.5-0.1-0.5-0.3c0.6,0,3.4-0.7,2.8,0.6
		c0.5-0.1,0.9-0.3,1.6-0.2c0.3-0.7-1,0-1-0.5c0.5,0,1.2-0.2,1.9-0.1c0.7,0,1.4,0.2,1.7,0.7c0.5,0,0.9,0,1.3,0c0.4,0,0.8,0,1.2,0.1
		c0.8,0,1.6,0.1,2.3,0.2c0.7,0.1,1.4,0.2,2,0.4c0.6,0.2,1.2,0.4,1.8,0.7c0.2-0.9,0.3,0.4,0.7,0.4c0.5-0.1-0.1-0.9,0.3-0.8
		c0.2,0,0.3-0.1,0.4-0.1c0.8,0,0.6,0.5,1.1,0.7c0.3-0.4,1.3-0.1,2,0c-0.1,1.3,1.4,0.8,2.2,1c1.6,0.4,3.3,1.1,5,1.8
		c0.8,0.3,1.6,0.7,2.4,1c0.4,0.1,0.7,0.3,1.1,0.4c0.3,0.1,0.7,0.3,1,0.4c-0.8-0.6-1.5-0.8-2-1.1c-0.6-0.2-1.1-0.5-1.8-1.1
		c-1.2,0-2.5-0.4-3.7-0.9c-1.3-0.5-2.6-1-3.9-1.2c0.1-0.4-0.2-0.6-0.2-0.9c0.3-0.2,0.8-0.1,1.1-0.3c-0.2-0.1-0.4-0.2-0.8-0.2
		c-0.3,0-0.7,0-1.1-0.1c-0.8-0.1-1.6-0.2-2.2-0.8c-0.1,0.3-0.3,0.3-0.5,0.2c-0.2-0.1-0.5-0.2-0.7-0.3c-0.4,0.5-1.3,0.7-2.3,0.7
		c-1,0-2-0.2-2.6-0.3c0.1-0.3,1.8,0.1,1.2-0.2c-0.6-0.1-1.2-0.1-1.2-0.6c0.4-0.1,1.2,0.3,1.2-0.1c-0.6-0.3-2-0.1-1.5-1.2
		c-0.8-0.2,0.2,0.7-0.7,0.6c0-0.1-0.2-0.2-0.4-0.2c-0.2-0.8,0.4-0.8,0.7-1.1c-0.9-0.5-1,0.2-1.1,0.4c-0.6-0.5,0.6-0.6,0.1-1
		c-0.4-0.2-0.9-0.3-1.3-0.4c-0.4-0.1-0.8-0.1-1-0.1c0.2,0,0.3,0.2,0.4,0.4c-0.4-0.1-0.9,0.5-1,0c0.2,0,0.6,0,0.6-0.2
		c-0.6-0.3-1.3-0.3-2-0.4c-0.7-0.1-1.4-0.1-1.7-0.5c-0.5,0.2,0.4,0.5-0.2,0.7c-1.2,0.3-1.1-0.6-1.9-0.6c-0.1,0.3,0.3,0.9-0.2,0.9
		c-0.7-0.1-2,0.4-1.9-0.4c0.2-0.1,1.6-0.3,1-0.4c-1.2,0.4-2,0.1-2.5,0.9c-0.9-0.1,0.1-0.9-0.7-1c-0.3,0.1,0,0.7-0.4,0.7
		c-0.3-0.3-2.6-0.8-1.5-0.2c-0.9-0.1-1.1,0-2.3,0.1c0,0.3,0.2,0.6-0.1,0.7c-0.4,0-0.9,0-1.3,0c-0.4,0-0.8,0.1-1.2,0.1
		c-0.8,0.1-1.6,0.3-2.4,0.5c-0.8,0.2-1.5,0.4-2.3,0.5c-0.4,0.1-0.8,0.2-1.1,0.2c-0.2,0-0.4,0.1-0.6,0.1c-0.1,0-0.2,0-0.3,0l-0.4,0
		c0,0.3,0.5,0.3,0.1,0.5c-1.5,0.1-2.7,0.2-3.4,1.1c-0.1-0.2,0-0.4,0.1-0.6c-0.2,0.1-0.5,0.3-0.8,0.3c-0.1,0-0.3,0.1-0.4,0.1l-0.1,0
		l0,0l0,0l0,0c0,0-0.1,0-0.1,0c-0.3,0-0.5-0.1-0.8-0.1c0-0.4,0.2-0.5,0.4-0.6c0.1-0.1,0.1-0.1,0.2-0.3c0,0,0,0,0-0.1c0,0,0,0,0-0.1
		c0,0,0-0.1,0.1-0.1c0-0.1,0-0.2,0-0.4c-0.1,0-0.2,0.1-0.3,0.1c0,0,0,0,0,0l0,0c0,0,0,0,0,0.1c-0.1,0.1-0.1,0.2-0.2,0.2
		c-0.1,0.2-0.2,0.4-0.2,0.6c-0.2,0.4-0.4,0.8-0.8,0.7c0,0.4,0.5,0.5,0.2,0.6c-0.2,0-0.3,0-0.4,0c0,0,0,0-0.1,0.1c0,0,0,0,0,0l0,0
		c-0.1,0-0.4,0.1-1,0.3l0,0l0,0l0,0c-0.1,0.1-0.1,0.2-0.2,0.3c-0.2-0.6-0.8-0.4-1.3-0.4c-0.7,0.6-1.4,0.8-2.2,1
		c-0.4,0.1-0.8,0.2-1.1,0.4c-0.3,0.2-0.6,0.5-0.9,0.9c-0.8,0.2-1.7,0.5-2.5,0.9c-0.9,0.4-1.8,0.8-2.6,1.3c-0.4,0.2-0.8,0.5-1.2,0.7
		c-0.4,0.3-0.8,0.5-1.1,0.8c-0.7,0.5-1.3,1-1.8,1.5c-0.4-0.3-1.1,0.5-1.3-0.2c-0.7,1.2-1.8,0.6-2.1,1.8c0.2-0.1,0.4-0.2,0.5,0.1
		c-0.3,0.4-0.4,0.4-1.1,0.9c-0.2-0.2-0.3-0.5-0.6-0.2c0.1,1.3-1.9,1.4-2.8,1.8c0.2,0.3,0.4,0.1,0.6,0.2c-0.6,0.5-1.7,1.6-2.4,1
		c0.3-0.5,1,0.1,0.9-0.5c-0.3,0.1-0.4-0.1-0.6-0.1c-0.3,0.5-0.7,1.1-1.1,1.5c-0.2,0.2-0.4,0.5-0.7,0.7c-0.2,0.2-0.5,0.4-0.7,0.7
		c-0.9,0.8-1.9,1.5-2.4,1.9c-0.4,0.3-0.2,0.9-0.4,1.1c-0.5,0.4-1.4,0.2-2,1.2c0.1-0.2-0.2,0.2-0.6,0.6c-0.1,0.2-1.4,2-2.2,1.9
		c-0.4-0.2,0.9-1.4,0.3-1.1c-0.5,0.6-0.5,0.9-1.1,1.2c0.4,0.2,0.3,0.6,0.1,0.8c-0.2,0.3-0.6,0.5-0.8,0.5c0.1-0.3,0.3-0.7,0.5-1
		c0.2-0.3,0.2-0.7,0.1-1c-0.2,0.3-0.4,0.6-0.6,1c-0.2,0.4-0.4,0.7-0.7,1c-0.5,0.6-1,0.9-1.5,0.3c0.1,0.1-0.1,0.4-0.3,0.3
		c0.2-0.9-0.3-0.9-0.1-1.7c-0.2,0.8-0.5,1.3-0.9,1.8c-0.4,0.5-0.8,0.9-1.3,1.4c-0.4,0.4-0.8,0.9-1.1,1.4c-0.1,0.3-0.3,0.6-0.3,0.9
		c-0.1,0.3-0.1,0.7,0,1.1c-0.3-0.1-0.2-0.4-0.4-0.6c-0.4,0.5,0.1,0.8-0.6,1.4c-0.2-0.2-0.4,0-0.7-0.2c-0.3,0.5-0.6,1-0.6,1.4
		c0.5-0.8,1-1,1.5-0.7c-0.5,0.5-0.7,1-0.9,1.5c-0.2,0.5-0.5,0.9-1.2,1.2c0.6-0.6-0.1-0.8,0.5-1.4c-0.5,0-0.9-0.5-1.3,0.2
		c0.2,0.2,0.6,0.3,0.5,0.5c-0.3-0.3-0.9,0.2-1.4,0.8c-0.3,0.3-0.6,0.7-0.8,1c-0.3,0.3-0.5,0.7-0.6,1c0.4,0.5,0.7-0.2,1.1,0.1
		c-0.3,0.1-0.5,0.6-0.8,1c-0.1-0.6-0.2-0.4-0.8-0.7c-0.5,0.5,0.3,0.5,0,1c-0.6-0.3-0.9,0.8-1.4,0.7c0,0.5-0.1,0.8-0.3,0.9
		c-0.2,0.1-0.4,0-0.5-0.1c0,0.9-0.2,1.2,0,1.9c-0.5,0.2-0.2-0.1-0.6-0.3c-0.3,0.9-0.3,0.8-0.8,1.3c0,0.4,0.2,0.7,0.3,1.1
		c-0.5,0.2-0.5,0.8-0.6,0c-0.6,1-0.6,1.9-0.5,2.6c0.1,0.4,0.1,0.7,0.1,1c0,0.3,0,0.6-0.2,0.8c1.1,0.6,0.3,1.3-0.4,1.9
		c0.3,0.4,0.8-0.3,0.6,0.2c-0.6,0.4-0.7,0.9-0.8,1.7c-0.6,0-0.4-0.5-0.7-0.7c0.1,0.5-0.4,1.1-0.2,1.3c0.2-0.3,0.4-0.4,0.7-0.4
		c-0.2,0.5,0.1,0.7-0.2,1.3c-0.2-0.1-0.3-0.1-0.5-0.2c0.1,0.5,0,1,0,1.5c0,0.2-0.1,0.5-0.2,0.7c-0.1,0.2-0.1,0.5-0.2,0.7
		c-0.3,0.9-0.5,1.7-0.2,2.2c0,0.7-0.5,0.3-0.7,0.7c0.2,0.1,0.4,0,0.6-0.1c0.1,0.1,0,0.4-0.1,0.7c-0.1,0.3-0.3,0.5-0.4,0.8
		c-0.3,0.5-0.4,0.7,0.2,0.2c-0.3,1-1,1.1-0.8,1.8c0.2-0.5,0.6-0.4,0.5,0.1c-0.2-0.3-0.5-0.3-0.6,0.3c0.2,0.3,0.2,0.7,0.3,1.1
		c-0.4-0.6-0.5,0.9-0.4,1.2c0.1-0.2,0.1-0.4,0.2-0.4c0,0.4,0.1,1.6-0.3,1.9c-0.2-0.2,0.1-0.8-0.2-0.9c-0.4,0.7,0.1,1,0.1,1.7
		c-0.5,0.1-0.4,0.6-0.3,1.2c0.1,0.5,0.2,1-0.5,1.1c0.4-0.8,0.1-1.5-0.1-2.2c-0.2-0.6-0.3-1.2,0.5-1.6c-0.9-0.2-0.2-0.8-0.4-1.8
		c-0.6,0.1-0.3-0.4-0.6-0.5c-0.3,1,0.1,0.6,0.2,0.9c-0.2,0.2-0.2,0.8-0.6,0.5c0-0.3,0.1-0.6-0.1-0.7c0,0.9-0.3,1.3-0.8,1.4
		c0.1,0.6,0,1.1-0.1,1.7c-0.1,0.6-0.3,1.4-0.3,2.6c0.2,0.4,0.6-0.2,0.6,0.5c-0.1,0.3-0.2,0.7-0.3,1c-0.1,0.3-0.1,0.7-0.1,1
		c0,0.7,0,1.3,0.1,2c0.1,1.3,0.4,2.5,0.1,3.5c0.5,0.4,1-0.4,1,0.7c-0.3,0.5-0.6,0.4-1,0.2C8,90,8,90.5,8,90.9c0,0.4-0.1,0.8-0.1,1.3
		c-0.1,0.8-0.3,1.7-0.2,2.7c0.7,0.4,0.8,1.4,0.9,2.4c0,1,0.1,2.1,0.7,2.6c-0.2-0.5-0.3-1-0.3-1.5c0-0.5,0.1-1,0.4-1.2
		C9.7,97.5,10,98.3,10,99c0,0.7-0.1,1.2-0.7,1.1c0.7,1.1-0.4,2.2,0.6,2.5c-0.5,0.2-0.7,0.9-0.6,1.7c0.1,0.8,0.3,1.7,0.6,2.4
		c-0.1-0.2-0.1,0.3,0,0.9c0.3,1.4,0.6,2.9,1.1,4.4l0,0.1l0,0.2l0.1,0.3c0.1,0.2,0.1,0.5,0.2,0.7c0.1,0.4,0.3,0.9,0.5,1.3
		c0.3,0.9,0.7,1.7,1.1,2.4c-0.1,0.1-0.3,0.1-0.3,0.2c0,0-0.1,0.1-0.1,0.2c0,0,0,0.1,0,0.1c0.4-0.1,0.8-0.3,0.9,0
		c-0.3,0.2-0.6-0.1-0.5,0.3c0.3,0,0.6,0.2,0.3,0.4c0.3,0.1,0.4-0.3,0.5-0.1c0,0.2,0,0.4-0.2,0.5c-0.3,0.1-0.2-0.2-0.6,0
		c0.2,0.1,0.3,0.2,0.4,0.3c0,0.1,0.1,0.1,0.1,0.2c0,0,0.1,0.1,0.1,0.1l0,0l0,0.2l0,0.2h0c0.2,0.6,0.3,0.7,0.4,0.8l0-0.1c0,0,0,0,0,0
		c0,0,0.1,0.1,0.1,0.1c0.1,0,0.2-0.1,0.2-0.2c0,0,0-0.1,0-0.1l0,0l0,0c-0.1-0.3-0.2-0.7-0.3-1l0,0l0,0c0-0.1,0-0.2,0.3-0.4
		c0.1,0,0.2,0.1,0.3,0.1l0.1,0l0,0.1l0,0.1h0c0.7,1.8,0.2,0.5,0.3,0.9l0,0l0,0l0.2,0.2c0.2,0.2,0.4,0.5,0.6,0.7
		c0.4,0.5,0.7,1,1.1,1.5c0.3,0.5,0.6,1,1,1.5c0.3,0.5,0.6,1.1,0.9,1.6c0.3,0.5,0.6,1.1,0.8,1.6c0.3,0.5,0.6,1.1,0.8,1.6
		c0.3,0.5,0.6,1.1,0.9,1.6c0.1,0.3,0.3,0.5,0.4,0.8c0.2,0.2,0.3,0.5,0.5,0.7c-0.3,0.4-0.9-1-0.7-0.3c1.4,1.5,2,1.6,2.1,3.3
		c0.4,0.6,0.9,0.3,1.4,0.6c0,0.4,0.6,0.9,1,1.4c0.2,0.3,0.5,0.6,0.6,0.8c0.1,0.3,0.2,0.6,0.1,0.9c0.6-0.3,0.5,0.8,1.2,0.9
		c-0.5,0.4-0.2,0.6,0.2,0.6c-0.7,0.7,0.5,1,0.2,1.7c0.7-0.1,0.9,0.4,1.1,1.2c0.5,0.2,0.2-0.5,0.5-0.2c0.2,0.5,0.6,0.9,1,1.3
		c0.4,0.4,0.7,0.8,0.4,1.4c1-0.1,2.5,2.1,2.5,3c0.8-0.6,2.2,1.2,1.9,1.5c0.8,0.2,1.7,0.5,2.6,0.8c-0.2,0.1-0.5,0.1-0.8,0.2
		c0.6,0.7,1.3,1.2,2,1.8c0.7,0.5,1.4,1,2.1,1.5c0.4,0.3,0.7,0.5,1.1,0.8c0.4,0.3,0.7,0.6,1.1,0.9c0.4,0.3,0.8,0.6,1.2,1
		c0.4,0.4,0.8,0.7,1.2,1.1c0.2-0.2,0.4-0.3,0.6-0.2c0.2,0.9,1.3,1.4,2.2,1.8c0.9,0.4,1.6,0.8,1.1,1.6c0.9,0.5,0.4-0.5,1.1-0.3
		c0.5,0.3,0.9,0.6,1.3,0.8c0.4,0.2,0.9,0.4,1.2,0.6c0.8,0.4,1.4,0.8,1.7,1.4c1.3,0.2,1.8,0.6,3.3,0.9c-0.1,0.4-0.6-0.1-0.8,0.2
		c0.4,0.2,0.8,0.3,1.2,0.5c0.4,0.1,0.7,0.2,1,0.4c0.6,0.3,1.1,0.6,1.6,1.3C62.3,166.6,62.6,166.6,62.9,166.6z M112,34.7
		c0.2,0,0.4,0,0.7,0.1c0,0,0,0,0.1,0c0,0,0,0,0.1,0C112.4,34.8,112.2,34.7,112,34.7z M112.1,34.7c0.1,0,0.2,0,0.3,0l0,0
		C112.4,34.7,112.2,34.7,112.1,34.7z M111.7,34.6C111.7,34.6,111.7,34.6,111.7,34.6c0-0.1,0.1-0.1,0.1-0.1
		C111.8,34.5,111.7,34.5,111.7,34.6z M109.5,34c0.1,0,0.2,0,0.2-0.1c0,0,0,0,0,0C109.7,33.9,109.6,34,109.5,34z M105.2,32.1
		c-0.7-0.4-1.3-0.6-2.2-0.6c0,0,0,0,0,0c0,0,0,0.1,0,0.1C103.9,31.6,104.5,31.7,105.2,32.1c0,0,0.1,0.1,0.1,0.1
		C105.2,32.2,105.2,32.1,105.2,32.1C105.2,32.1,105.2,32.1,105.2,32.1z M72.7,32.2c0-0.2,0-0.3-0.1-0.5c0,0,0,0,0,0
		C72.7,31.8,72.7,32,72.7,32.2z M113.4,28.8c0,0,0.1,0,0.2,0l0,0C113.5,28.8,113.4,28.8,113.4,28.8z M113.8,29.5
		C113.8,29.5,113.8,29.5,113.8,29.5c0.3,0.1,0.4,0.1,0.4,0C114.2,29.6,114.1,29.6,113.8,29.5z M110.8,28.3
		C110.8,28.4,110.8,28.4,110.8,28.3C110.8,28.4,110.7,28.4,110.8,28.3C110.7,28.3,110.7,28.3,110.8,28.3z M113.3,29.1
		c-0.3,0-0.5-0.1-0.7-0.2c-0.1,0-0.2-0.1-0.3-0.1c-0.1,0-0.2-0.1-0.3-0.2c0.1,0,0.2,0.1,0.3,0.1c0.1,0,0.2,0.1,0.3,0.2
		C112.8,29.1,113,29.2,113.3,29.1c0.1,0.1,0.7,0.3,0.6,0.3C113.9,29.4,113.4,29.3,113.3,29.1z M112.4,28.3c0,0,0.2,0,0.3,0
		C112.6,28.3,112.4,28.3,112.4,28.3z M110.8,28.2c0,0-0.1,0-0.1,0.1c0,0,0,0,0,0c-0.1-0.1-0.1-0.2,0-0.2c0,0,0,0,0,0
		C110.7,28,110.8,28.2,110.8,28.2z M107.7,27.6C107.7,27.6,107.7,27.6,107.7,27.6c0,0,0.1-0.1,0.1-0.1
		C107.8,27.5,107.7,27.5,107.7,27.6z M93.9,27.6L93.9,27.6C93.9,27.6,93.9,27.6,93.9,27.6L93.9,27.6C93.9,27.6,93.9,27.6,93.9,27.6z
		 M92.5,28.1c-0.1,0-0.2,0-0.4,0c-0.2,0-0.2-0.1-0.2-0.1c0,0,0,0.1,0.2,0.1C92.3,28.1,92.4,28.2,92.5,28.1c0.3-0.1,0.3-0.1,0.3-0.2
		C92.8,28,92.8,28.1,92.5,28.1z M86.7,28.8c0.3,0,0.8-0.1,0.8,0C87.5,28.7,87,28.8,86.7,28.8C86.7,28.8,86.7,28.8,86.7,28.8z
		 M112.9,28.7C112.9,28.7,112.9,28.7,112.9,28.7c0.3,0,0.5,0.3,0.8,0.2c0,0,0,0,0,0C113.5,29,113.3,28.7,112.9,28.7z M94,27.8
		C94,27.8,94,27.8,94,27.8c-0.3,0.1-0.5,0-0.8,0c-0.3,0.1-0.3,0.1-0.3,0.2c0,0,0.1-0.1,0.3-0.2C93.5,27.8,93.7,27.8,94,27.8z
		 M92.2,27.9C92.2,27.9,92.2,27.9,92.2,27.9c-0.3-0.1-0.7,0-1-0.1c-0.1,0-0.1,0-0.1,0.1c0,0,0,0,0.1-0.1
		C91.5,27.9,91.9,27.7,92.2,27.9z M91.1,27.9C91.1,27.9,91.2,27.9,91.1,27.9C90.5,28,89.8,27.7,89,28C89.7,27.7,90.4,28,91.1,27.9z
		 M106.3,30.7C106.3,30.7,106.3,30.7,106.3,30.7c0,0.6-0.6,0.1-1,0.2c0,0,0,0,0,0C105.7,30.9,106.3,31.4,106.3,30.7z M87.3,27.9
		c0-0.1,0-0.1,0-0.2c0,0,0,0,0,0C87.3,27.8,87.3,27.8,87.3,27.9z M103.5,31c0.3-0.1,1-0.3,1,0.2C104.5,30.8,103.8,30.9,103.5,31z
		 M104,31.6c-0.5,0-1-0.3-1.1,0.1C103.1,31.1,103.6,31.5,104,31.6z M105.5,31.3c0,0.2-0.3,0.3-0.3,0.5
		C105.2,31.6,105.4,31.5,105.5,31.3z M74,32.2c-0.3-0.1-1,0-1,0.1c0,0,0,0,0,0C73,32.2,73.7,32.1,74,32.2C74.1,32.2,74,32.2,74,32.2
		z M72.6,32.8c0.2-0.1,0.5-0.1,0.7-0.2c0.4-0.1,0.7-0.3,1.1-0.4c0,0,0-0.1,0-0.1h0c0,0,0,0.1,0,0.1c0,0,0.1,0,0.1,0c0,0,0,0,0,0
		c0.3-0.1,0.6-0.1,0.8-0.2c0,0,0,0,0,0c0.2-0.1,0.5-0.1,0.7-0.2c1.4-0.3,2.8-0.6,4.2-0.8c2.8-0.4,5.7-0.6,8.7-0.6c0.5,0,1.1,0,1.6,0
		c0.3,0,0.6,0,0.9,0c3.5,0.1,6.9,0.6,10.2,1.3c0.1,0,0.3,0.1,0.4,0.1c0,0,0,0,0,0c0.3,0.1,0.7,0.2,1,0.2c0.3,0.1,0.6,0.2,0.9,0.2
		c0.1,0,0.2,0.1,0.3,0.1c1,0.3,2,0.6,2.9,0.9c0.1,0,0.2,0.1,0.3,0.1c0.5,0.2,0.9,0.3,1.4,0.5c0,0,0,0,0,0c0.4,0.1,0.7,0.3,1.1,0.4
		c0,0,0,0,0,0c0,0,0,0,0,0c0.3,0.1,0.8,0.3,1.1,0.4h0c0,0,0,0,0,0c0.1,0,0.1,0,0.2,0c-0.1,0-0.1,0-0.2,0c0.3,0.1,0.7,0.3,1,0.4
		c0,0,0,0,0,0c0.1,0.1,0.2,0.1,0.4,0.2c0.1,0,0.2,0.1,0.3,0.1c4.8,2.1,9.3,4.9,13.3,8.1c0.1,0.1,0.2,0.1,0.3,0.2
		c0.1,0,0.1,0.1,0.2,0.1c0,0,0.1,0.1,0.1,0.1c0,0,0,0,0.1,0c10,8.3,17.1,19.8,19.9,33c0.4,2,0.7,4,1,6c0.2,2.1,0.3,4.2,0.3,6.4
		c0,18.5-8.5,35.1-21.9,45.9c0,0-0.1,0.1-0.1,0.1c-0.4,0.3-0.7,0.6-1.1,0.8c-0.2,0.1-0.4,0.3-0.6,0.4c0,0-0.1,0.1-0.1,0.1
		c-0.2,0.2-0.4,0.3-0.6,0.4c-0.2,0.1-0.4,0.3-0.6,0.4c-0.2,0.2-0.4,0.3-0.7,0.5c-1.2,0.8-2.4,1.6-3.7,2.4c-0.6,0.3-1.2,0.7-1.8,1
		c-2.8,1.5-5.7,2.8-8.7,3.8c0,0-0.1,0-0.1,0c-1.5,0.5-3,1-4.5,1.3c0,0-0.1,0-0.1,0c-0.5,0.1-1,0.2-1.5,0.3c-4.2,0.9-8.5,1.4-13,1.4
		c-32.6,0-59-26.4-59-59c0-19.6,9.5-36.9,24.2-47.6c1.9-1.4,3.9-2.7,6-3.9C64.2,35.8,68.3,34.1,72.6,32.8z M21.9,116.5
		C21.9,116.4,21.9,116.4,21.9,116.5C21.9,116.5,21.9,116.5,21.9,116.5z M21.6,116.7c-0.1-0.3-0.2-0.6-0.3-0.8c0,0,0,0,0,0
		C21.4,116.1,21.5,116.4,21.6,116.7L21.6,116.7L21.6,116.7z M69.9,17.6L69.9,17.6c0.4-0.2,0.6-0.2,0.9-0.3c0.3-0.1,0.5-0.2,0.7-0.3
		c0.1-0.1,0.2-0.1,0.3-0.2c0,0,0,0,0.1-0.1c0,0,0,0-0.1,0.1c-0.1,0.1-0.2,0.2-0.3,0.2c-0.2,0.1-0.5,0.2-0.7,0.3
		C70.5,17.3,70.2,17.4,69.9,17.6L69.9,17.6L69.9,17.6L69.9,17.6L69.9,17.6L69.9,17.6L69.9,17.6L69.9,17.6z M68.8,18.6
		c0.1,0,0.2,0,0.3,0c0,0,0.1,0,0.1,0l0,0c0.4-0.1,0.6-0.2,0.8-0.3c0,0,0,0,0.1,0l0,0c0,0,0,0-0.1,0c0,0,0.1,0,0.1,0c0,0-0.1,0-0.1,0
		c-0.1,0-0.4,0.1-0.8,0.3l0,0c0,0-0.1,0-0.1,0C68.9,18.6,68.8,18.6,68.8,18.6c-0.4,0-0.6,0-0.8-0.1c0,0,0,0,0,0
		C68.1,18.7,68.4,18.7,68.8,18.6z M70.4,18.2c-0.1,0-0.2,0-0.3,0C70.2,18.3,70.3,18.3,70.4,18.2c0.3-0.1,0.5-0.2,0.5-0.3
		C70.9,18,70.7,18.2,70.4,18.2z M70.7,17.6c0.6-0.1,0.7-0.3,1.4-0.3c0-0.3,0.3-0.4,0.3-0.6c0,0.3-0.3,0.4-0.3,0.7
		C71.4,17.3,71.3,17.5,70.7,17.6C70.7,17.6,70.7,17.6,70.7,17.6z M70.6,16.2C70.6,16.2,70.6,16.2,70.6,16.2c-0.1,0-0.2-0.2-0.3-0.5
		h0C70.4,16,70.5,16.2,70.6,16.2z M70.2,15.4C70.2,15.4,70.3,15.4,70.2,15.4C70.3,15.4,70.2,15.4,70.2,15.4c-0.3,0-0.6,0-0.8,0
		l-0.2,0l0,0c0,0,0.1,0,0,0l0-0.1l0,0.1l0.2,0C69.7,15.4,69.9,15.4,70.2,15.4z M69.1,15.5C69.1,15.5,69.1,15.5,69.1,15.5
		C69.1,15.5,69.1,15.5,69.1,15.5z M71,15.1c0,0.1,0,0.1,0,0.2C71,15.3,71,15.2,71,15.1c-0.2-0.1-0.5-0.1-0.7-0.1
		c-0.1,0-0.1,0.1-0.1,0.2c0-0.1,0-0.2,0.1-0.2C70.6,15,70.8,15.1,71,15.1z M69.1,15.2c0,0.2,0,0.3,0,0.3c0,0,0,0,0,0c0,0,0,0,0,0
		C69.1,15.4,69.1,15.3,69.1,15.2L69.1,15.2z M14.3,120.2L14.3,120.2L14.3,120.2L14.3,120.2z"/>
	<path class="st0" d="M41.6,150.3c0.1-0.1,0.2-0.2,0.3-0.3C41.7,150.1,41.6,150.2,41.6,150.3z"/>
	<path class="st0" d="M68.1,12.3C68.1,12.3,68.1,12.3,68.1,12.3C68.1,12.3,68.1,12.3,68.1,12.3z"/>
	<path class="st0" d="M29.9,148.4c-0.7,0-2.3-1.8-2.2-2.3c0.7,0.4,1.1,0.3,1.2,1.2c0.5-0.2,0-0.5,0.2-0.8c-0.5-0.5-0.9-0.2-1.3-0.8
		c0.4-0.2,0.9,0.1,1.3,0c-0.4-0.6-0.9,0-1.3-0.5c0.1-0.4,0.8,0.1,0.5-0.4c-0.7,0-0.5-1-0.6-1.4c-0.7,0.7-0.6-0.9-1.3-0.8
		c0.6,0.4,0.3,1.2-0.2,0.9c0.2-0.7-0.4-0.8-0.6-1.7c0.1-0.1,0.1-0.3,0.2-0.4c0.6,0.8,1.2,0.1,0.3,0.1c-0.3-0.6-0.6-1.2-0.9-1.7
		c-0.3-0.6-0.5-1.1-0.7-1.5c0.1,0.2,0.1,0.5,0.1,0.7c-0.7-1,0-1.2-0.8-0.9c-0.5-0.7,0.2-1,0.2-1.6c-0.4,0.5-0.6-0.7-1-0.3
		c0.1,0.4,0.9,0.9,0.3,1.1c-0.3-0.6-0.5-0.9-0.7-1.2c-0.1-0.1-0.2-0.3-0.4-0.4c-0.1-0.2-0.3-0.3-0.5-0.5c0.3-0.1,0.2-0.4,0.5-0.5
		c0.1,0.3,0.2,0.7,0.4,0.9c0.2,0.2,0.5,0.4,0.8,0.3c-0.1-0.3-0.2-0.5-0.4-0.7c-0.1-0.2-0.3-0.3-0.4-0.5c-0.3-0.3-0.7-0.4-1.1-0.6
		c0.2-0.7-0.5-1.2-0.8-1c-0.1-0.7,0.4-0.5,0.9-0.5c-0.7-1-0.9-1.3-0.9-2.3c0.2,0.2,0.4,0,0.6,0.1c-0.8-0.5-0.6-0.7-0.6-1.5
		c-0.4-0.2-1-0.8-1.5-1.6c-0.5-0.8-0.8-1.7-0.8-2.5c-0.5-0.2-0.7-0.5-1-1c-0.3-0.5-0.5-1.1-0.9-1.9c-0.8,0,0.4,1.1,0,1.3
		c-0.6,0-1.6-1.2-1.1-2c0.4-0.2,0.2,0.9,0.7,0.4c-0.7-1-1-0.8-1.2-0.1c-0.2,0.6-0.1,1.7,0,2.2c-0.2-0.4-0.5-0.1-0.6-0.7
		c0-0.5-0.1-1-0.3-1.4c-0.1-0.2-0.2-0.4-0.4-0.6c0,0-0.1-0.1-0.1-0.1l0,0l0,0l0,0c0,0,0,0,0,0c0-0.1-0.2-0.4-0.3-1h0l0,0l0,0
		c-0.1-0.2-0.1-0.2,0,0l0,0c-0.1,0-0.2,0-0.3-0.1c0-0.2,0.2-0.3,0.5-0.3c-0.5-0.5-0.7-1-0.9-1.5l-0.1-0.2l0,0l0-0.1l-0.1-0.2
		c-0.1-0.3-0.3-0.6-0.4-0.9c-0.3-0.6-0.6-1.2-1-1.8c0.4,0.2,0.3-0.4,0.1-1c-0.2-0.6-0.6-1.2-0.8-0.7c0-0.1,0-0.2,0-0.3
		c0-0.1,0-0.2,0-0.3c0-0.2,0-0.4-0.1-0.6c-0.1-0.4-0.1-0.8-0.2-1.3c-0.1-0.4-0.2-0.9-0.3-1.3c-0.1-0.4-0.2-0.9-0.3-1.3
		c-0.2-0.9-0.5-1.8-0.8-2.6c-0.2-0.4-0.3-0.8-0.5-1.2c-0.2-0.4-0.3-0.7-0.5-1c0.1,0.3,0.1,0.6,0.2,0.9c0,0.3,0.1,0.7,0.1,1.1
		c0.1,0.7,0.2,1.4,0.7,1.8c-0.8-0.4,0.1,1,0.4,1c-0.2,0-0.3,0.1-0.5,0.1c0.2,1.1,0.5,2.3,0.8,3.5c0.1,0.3,0.1,0.6,0.2,0.9l0.1,0.4
		l0.1,0.5c0.2,0.7,0.4,1.4,0.6,2.2c0.2,0.7,0.4,1.4,0.7,2.2l0.2,0.5l0,0.1l0,0l0,0.1l0,0.1l0.2,0.4c0.1,0.3,0.2,0.5,0.3,0.8l0.2,0.4
		l0.1,0.2l0,0l0,0l0.4,1.1l0,0.1l0.1,0.2c1.7,4.4,3.6,8.5,5.4,12.1c0.5,0.2,0.9,1.1,1.4,1.9c0.5,0.8,1.1,1.6,1.9,1.6
		c0.3,1.2,0.4,1.6,1.4,2.4c-1.1,0.1,0.6,1.2-0.1,1.4c0.9,0.6,0.9,2,1.6,2c-0.6-1.2-1.5-1.6-1.1-2.4c0.6,1.1,1.7,2,1.6,3.1
		c0.2,0.2,0.4,0.4,0.7,0.6c0.3,0.2,0.5,0.4,0.8,0.7c0.5,0.5,0.9,1,0.9,1.5c0.7-0.4,0.6,1,1.4,1.1c0.3-0.1,0.1-0.5,0.4-0.3
		c0.8,0.4,0.9,1.7,1.7,1.9c-0.2-0.2-0.3-0.4,0-0.5c0.5,0.4,0.2,0.7,0.7,1.1C30.8,149.3,29.9,148.8,29.9,148.4z"/>
	<path class="st0" d="M109.4,160.7c0.3-0.1,0.8-0.1,1.3-0.1c0.1,0,0.2,0,0.3,0c0.1,0,0.2,0,0.3,0c0.1,0,0.2-0.1,0.1-0.2
		c-0.1,0-0.2,0-0.3,0c-0.1,0-0.2,0-0.3,0c-0.2,0-0.4,0-0.5-0.1C109.9,160.3,109.6,160.3,109.4,160.7z"/>
	<path class="st0" d="M84.5,166.5c0.5,0.2,1.5,0.2,1.7-0.1C85.6,166.4,84.9,166.2,84.5,166.5z"/>
	<path class="st0" d="M69.8,163.5c0.4,0.1,0.7-0.1,0.7,0.4c-0.1,0-0.2,0.1-0.1,0.2c0.1-0.2,0.3-0.3,0.5-0.4c0,0.1,0,0.2,0.1,0.2
		c0.2-0.5-0.2-0.6-0.7-0.8C70.5,163.8,69.3,163,69.8,163.5z"/>
	<path class="st0" d="M65.7,161.3c0.1,0.1,0.3,0.1,0.3,0.3c-0.5-0.2-0.8,0.3-1.5-0.2c-0.2,0.4,0.2,0.6,0.5,0.8
		c0.8-0.1,3.8,0.3,3.7,1.4c0.3-0.2,0.6-0.2,0.8-0.5c-0.3-0.2-0.6-0.5-0.9-0.7c-0.3-0.3-0.6-0.5-0.9-0.7
		C67,161.2,66.3,161,65.7,161.3z"/>
	<path class="st0" d="M61.1,160.3c0.1-0.2,0.4,0,0.5-0.1c-0.3-0.3-0.3-0.7-0.3-1.1c-0.4-0.3-0.5,0.1-0.8,0c0.1-0.3,0.1-0.5-0.1-0.6
		C60,159.5,61.2,159.4,61.1,160.3z"/>
	<path class="st0" d="M60,158.8c-0.3-0.1-0.3-0.3-0.1-0.6c-0.3-0.1-1.1,0-0.8,0.4c0.1-0.2,0.3,0,0.6,0.1
		C59.5,158.9,59.8,159.4,60,158.8z"/>
	<path class="st0" d="M52.4,155.3c0.3,0.2,0.5,0.3,0.8,0.5c0.2-0.4,0.8,0,0.4-0.6c-0.2,0.2-0.5-0.1-0.8-0.4
		c-0.3-0.3-0.5-0.8-0.6-0.9c0.2,0.1,0.4,0.3,0.6,0.2c-0.3-0.2-0.5-0.4-0.5-0.6c-0.3,0.3-0.6,0.2-0.9,0.4c-0.2-0.4-0.4-0.9-0.9-0.6
		c0.3,0.7,0.9,1.1,1.7,1.2c-0.2,0.2-0.5-0.2-0.6,0.2c0.6,0.7,0.7-0.4,1.1,0C52.5,154.9,52.9,155.2,52.4,155.3z"/>
	<path class="st0" d="M49.7,153c0.1-0.9-0.9-0.9-1.3-1.6c-0.3,0.5,0.9,1.1-0.2,0.9c0.2,0.2,0.4,0.3,0.6,0.5c0.2-0.4,0-0.6,0.6-0.4
		C49.1,152.5,49.3,152.8,49.7,153z"/>
	<path class="st0" d="M46,150.2c0.1-0.3,0.5-0.2,0.3-0.4c-0.8,0.1,0,1,0.2,1.5c0.2-0.2,0.4,0,0.6-0.2
		C47.1,150.7,46.4,150.7,46,150.2z"/>
	<path class="st0" d="M43.2,145.2c-0.2,0.2-0.6,0-1-0.2c-0.4-0.3-0.6-0.6-0.4-0.9c0.2,0.1,0.3,0.4,0.5,0.3c-0.1-0.1-0.3-0.3-0.4-0.4
		c-0.4,0.1-0.3,0.4-0.9,0.3c0.9,0.5,1.1,0.9,2.1,1.8C43.5,145.8,43.1,145.5,43.2,145.2z"/>
	<path class="st0" d="M37.6,146.7c-0.4-0.7-0.9-1.5-1.6-1.7C36.9,145.6,37,146.3,37.6,146.7z"/>
	<path class="st0" d="M31.5,150.9c-0.7-0.4,0.1-0.6-0.5-1c0.3,1.2-1,0.1-1,0.9C30.5,150.5,31,151.1,31.5,150.9z"/>
	<path class="st0" d="M36.1,142.8c0.1-0.1,0.2-0.2,0.3-0.2c0.2,0.5,0.8,1.1,0.8,1.6C37.8,143.8,36,141.8,36.1,142.8z"/>
	<path class="st0" d="M29.6,144.7c0.9,0.3,0,1,0.3,1.4c0.2-0.1,0.4,0,0.7-0.3c-0.4-0.4-0.2-0.7-0.3-1.1
		C30.1,144.9,29.4,144.1,29.6,144.7z"/>
	<path class="st0" d="M35.2,141.3c-0.4-0.5-1.1-1-0.5-1.3c0.3,0.4,0.6,0.2,0.6,0.7c0.4-0.5,0.3-1.1,1-0.6c-0.1-0.4-0.2-0.8-0.3-1.2
		c-0.7,0.2,0.3,0.6,0,0.8c-0.5-0.2-0.5,0-0.8,0.4c0-0.3-0.1-0.5-0.5-0.8c0.1-0.1,0.3-0.2,0.4-0.3c-0.8-0.7-0.8-0.5-1.2-1.5
		c-0.5,0.3-0.5,0.6-0.1,1c0.2,0.2,0.3-0.1,0.5,0.1c0.3,0.6-0.5,0.9,0.3,1.2c-0.2,0.2-0.3,0.2-0.5,0.2
		C34.5,140.3,34.5,141.5,35.2,141.3z"/>
	<path class="st0" d="M28.6,144.2c0.5,0.4,0.5,0.5,0.7,1.1c0.4-0.4-0.5-1.7-0.5-1.7C28.9,143.8,28.8,144,28.6,144.2z"/>
	<path class="st0" d="M33.5,136.9c0-0.4-0.1-0.6-0.7-0.4c0.2,0.3,0.4,0.2,0.6,0.2c-0.2,0.3-0.7,1.2,0.1,1.3
		c-0.1-0.1-0.1-0.3-0.1-0.5C33.4,137.3,33.5,137.1,33.5,136.9z"/>
	<path class="st0" d="M10,73.2c-0.4,0.3-1.2,0.4-1,0.5C9.2,74.3,10,73.8,10,73.2z"/>
	<path class="st0" d="M13.4,61.5c0.3-0.8,0.9-1.3,0.5-1.9c-0.3,0.3-0.9,1.2-1.1,0.5c0.1,0.3-0.2,0.8-0.4,1.2
		c-0.3,0.4-0.5,0.7-0.2,0.6C12.5,61.6,13.3,60.5,13.4,61.5z"/>
	<path class="st0" d="M24.9,36.7c0.2-0.3,0.5-0.3,0.4-0.5c-0.7,0.4,0.3-0.8,0.1-1c-0.5,0.3-1.3,1.5-0.9,1.5
		C25.1,36,24.9,36.3,24.9,36.7z"/>
	<path class="st0" d="M45.4,19.1c-0.3,0-0.8,0.3-1,0.1c0.4-0.3,1.1-0.5,1.5-0.7c0.5-0.2,0.7-0.3,0.3-0.6c-0.1,0.5-1.2,0.6-1.6,0.5
		c0,0.5-1.4,2.1-0.9,1.7C44.4,19.3,45.3,19.7,45.4,19.1z"/>
	<path class="st0" d="M50.4,17.7c-0.3-0.7,0.1-1.8-0.9-1.9c0.2,0.3-0.1,0.4-0.1,0.7c0.8,0,1.1,1-0.1,1.5
		C49.5,18.6,50,17.8,50.4,17.7z"/>
	<path class="st0" d="M52.6,14.2l0.8-0.4c0.1,0.2,0.3,0.5,0.4,0.7c0.4-0.8,1.6-1.2,0.9-1.6c0.4,0.1,0.9-0.3,0.9-0.6
		c-0.8,0.3-1.2,0.6-1.6,0.9c-0.2,0.1-0.4,0.3-0.6,0.4c-0.2,0.1-0.5,0.2-0.8,0.3c0.1,0.2,0.1,0.4-0.2,0.5c0.8,0.1,0.4,1,1.2,0.7
		C53.7,14.8,52.7,14.8,52.6,14.2z"/>
	<path class="st0" d="M58.9,3.6c-0.5-0.1-1.4,0.6-1.4-0.3c-0.8,0.4-0.5,0.6,0,0.7C58.1,4.1,58.8,4,58.9,3.6z"/>
	<path class="st0" d="M69.5,9.5c-0.1,0-0.3-0.1-0.4-0.2C68.1,10,69.3,9.7,69.5,9.5z"/>
	<path class="st0" d="M72.3,7.1c-0.3,0.3-1.2,0.6-1.6,0.4c-0.2,0.5,0.3,0.5,0,0.7c-0.2-0.2-0.6-0.3-1-0.2c-0.1,0-0.2,0-0.3,0.1
		l-0.2,0c0,0,0,0-0.1,0c-0.1,0-0.2,0.1-0.2,0.1c0.1,0.2,0.3,0.3,0.4,0.4c0.1,0.1,0.1,0.1,0.1,0.2c0,0.1,0,0.2,0,0.3l0.1,0l0,0l0.1,0
		c0.1,0,0.2,0,0.2-0.1c0.2,0,0.3-0.1,0.4-0.1c0.3-0.1,0.5-0.2,0.8-0.3c0.5-0.2,0.9-0.4,1.3-0.7C71.3,7.7,72.8,7.2,72.3,7.1z"/>
	<path class="st0" d="M72.4,9.4c0-0.1,0.1-0.1,0.1-0.2C72.5,9.3,72.4,9.3,72.4,9.4z"/>
	<path class="st0" d="M102.6,22.7c1.1,0.1,1.5-0.4,2.5-0.7c-0.7,0-1.6-0.3-0.8-0.6c-0.4-0.2-1-0.4-1.2,0c-0.6-0.4-0.9-1.6-1.7-1.3
		c0-0.3,0.1-0.5,0.2-0.7c-0.6,0.1-0.8,0.5-1.3,0.8c-0.3-0.1-0.1-0.7-0.7-0.6c-0.2,0.5-1.3,0.6-2.3,0.5c-0.5-0.1-1-0.2-1.3-0.3
		c-0.3-0.2-0.5-0.4-0.3-0.6c-0.8,0.1-1.7,0-2.6,0c-0.8,0-1.6,0.1-2.1,0.7c0.2,0.1,0.4,0.2,0.6,0.3c-0.2,0.3-1.1,0.1-1,0.6
		c0.6-0.1,1.3-0.2,2-0.2c0.7,0,1.4,0,2.1,0c0.4,0,0.7,0,1,0c0.3,0,0.7,0,1,0c0.6,0,1.3,0.1,1.8,0.1c-0.1,0.2-0.2,0.4-0.4,0.5
		c-0.5,0-0.9-0.7-1.1,0c0.5,0,0.8,0.2,1.2,0.4c0.2-0.5,0.7-0.6,1.2-0.6c0.5,0,1,0.1,1.3-0.1c-0.2,0.2-0.3,0.6-0.1,0.9
		c0.7-0.1,1.7,0.1,2.2,0.7C103,22.4,102.7,22.4,102.6,22.7z"/>
	<path class="st0" d="M95.7,12.8c-0.3,0-0.5,0.1-0.6,0.4c1.2-0.3,1.8-0.1,2.9-0.3c-1.3,0,0.1-0.5,0.4-0.7c-0.5,0.2-1,0.3-1.4,0.4
		c-0.5,0.1-1,0-1.5-0.3C95.5,12.5,95.6,12.6,95.7,12.8z"/>
	<path class="st0" d="M100.8,12.6c0.6,0.1-0.3,0.2-0.2,0.5c0.3,0,0.6,0.1,0.8,0.2C101.6,12.8,100.5,12.1,100.8,12.6z"/>
	<path class="st0" d="M102.1,8.7c0.5,0.1,1.2,0.1,2,0.3c0,0.3-0.1,0.6,0.4,0.6c0.3-1.2-1.9-0.6-2.2-1.4c0,0.1,0,0.2,0,0.3
		C102.2,8.6,102.1,8.6,102.1,8.7z"/>
	<path class="st0" d="M115.9,16.7c-0.4,0-0.7,0.1-1.1,0.2c-0.4,0.1-0.8,0.1-1.3-0.1c-0.2,0.4,0.3,0.4,0,0.9
		c-0.5-0.2-0.9-0.2-1.2,0.1c1.1,0.3,1.4-0.5,2.4-0.3c-0.3,0.6,0.2,0.9,0.6,0.7c0.4-0.5-0.6-0.3-0.4-0.6c0.3,0.1,0.3-0.4,0.6-0.2
		c-0.6,0.8,1.5,0.4,1.8,1.2c-0.1,0.3-0.3,0.5-0.6,0.6c-1.3-0.6-0.8,0.1-1.4,0.3c-0.6-0.1-0.4-0.6-0.8-0.7c-0.3,0.8-1.3,0.6-2,0.2
		c-0.8,0.1-1.6,0.5-2.4,0.8c-0.8,0.4-1.5,0.7-2.2,0.7c0.6,0.2,1.3,0.2,1.9,0.3c0.6,0.1,1.1,0.3,1.3,1c-0.6,0.3-0.9-0.3-1.6-0.3
		c0,0.5-0.4,0.3-0.5,0.6c0.6-0.1,3.1,0.4,2.1,1.3c0.7,0,0.8,0.5,1.2,0.3c0.4-0.6-0.9-0.2-0.7-0.7c1.3-0.2,1.6-0.9,2.6-1.1
		c-0.6-0.3-1-0.2-1.4-0.1c-0.4,0.1-0.7,0.3-1,0.1c1.4-0.8,3.3-0.3,5.2,0.5c0.9,0.4,1.9,0.9,2.8,1.4c0.9,0.4,1.7,0.8,2.5,1
		c-0.3-0.1,0.9-0.2,1.2,0.3c-0.1-1.2-1.9-2.2-2.3-3.6c-0.7-0.3-1.2-0.8-1.3-1.3c-0.3-0.1-0.6-0.1-0.8-0.1c0-0.4-0.2-0.7-0.6-1
		c-0.2-0.2-0.4-0.3-0.6-0.4c-0.2-0.1-0.5-0.3-0.7-0.4C116.4,17.6,115.5,17.2,115.9,16.7z"/>
	<path class="st0" d="M118,26.3c0.5,0.4,1,0.6,1.3-0.1c-0.5-0.6-1.6-0.9-2.7-1.2C117,25.2,117.5,25.9,118,26.3z"/>
	<path class="st0" d="M36,143.7c-0.5-0.3-0.9-1.6-1.4-1.1c0.4,0.6,1.2,1.2,0.5,1.6c0.3,0.4,0.6,0.1,0.9,0.2
		C35.6,144.1,36,143.9,36,143.7z"/>
	<path class="st0" d="M110.2,34.3C110.2,34.3,110.2,34.3,110.2,34.3C110.2,34.3,110.2,34.3,110.2,34.3
		C110.2,34.3,110.2,34.3,110.2,34.3z"/>
</g>
</svg>
