<?xml version="1.0" encoding="utf-8"?>
<!-- Generator: Adobe Illustrator 22.1.0, SVG Export Plug-In . SVG Version: 6.00 Build 0)  -->
<svg version="1.1" id="Camada_1" xmlns="http://www.w3.org/2000/svg" xmlns:xlink="http://www.w3.org/1999/xlink" x="0px" y="0px"
	 viewBox="0 0 170 170" style="enable-background:new 0 0 170 170;" xml:space="preserve">
<style type="text/css">
	.st0{fill:url(#SVGID_1_);}
	.st1{fill:url(#SVGID_2_);}
	.st2{fill:url(#SVGID_3_);}
	.st3{fill:url(#SVGID_4_);}
	.st4{fill:url(#SVGID_5_);}
	.st5{fill:url(#SVGID_6_);}
	.st6{fill:url(#SVGID_7_);}
	.st7{fill:url(#SVGID_8_);}
	.st8{fill:url(#SVGID_9_);}
	.st9{fill:url(#SVGID_10_);}
	.st10{fill:url(#SVGID_11_);}
	.st11{fill:url(#SVGID_12_);}
	.st12{fill:url(#SVGID_13_);}
	.st13{fill:url(#SVGID_14_);}
	.st14{fill:url(#SVGID_15_);}
	.st15{fill:url(#SVGID_16_);}
	.st16{fill:url(#SVGID_17_);}
	.st17{fill:url(#SVGID_18_);}
	.st18{fill:url(#SVGID_19_);}
	.st19{fill:url(#SVGID_20_);}
	.st20{fill:url(#SVGID_21_);}
	.st21{fill:url(#SVGID_22_);}
	.st22{fill:url(#SVGID_23_);}
	.st23{fill:url(#SVGID_24_);}
	.st24{fill:url(#SVGID_25_);}
	.st25{fill:url(#SVGID_26_);}
	.st26{fill:url(#SVGID_27_);}
	.st27{fill:url(#SVGID_28_);}
	.st28{fill:url(#SVGID_29_);}
	.st29{fill:url(#SVGID_30_);}
	.st30{fill:url(#SVGID_31_);}
	.st31{fill:url(#SVGID_32_);}
	.st32{fill:url(#SVGID_33_);}
	.st33{fill:url(#SVGID_34_);}
	.st34{fill:url(#SVGID_35_);}
	.st35{fill:url(#SVGID_36_);}
	.st36{fill:url(#SVGID_37_);}
	.st37{fill:url(#SVGID_38_);}
	.st38{fill:url(#SVGID_39_);}
	.st39{fill:url(#SVGID_40_);}
	.st40{fill:url(#SVGID_41_);}
	.st41{fill:url(#SVGID_42_);}
	.st42{fill:url(#SVGID_43_);}
	.st43{fill:url(#SVGID_44_);}
	.st44{fill:url(#SVGID_45_);}
	.st45{fill:url(#SVGID_46_);}
	.st46{fill:url(#SVGID_47_);}
	.st47{fill:url(#SVGID_48_);}
	.st48{fill:url(#SVGID_49_);}
	.st49{fill:url(#SVGID_50_);}
	.st50{fill:url(#SVGID_51_);}
	.st51{fill:url(#SVGID_52_);}
	.st52{fill:url(#SVGID_53_);}
	.st53{fill:url(#SVGID_54_);}
	.st54{fill:url(#SVGID_55_);}
	.st55{fill:url(#SVGID_56_);}
	.st56{fill:url(#SVGID_57_);}
	.st57{fill:url(#SVGID_58_);}
	.st58{fill:url(#SVGID_59_);}
	.st59{fill:url(#SVGID_60_);}
	.st60{fill:url(#SVGID_61_);}
	.st61{fill:url(#SVGID_62_);}
	.st62{fill:url(#SVGID_63_);}
	.st63{fill:url(#SVGID_64_);}
	.st64{fill:url(#SVGID_65_);}
	.st65{fill:url(#SVGID_66_);}
	.st66{fill:url(#SVGID_67_);}
	.st67{fill:url(#SVGID_68_);}
	.st68{fill:url(#SVGID_69_);}
	.st69{fill:url(#SVGID_70_);}
	.st70{fill:url(#SVGID_71_);}
	.st71{fill:url(#SVGID_72_);}
	.st72{fill:url(#SVGID_73_);}
	.st73{fill:url(#SVGID_74_);}
	.st74{fill:url(#SVGID_75_);}
	.st75{fill:url(#SVGID_76_);}
	.st76{fill:url(#SVGID_77_);}
	.st77{fill:url(#SVGID_78_);}
	.st78{fill:url(#SVGID_79_);}
	.st79{fill:url(#SVGID_80_);}
	.st80{fill:url(#SVGID_81_);}
	.st81{fill:url(#SVGID_82_);}
	.st82{fill:url(#SVGID_83_);}
	.st83{fill:url(#SVGID_84_);}
	.st84{fill:url(#SVGID_85_);}
	.st85{fill:url(#SVGID_86_);}
	.st86{fill:url(#SVGID_87_);}
	.st87{fill:url(#SVGID_88_);}
	.st88{fill:url(#SVGID_89_);}
	.st89{fill:url(#SVGID_90_);}
</style>
<g>
	<g>
		<linearGradient id="SVGID_1_" gradientUnits="userSpaceOnUse" x1="57.3709" y1="86.5703" x2="122.1721" y2="86.5703">
			<stop  offset="0" style="stop-color:#E9C063"/>
			<stop  offset="0.3273" style="stop-color:#C23C47"/>
			<stop  offset="0.6485" style="stop-color:#924F93"/>
			<stop  offset="1" style="stop-color:#5B5E9F"/>
		</linearGradient>
		<path class="st0" d="M108.3,119.2h-37c-7.7,0-13.9-6.1-13.9-13.6V67.5c0-7.5,6.2-13.6,13.9-13.6h37c7.7,0,13.9,6.1,13.9,13.6v38.1
			C122.2,113.1,115.9,119.2,108.3,119.2 M71.3,59.5c-4.6,0-8.3,3.6-8.3,8v38.1c0,4.4,3.7,8,8.3,8h37c4.6,0,8.3-3.6,8.3-8V67.5
			c0-4.4-3.7-8-8.3-8H71.3z"/>
		<linearGradient id="SVGID_2_" gradientUnits="userSpaceOnUse" x1="72.8281" y1="86.5711" x2="106.7117" y2="86.5711">
			<stop  offset="0" style="stop-color:#E9C063"/>
			<stop  offset="0.3273" style="stop-color:#C23C47"/>
			<stop  offset="0.6485" style="stop-color:#924F93"/>
			<stop  offset="1" style="stop-color:#5B5E9F"/>
		</linearGradient>
		<path class="st1" d="M89.8,103.5c-9.3,0-16.9-7.6-16.9-16.9c0-9.3,7.6-16.9,16.9-16.9c9.3,0,16.9,7.6,16.9,16.9
			C106.7,95.9,99.1,103.5,89.8,103.5 M89.8,75.2c-6.3,0-11.3,5.1-11.3,11.3c0,6.3,5.1,11.3,11.3,11.3c6.3,0,11.3-5.1,11.3-11.3
			C101.1,80.3,96,75.2,89.8,75.2z"/>
		<linearGradient id="SVGID_3_" gradientUnits="userSpaceOnUse" x1="103.9903" y1="68.7773" x2="111.9158" y2="68.7773">
			<stop  offset="0" style="stop-color:#E9C063"/>
			<stop  offset="0.3273" style="stop-color:#C23C47"/>
			<stop  offset="0.6485" style="stop-color:#924F93"/>
			<stop  offset="1" style="stop-color:#5B5E9F"/>
		</linearGradient>
		<path class="st2" d="M111.9,68.8c0,2.2-1.8,4-4,4c-2.2,0-4-1.8-4-4c0-2.2,1.8-4,4-4C110.1,64.8,111.9,66.6,111.9,68.8"/>
	</g>
	<g>
		<linearGradient id="SVGID_4_" gradientUnits="userSpaceOnUse" x1="95.0406" y1="164.7046" x2="95.9383" y2="164.7046">
			<stop  offset="0" style="stop-color:#E9C063"/>
			<stop  offset="0.3273" style="stop-color:#C23C47"/>
			<stop  offset="0.6485" style="stop-color:#924F93"/>
			<stop  offset="1" style="stop-color:#5B5E9F"/>
		</linearGradient>
		<path class="st3" d="M95.9,164.4c-0.3,0-0.6,0-0.9,0C95,165.2,96,165,95.9,164.4z"/>
		<linearGradient id="SVGID_5_" gradientUnits="userSpaceOnUse" x1="91.2716" y1="164.7798" x2="92.5439" y2="164.7798">
			<stop  offset="0" style="stop-color:#E9C063"/>
			<stop  offset="0.3273" style="stop-color:#C23C47"/>
			<stop  offset="0.6485" style="stop-color:#924F93"/>
			<stop  offset="1" style="stop-color:#5B5E9F"/>
		</linearGradient>
		<path class="st4" d="M91.3,165c0.6,0,1-0.1,1.3-0.3C92.1,164.8,91.2,164.3,91.3,165z"/>
		<linearGradient id="SVGID_6_" gradientUnits="userSpaceOnUse" x1="89.1661" y1="166.7723" x2="90.3214" y2="166.7723">
			<stop  offset="0" style="stop-color:#E9C063"/>
			<stop  offset="0.3273" style="stop-color:#C23C47"/>
			<stop  offset="0.6485" style="stop-color:#924F93"/>
			<stop  offset="1" style="stop-color:#5B5E9F"/>
		</linearGradient>
		<path class="st5" d="M89.2,166.6c-0.2,0.3,0.3,0.4,0.6,0.4c0.4,0,0.7-0.2,0.3-0.4C89.9,167.1,89.7,166.4,89.2,166.6z"/>
		<linearGradient id="SVGID_7_" gradientUnits="userSpaceOnUse" x1="87.3611" y1="166.6644" x2="88.8438" y2="166.6644">
			<stop  offset="0" style="stop-color:#E9C063"/>
			<stop  offset="0.3273" style="stop-color:#C23C47"/>
			<stop  offset="0.6485" style="stop-color:#924F93"/>
			<stop  offset="1" style="stop-color:#5B5E9F"/>
		</linearGradient>
		<path class="st6" d="M88.8,166.6c-0.8-0.1-0.9,0.2-1.5-0.1C87.2,167,88.9,167,88.8,166.6z"/>
		<linearGradient id="SVGID_8_" gradientUnits="userSpaceOnUse" x1="79.2634" y1="166.0943" x2="80.5109" y2="166.0943">
			<stop  offset="0" style="stop-color:#E9C063"/>
			<stop  offset="0.3273" style="stop-color:#C23C47"/>
			<stop  offset="0.6485" style="stop-color:#924F93"/>
			<stop  offset="1" style="stop-color:#5B5E9F"/>
		</linearGradient>
		<path class="st7" d="M80.1,166.5c0-0.2,0.3-0.1,0.4-0.3c-0.2-0.2-0.9-0.8-1.2-0.4C79.7,166,79.8,166,80.1,166.5z"/>
		<linearGradient id="SVGID_9_" gradientUnits="userSpaceOnUse" x1="71.6517" y1="160.9658" x2="73.2491" y2="160.9658">
			<stop  offset="0" style="stop-color:#E9C063"/>
			<stop  offset="0.3273" style="stop-color:#C23C47"/>
			<stop  offset="0.6485" style="stop-color:#924F93"/>
			<stop  offset="1" style="stop-color:#5B5E9F"/>
		</linearGradient>
		<path class="st8" d="M72.4,161c-0.3-0.1-0.5-0.3-0.7-0.5c-0.1,0.5,1.2,1.1,1.6,0.9c-0.2-0.1-0.3-0.1-0.5-0.2
			C72.6,161.1,72.5,161.1,72.4,161z"/>
		<linearGradient id="SVGID_10_" gradientUnits="userSpaceOnUse" x1="63.722" y1="166.691" x2="64.9477" y2="166.691">
			<stop  offset="0" style="stop-color:#E9C063"/>
			<stop  offset="0.3273" style="stop-color:#C23C47"/>
			<stop  offset="0.6485" style="stop-color:#924F93"/>
			<stop  offset="1" style="stop-color:#5B5E9F"/>
		</linearGradient>
		<path class="st9" d="M63.7,166.6c0.2,0.4,1,0.4,1.2,0.1C64.5,166.5,64,166.4,63.7,166.6z"/>
		<linearGradient id="SVGID_11_" gradientUnits="userSpaceOnUse" x1="65.0161" y1="158.9324" x2="66.8577" y2="158.9324">
			<stop  offset="0" style="stop-color:#E9C063"/>
			<stop  offset="0.3273" style="stop-color:#C23C47"/>
			<stop  offset="0.6485" style="stop-color:#924F93"/>
			<stop  offset="1" style="stop-color:#5B5E9F"/>
		</linearGradient>
		<path class="st10" d="M66.7,159.5c0.1-0.3,0.2-0.5,0.1-0.7c-0.4-0.1-0.8-0.1-1.4-0.4c-0.1,0.3-0.2,0.5-0.4,0.6
			C65.6,158.9,66.5,158.6,66.7,159.5z"/>
		<linearGradient id="SVGID_12_" gradientUnits="userSpaceOnUse" x1="61.7308" y1="160.5972" x2="65.6327" y2="160.5972">
			<stop  offset="0" style="stop-color:#E9C063"/>
			<stop  offset="0.3273" style="stop-color:#C23C47"/>
			<stop  offset="0.6485" style="stop-color:#924F93"/>
			<stop  offset="1" style="stop-color:#5B5E9F"/>
		</linearGradient>
		<path class="st11" d="M61.8,159.9c0.5,0.2,1.2,0.4,1,0.8c-0.3,0-0.9-0.6-1.1-0.3c0.4,0.6,1.1,0.7,1.8,0.7c0.7,0,1.5-0.1,2.1,0.1
			C64.9,160.5,62.7,159.9,61.8,159.9z"/>
		<linearGradient id="SVGID_13_" gradientUnits="userSpaceOnUse" x1="57.4961" y1="158.6882" x2="59.2151" y2="158.6882">
			<stop  offset="0" style="stop-color:#E9C063"/>
			<stop  offset="0.3273" style="stop-color:#C23C47"/>
			<stop  offset="0.6485" style="stop-color:#924F93"/>
			<stop  offset="1" style="stop-color:#5B5E9F"/>
		</linearGradient>
		<path class="st12" d="M59,159.3l0.2-0.5c-0.6-0.2-0.6-0.5-0.8-0.8c-0.1,0.7-0.7-0.3-0.9,0.1c0.4,0.2,0.7,0.3,0.9,0.5
			C58.7,158.9,58.9,159.1,59,159.3z"/>
		<linearGradient id="SVGID_14_" gradientUnits="userSpaceOnUse" x1="56.0419" y1="157.5053" x2="57.9027" y2="157.5053">
			<stop  offset="0" style="stop-color:#E9C063"/>
			<stop  offset="0.3273" style="stop-color:#C23C47"/>
			<stop  offset="0.6485" style="stop-color:#924F93"/>
			<stop  offset="1" style="stop-color:#5B5E9F"/>
		</linearGradient>
		<path class="st13" d="M57.3,158.1c0.1-0.6,0.1-0.4,0.6-0.7c-0.7-0.4-1.2-0.3-1.9-0.5c0.7,0.2-0.2,0.7,0.3,1
			C56.6,157.6,57.2,157.6,57.3,158.1z"/>
		<linearGradient id="SVGID_15_" gradientUnits="userSpaceOnUse" x1="54.6424" y1="159.9643" x2="55.6873" y2="159.9643">
			<stop  offset="0" style="stop-color:#E9C063"/>
			<stop  offset="0.3273" style="stop-color:#C23C47"/>
			<stop  offset="0.6485" style="stop-color:#924F93"/>
			<stop  offset="1" style="stop-color:#5B5E9F"/>
		</linearGradient>
		<path class="st14" d="M55.7,160.3c-0.4-0.2-0.8-0.4-0.9-0.7C54.3,160.1,55.4,160.5,55.7,160.3z"/>
		<linearGradient id="SVGID_16_" gradientUnits="userSpaceOnUse" x1="54.6084" y1="156.347" x2="56.0515" y2="156.347">
			<stop  offset="0" style="stop-color:#E9C063"/>
			<stop  offset="0.3273" style="stop-color:#C23C47"/>
			<stop  offset="0.6485" style="stop-color:#924F93"/>
			<stop  offset="1" style="stop-color:#5B5E9F"/>
		</linearGradient>
		<path class="st15" d="M54.6,156.1c0.4,0.6,0.9,0.6,1.4,0.5C55.5,156.2,55,156,54.6,156.1z"/>
		<linearGradient id="SVGID_17_" gradientUnits="userSpaceOnUse" x1="55.0512" y1="155.6284" x2="56.0754" y2="155.6284">
			<stop  offset="0" style="stop-color:#E9C063"/>
			<stop  offset="0.3273" style="stop-color:#C23C47"/>
			<stop  offset="0.6485" style="stop-color:#924F93"/>
			<stop  offset="1" style="stop-color:#5B5E9F"/>
		</linearGradient>
		<path class="st16" d="M56.1,155.8c-0.3-0.1-0.8-0.7-1-0.4C55.3,155.9,55.6,156.2,56.1,155.8z"/>
		<linearGradient id="SVGID_18_" gradientUnits="userSpaceOnUse" x1="50.3839" y1="157.9504" x2="52.1219" y2="157.9504">
			<stop  offset="0" style="stop-color:#E9C063"/>
			<stop  offset="0.3273" style="stop-color:#C23C47"/>
			<stop  offset="0.6485" style="stop-color:#924F93"/>
			<stop  offset="1" style="stop-color:#5B5E9F"/>
		</linearGradient>
		<path class="st17" d="M52.1,158.4c-0.6-0.2-1.3-1.1-1.7-0.9C50.4,157.7,52.3,158.7,52.1,158.4z"/>
		<linearGradient id="SVGID_19_" gradientUnits="userSpaceOnUse" x1="51.7445" y1="152.8958" x2="53.8335" y2="152.8958">
			<stop  offset="0" style="stop-color:#E9C063"/>
			<stop  offset="0.3273" style="stop-color:#C23C47"/>
			<stop  offset="0.6485" style="stop-color:#924F93"/>
			<stop  offset="1" style="stop-color:#5B5E9F"/>
		</linearGradient>
		<path class="st18" d="M53.8,153.2c-0.3,0-2.1-0.9-2.1-0.8c0,0.2,0.4,0.5,1,0.8C53.2,153.4,53.8,153.5,53.8,153.2z"/>
		<linearGradient id="SVGID_20_" gradientUnits="userSpaceOnUse" x1="47.1249" y1="151.5421" x2="47.8736" y2="151.5421">
			<stop  offset="0" style="stop-color:#E9C063"/>
			<stop  offset="0.3273" style="stop-color:#C23C47"/>
			<stop  offset="0.6485" style="stop-color:#924F93"/>
			<stop  offset="1" style="stop-color:#5B5E9F"/>
		</linearGradient>
		<path class="st19" d="M47.5,152c0.3-0.4,0-0.5,0.4-0.5c-0.2-0.1-0.4-0.3-0.6-0.5C46.9,151.4,47.4,151.7,47.5,152z"/>
		<linearGradient id="SVGID_21_" gradientUnits="userSpaceOnUse" x1="46.4462" y1="148.7275" x2="47.3748" y2="148.7275">
			<stop  offset="0" style="stop-color:#E9C063"/>
			<stop  offset="0.3273" style="stop-color:#C23C47"/>
			<stop  offset="0.6485" style="stop-color:#924F93"/>
			<stop  offset="1" style="stop-color:#5B5E9F"/>
		</linearGradient>
		<path class="st20" d="M46.4,148.8c0.5,0.6,1.4-0.5,0.6-0.4c0.1,0.1,0.1,0.2-0.1,0.4C46.8,148.7,46.6,148.6,46.4,148.8z"/>
		<linearGradient id="SVGID_22_" gradientUnits="userSpaceOnUse" x1="39.0461" y1="154.7142" x2="41.1859" y2="154.7142">
			<stop  offset="0" style="stop-color:#E9C063"/>
			<stop  offset="0.3273" style="stop-color:#C23C47"/>
			<stop  offset="0.6485" style="stop-color:#924F93"/>
			<stop  offset="1" style="stop-color:#5B5E9F"/>
		</linearGradient>
		<path class="st21" d="M39,154c1.3,0.4,1,1.2,2.1,1.6C41.2,155.1,39.6,153.3,39,154z"/>
		<linearGradient id="SVGID_23_" gradientUnits="userSpaceOnUse" x1="44.431" y1="147.5131" x2="45.8284" y2="147.5131">
			<stop  offset="0" style="stop-color:#E9C063"/>
			<stop  offset="0.3273" style="stop-color:#C23C47"/>
			<stop  offset="0.6485" style="stop-color:#924F93"/>
			<stop  offset="1" style="stop-color:#5B5E9F"/>
		</linearGradient>
		<path class="st22" d="M44.6,147.3c0.5,0.3,0,0.5-0.2,0.5c0.5,0.1,1,0.4,1.4,0.1c-0.9,0,0.2-0.9-0.7-0.8
			C45.4,147.4,44.7,147,44.6,147.3z"/>
		<linearGradient id="SVGID_24_" gradientUnits="userSpaceOnUse" x1="42.53" y1="148.5982" x2="44.5003" y2="148.5982">
			<stop  offset="0" style="stop-color:#E9C063"/>
			<stop  offset="0.3273" style="stop-color:#C23C47"/>
			<stop  offset="0.6485" style="stop-color:#924F93"/>
			<stop  offset="1" style="stop-color:#5B5E9F"/>
		</linearGradient>
		<path class="st23" d="M44.5,149.4c-0.5-0.2-0.8-0.5-1-0.9c-0.2-0.3-0.4-0.7-1-0.9c0.2,0.2,0.5,0.8,0.8,1.2
			C43.7,149.3,44.1,149.6,44.5,149.4z"/>
		<linearGradient id="SVGID_25_" gradientUnits="userSpaceOnUse" x1="31.5468" y1="148.8646" x2="35.2735" y2="148.8646">
			<stop  offset="0" style="stop-color:#E9C063"/>
			<stop  offset="0.3273" style="stop-color:#C23C47"/>
			<stop  offset="0.6485" style="stop-color:#924F93"/>
			<stop  offset="1" style="stop-color:#5B5E9F"/>
		</linearGradient>
		<path class="st24" d="M35,150.2c0.1-0.2,0.4-0.3,0.2-0.5c-0.6-0.4-1.2-0.5-1.7-0.8c-0.5-0.2-1-0.6-1.3-1.4
			c-0.2,0.2-0.4,0.3-0.6,0.3c0.5,0.3,0.8,0.8,1.1,1.2c0.3,0.4,0.6,0.8,1.1,1C33.7,149.6,34.6,149.7,35,150.2z"/>
		<linearGradient id="SVGID_26_" gradientUnits="userSpaceOnUse" x1="38.1701" y1="142.9644" x2="39.2601" y2="142.9644">
			<stop  offset="0" style="stop-color:#E9C063"/>
			<stop  offset="0.3273" style="stop-color:#C23C47"/>
			<stop  offset="0.6485" style="stop-color:#924F93"/>
			<stop  offset="1" style="stop-color:#5B5E9F"/>
		</linearGradient>
		<path class="st25" d="M38.6,142.4c-0.5,0-0.5,0.3-0.3,0.6c0.2,0.3,0.7,0.5,0.9,0.6C39.3,142.9,38.3,143,38.6,142.4z"/>
		<linearGradient id="SVGID_27_" gradientUnits="userSpaceOnUse" x1="30.196" y1="148.5159" x2="31.0705" y2="148.5159">
			<stop  offset="0" style="stop-color:#E9C063"/>
			<stop  offset="0.3273" style="stop-color:#C23C47"/>
			<stop  offset="0.6485" style="stop-color:#924F93"/>
			<stop  offset="1" style="stop-color:#5B5E9F"/>
		</linearGradient>
		<path class="st26" d="M31.1,148.8c-0.2-0.3-0.5-0.5-0.7-0.8C29.8,148.2,30.9,149.4,31.1,148.8z"/>
		<linearGradient id="SVGID_28_" gradientUnits="userSpaceOnUse" x1="36.1116" y1="141.6933" x2="37.6123" y2="141.6933">
			<stop  offset="0" style="stop-color:#E9C063"/>
			<stop  offset="0.3273" style="stop-color:#C23C47"/>
			<stop  offset="0.6485" style="stop-color:#924F93"/>
			<stop  offset="1" style="stop-color:#5B5E9F"/>
		</linearGradient>
		<path class="st27" d="M37.6,142.3c-0.5-0.6-0.8-1.5-1.5-1.2C36.5,141.3,37.6,142.7,37.6,142.3z"/>
		<linearGradient id="SVGID_29_" gradientUnits="userSpaceOnUse" x1="36.4705" y1="140.2027" x2="37.8653" y2="140.2027">
			<stop  offset="0" style="stop-color:#E9C063"/>
			<stop  offset="0.3273" style="stop-color:#C23C47"/>
			<stop  offset="0.6485" style="stop-color:#924F93"/>
			<stop  offset="1" style="stop-color:#5B5E9F"/>
		</linearGradient>
		<path class="st28" d="M37.9,141.8c-0.7-1.1-0.6-2.8-1.4-3.2C36.5,139.5,36.9,141.2,37.9,141.8z"/>
		<linearGradient id="SVGID_30_" gradientUnits="userSpaceOnUse" x1="30.5397" y1="146.5583" x2="31.6498" y2="146.5583">
			<stop  offset="0" style="stop-color:#E9C063"/>
			<stop  offset="0.3273" style="stop-color:#C23C47"/>
			<stop  offset="0.6485" style="stop-color:#924F93"/>
			<stop  offset="1" style="stop-color:#5B5E9F"/>
		</linearGradient>
		<path class="st29" d="M31.6,147.2c-0.3-0.5-0.4-0.6-0.7-1.3c-0.2,0.2-0.5,0.4-0.4,0.6C31.3,145.9,30.8,147.7,31.6,147.2z"/>
		<linearGradient id="SVGID_31_" gradientUnits="userSpaceOnUse" x1="34.9508" y1="141.9085" x2="35.7128" y2="141.9085">
			<stop  offset="0" style="stop-color:#E9C063"/>
			<stop  offset="0.3273" style="stop-color:#C23C47"/>
			<stop  offset="0.6485" style="stop-color:#924F93"/>
			<stop  offset="1" style="stop-color:#5B5E9F"/>
		</linearGradient>
		<path class="st30" d="M35.7,142.5c-0.2-0.4,0.1-0.8-0.1-1.2c-0.3,0.4-0.2,0.3-0.6,0.6C35.2,142,35.5,142.7,35.7,142.5z"/>
		<linearGradient id="SVGID_32_" gradientUnits="userSpaceOnUse" x1="33.1005" y1="142.1349" x2="34.0481" y2="142.1349">
			<stop  offset="0" style="stop-color:#E9C063"/>
			<stop  offset="0.3273" style="stop-color:#C23C47"/>
			<stop  offset="0.6485" style="stop-color:#924F93"/>
			<stop  offset="1" style="stop-color:#5B5E9F"/>
		</linearGradient>
		<path class="st31" d="M33.2,141.9c-0.1,0.2,0,0.4,0.2,0.5c0.2,0.1,0.5,0.1,0.7,0C33.7,142,33.5,141.8,33.2,141.9z"/>
		<linearGradient id="SVGID_33_" gradientUnits="userSpaceOnUse" x1="32.0233" y1="139.2682" x2="33.7363" y2="139.2682">
			<stop  offset="0" style="stop-color:#E9C063"/>
			<stop  offset="0.3273" style="stop-color:#C23C47"/>
			<stop  offset="0.6485" style="stop-color:#924F93"/>
			<stop  offset="1" style="stop-color:#5B5E9F"/>
		</linearGradient>
		<path class="st32" d="M33.7,140.1c-0.5-0.6-1-1.2-0.9-1.7c-0.3,0.6-0.3,0.2-0.8,0.1C31.9,139.2,33.1,140,33.7,140.1z"/>
		<linearGradient id="SVGID_34_" gradientUnits="userSpaceOnUse" x1="29.0464" y1="134.429" x2="30.7843" y2="134.429">
			<stop  offset="0" style="stop-color:#E9C063"/>
			<stop  offset="0.3273" style="stop-color:#C23C47"/>
			<stop  offset="0.6485" style="stop-color:#924F93"/>
			<stop  offset="1" style="stop-color:#5B5E9F"/>
		</linearGradient>
		<path class="st33" d="M29.2,133.5c0.2-0.1,0.4-0.2,0.3-0.4c-0.6,0-0.5,0.9-0.1,1.6c0.1,0.2,0.2,0.4,0.3,0.5
			c0.1,0.2,0.3,0.3,0.4,0.4c0.3,0.2,0.5,0.2,0.6,0C29.9,135.3,29.9,134,29.2,133.5z"/>
		<linearGradient id="SVGID_35_" gradientUnits="userSpaceOnUse" x1="23.4754" y1="126.9216" x2="24.2457" y2="126.9216">
			<stop  offset="0" style="stop-color:#E9C063"/>
			<stop  offset="0.3273" style="stop-color:#C23C47"/>
			<stop  offset="0.6485" style="stop-color:#924F93"/>
			<stop  offset="1" style="stop-color:#5B5E9F"/>
		</linearGradient>
		<path class="st34" d="M24.2,127.5c-0.1-0.6-0.3-1.1-0.8-1.1C23.7,126.7,23.9,127.6,24.2,127.5z"/>
		<linearGradient id="SVGID_36_" gradientUnits="userSpaceOnUse" x1="17.6846" y1="115.0839" x2="18.4989" y2="115.0839">
			<stop  offset="0" style="stop-color:#E9C063"/>
			<stop  offset="0.3273" style="stop-color:#C23C47"/>
			<stop  offset="0.6485" style="stop-color:#924F93"/>
			<stop  offset="1" style="stop-color:#5B5E9F"/>
		</linearGradient>
		<path class="st35" d="M18.3,115.3c0-0.1-0.1-0.1-0.1-0.2c-0.1-0.2-0.3-0.4-0.5-0.4c0,0.2,0.1,0.4,0.2,0.5c0,0.1,0.1,0.1,0.1,0.2
			c0,0,0.1,0,0.1,0.1c0.1,0.1,0.3,0.1,0.5,0.1C18.4,115.5,18.4,115.4,18.3,115.3C18.3,115.3,18.3,115.3,18.3,115.3z"/>
		<linearGradient id="SVGID_37_" gradientUnits="userSpaceOnUse" x1="14.715" y1="102.0273" x2="15.3355" y2="102.0273">
			<stop  offset="0" style="stop-color:#E9C063"/>
			<stop  offset="0.3273" style="stop-color:#C23C47"/>
			<stop  offset="0.6485" style="stop-color:#924F93"/>
			<stop  offset="1" style="stop-color:#5B5E9F"/>
		</linearGradient>
		<path class="st36" d="M14.7,100.8c0.1,0.4,0,1,0,1.5c0,0.5,0,0.9,0.4,1c0-0.5-0.1-0.8-0.1-1.1c0-0.3,0-0.5,0.3-0.8
			C14.7,101.9,15.2,100.6,14.7,100.8z"/>
		<linearGradient id="SVGID_38_" gradientUnits="userSpaceOnUse" x1="9.6217" y1="69.6048" x2="10.6155" y2="69.6048">
			<stop  offset="0" style="stop-color:#E9C063"/>
			<stop  offset="0.3273" style="stop-color:#C23C47"/>
			<stop  offset="0.6485" style="stop-color:#924F93"/>
			<stop  offset="1" style="stop-color:#5B5E9F"/>
		</linearGradient>
		<path class="st37" d="M10.6,69.1c-0.5-0.4-1.3,0.2-0.9,0.7c0.1-0.2,0.3-0.4,0.5-0.5c0.1,0.1,0.1,0.3,0,0.6
			c-0.1,0.2-0.1,0.5,0.1,0.5C10.7,70,10.3,69.7,10.6,69.1z"/>
		<linearGradient id="SVGID_39_" gradientUnits="userSpaceOnUse" x1="30.3807" y1="32.9708" x2="31.9077" y2="32.9708">
			<stop  offset="0" style="stop-color:#E9C063"/>
			<stop  offset="0.3273" style="stop-color:#C23C47"/>
			<stop  offset="0.6485" style="stop-color:#924F93"/>
			<stop  offset="1" style="stop-color:#5B5E9F"/>
		</linearGradient>
		<path class="st38" d="M31.9,32c-0.2,0.2-0.4,0.3-0.5,0.1c-0.5,0.8-1.2,1.4-0.9,1.8C30.7,33.1,31.8,32.6,31.9,32z"/>
		<linearGradient id="SVGID_40_" gradientUnits="userSpaceOnUse" x1="46.9532" y1="18.8802" x2="47.7999" y2="18.8802">
			<stop  offset="0" style="stop-color:#E9C063"/>
			<stop  offset="0.3273" style="stop-color:#C23C47"/>
			<stop  offset="0.6485" style="stop-color:#924F93"/>
			<stop  offset="1" style="stop-color:#5B5E9F"/>
		</linearGradient>
		<path class="st39" d="M47.6,18.4c-0.4,0.3-0.7,0.7-0.6,1C47.4,19.1,48.2,18.8,47.6,18.4z"/>
		<linearGradient id="SVGID_41_" gradientUnits="userSpaceOnUse" x1="64.2077" y1="7.9299" x2="67.6048" y2="7.9299">
			<stop  offset="0" style="stop-color:#E9C063"/>
			<stop  offset="0.3273" style="stop-color:#C23C47"/>
			<stop  offset="0.6485" style="stop-color:#924F93"/>
			<stop  offset="1" style="stop-color:#5B5E9F"/>
		</linearGradient>
		<path class="st40" d="M65.4,8.2c0,0,0.1,0,0.1,0l0.1,0l0,0l0,0l1.1-0.4l0,0l0,0c0.1,0,0.1-0.1,0.2-0.1c0.2-0.1,0.5-0.3,0.7-0.4
			c-0.3-0.1-0.6-0.1-0.9,0c0,0-0.1,0-0.1,0l-0.1,0l0,0l0,0l-1.1,0.4l0,0l-0.1,0c-0.1,0.1-0.3,0.1-0.4,0.2c-0.3,0.1-0.5,0.3-0.7,0.5
			c0.4-0.1,0,0.2-0.1,0.4c0.4-0.2,0.7-0.3,1-0.5C65.2,8.2,65.3,8.2,65.4,8.2z"/>
		<linearGradient id="SVGID_42_" gradientUnits="userSpaceOnUse" x1="65.4053" y1="9.7817" x2="67.4783" y2="9.7817">
			<stop  offset="0" style="stop-color:#E9C063"/>
			<stop  offset="0.3273" style="stop-color:#C23C47"/>
			<stop  offset="0.6485" style="stop-color:#924F93"/>
			<stop  offset="1" style="stop-color:#5B5E9F"/>
		</linearGradient>
		<path class="st41" d="M66.2,10.2C66.2,10.2,66.3,10.2,66.2,10.2L66.2,10.2l0.2,0l0.1,0v0.2c0,0-0.2,0-0.2,0h0h0
			C66.3,10.4,66.3,10.3,66.2,10.2l0.2-0.1c-0.2,0.1-0.5-0.1,0.1-0.1v0.1c0-0.1,0.9-0.3,1-0.3l0,0c0,0,0,0,0,0c0.1-0.2,0.1-0.4,0-0.9
			c0,0.1-0.1,0.2-0.1,0.3c0,0,0,0.1-0.1,0.1l-0.1,0l-0.1,0v0.4h0.1c-2.1,0.6-0.6,0-1.1,0.6h0l0-0.3l0-0.1L66,10
			c-0.2,0.2-0.5,0.5-0.6,0.7c0.2-0.1,0.4-0.2,0.6-0.3C66.1,10.3,66.2,10.3,66.2,10.2z"/>
		<linearGradient id="SVGID_43_" gradientUnits="userSpaceOnUse" x1="67.4319" y1="8.3666" x2="68.6415" y2="8.3666">
			<stop  offset="0" style="stop-color:#E9C063"/>
			<stop  offset="0.3273" style="stop-color:#C23C47"/>
			<stop  offset="0.6485" style="stop-color:#924F93"/>
			<stop  offset="1" style="stop-color:#5B5E9F"/>
		</linearGradient>
		<path class="st42" d="M68.6,8.6c-0.3-0.5-0.1-0.4-0.4-0.9c0.2,0,0.2-0.3,0-0.4c0,0.5-0.5,0.6-0.4,1.1c0.1,0,0.3-0.1,0.4,0.1
			c-0.1,0.5-0.6-0.4-0.7,0.2c0.1,0.4,0.3,0.7,0.5,0.7C68.1,9.1,68.3,8.8,68.6,8.6z"/>
		<linearGradient id="SVGID_44_" gradientUnits="userSpaceOnUse" x1="68.1465" y1="6.1725" x2="70.1393" y2="6.1725">
			<stop  offset="0" style="stop-color:#E9C063"/>
			<stop  offset="0.3273" style="stop-color:#C23C47"/>
			<stop  offset="0.6485" style="stop-color:#924F93"/>
			<stop  offset="1" style="stop-color:#5B5E9F"/>
		</linearGradient>
		<path class="st43" d="M68.6,6.5L68.6,6.5L68.6,6.5c0.1,0,0.2-0.1,0.2-0.1c0.4-0.1,0.8-0.3,1.3-0.7c-1.6-0.5-0.1-0.2-1.1,0.3
			c-0.1,0.1-0.3,0.1-0.5,0.2l0,0l0,0l0,0l-0.1,0c0,0-0.1,0-0.1,0c-0.1,0-0.2,0.1-0.2,0.5c0.1-0.1,0.2-0.2,0.3-0.2
			C68.5,6.6,68.5,6.6,68.6,6.5z"/>
		<linearGradient id="SVGID_45_" gradientUnits="userSpaceOnUse" x1="79.7972" y1="5.1924" x2="80.9187" y2="5.1924">
			<stop  offset="0" style="stop-color:#E9C063"/>
			<stop  offset="0.3273" style="stop-color:#C23C47"/>
			<stop  offset="0.6485" style="stop-color:#924F93"/>
			<stop  offset="1" style="stop-color:#5B5E9F"/>
		</linearGradient>
		<path class="st44" d="M80.9,4.9c-0.5,0.1-0.6,0.4-1.1,0.2C79.7,5.8,81.2,5.5,80.9,4.9z"/>
		<linearGradient id="SVGID_46_" gradientUnits="userSpaceOnUse" x1="82.4203" y1="7.4339" x2="83.6801" y2="7.4339">
			<stop  offset="0" style="stop-color:#E9C063"/>
			<stop  offset="0.3273" style="stop-color:#C23C47"/>
			<stop  offset="0.6485" style="stop-color:#924F93"/>
			<stop  offset="1" style="stop-color:#5B5E9F"/>
		</linearGradient>
		<path class="st45" d="M83.6,7.2c-0.7,0.3-0.9,0-1.2,0.4C82.6,7.7,83.9,7.8,83.6,7.2z"/>
		<linearGradient id="SVGID_47_" gradientUnits="userSpaceOnUse" x1="95.3468" y1="18.4024" x2="96.251" y2="18.4024">
			<stop  offset="0" style="stop-color:#E9C063"/>
			<stop  offset="0.3273" style="stop-color:#C23C47"/>
			<stop  offset="0.6485" style="stop-color:#924F93"/>
			<stop  offset="1" style="stop-color:#5B5E9F"/>
		</linearGradient>
		<path class="st46" d="M96.1,18.1c-0.4,0-0.7,0-0.7,0.4c0.1,0.1,0.9,0.4,0.9,0C96.1,18.4,96,18.3,96.1,18.1z"/>
		<linearGradient id="SVGID_48_" gradientUnits="userSpaceOnUse" x1="95.8877" y1="17.728" x2="97.1844" y2="17.728">
			<stop  offset="0" style="stop-color:#E9C063"/>
			<stop  offset="0.3273" style="stop-color:#C23C47"/>
			<stop  offset="0.6485" style="stop-color:#924F93"/>
			<stop  offset="1" style="stop-color:#5B5E9F"/>
		</linearGradient>
		<path class="st47" d="M95.9,17.6c0.1,0,0.2,0.1,0.2,0.3c0.6,0,1.2,0.1,1.1-0.5C96.6,17.7,96.2,17.4,95.9,17.6z"/>
		<linearGradient id="SVGID_49_" gradientUnits="userSpaceOnUse" x1="98.2266" y1="12.511" x2="100.3988" y2="12.511">
			<stop  offset="0" style="stop-color:#E9C063"/>
			<stop  offset="0.3273" style="stop-color:#C23C47"/>
			<stop  offset="0.6485" style="stop-color:#924F93"/>
			<stop  offset="1" style="stop-color:#5B5E9F"/>
		</linearGradient>
		<path class="st48" d="M100,12.6c0.2,0,0.4,0.1,0.4-0.2c-0.2-0.1-0.3-0.2-0.4-0.4c-0.9,0.3-1.2,0.3-1.8,0.6c0.9,0.1,1,0,1.6,0.2
			C99.6,12.6,99.8,12.6,100,12.6z"/>
		<linearGradient id="SVGID_50_" gradientUnits="userSpaceOnUse" x1="119.2091" y1="26.7663" x2="120.2618" y2="26.7663">
			<stop  offset="0" style="stop-color:#E9C063"/>
			<stop  offset="0.3273" style="stop-color:#C23C47"/>
			<stop  offset="0.6485" style="stop-color:#924F93"/>
			<stop  offset="1" style="stop-color:#5B5E9F"/>
		</linearGradient>
		<path class="st49" d="M119.2,27.2c0.7,0.5,0.7-0.7,1.1-0.9c-0.3-0.2-0.4,0-0.7-0.1C119.5,26.8,119.8,26.9,119.2,27.2z"/>
		<linearGradient id="SVGID_51_" gradientUnits="userSpaceOnUse" x1="124.1232" y1="18.917" x2="125.0486" y2="18.917">
			<stop  offset="0" style="stop-color:#E9C063"/>
			<stop  offset="0.3273" style="stop-color:#C23C47"/>
			<stop  offset="0.6485" style="stop-color:#924F93"/>
			<stop  offset="1" style="stop-color:#5B5E9F"/>
		</linearGradient>
		<path class="st50" d="M124.9,19.3c0.5-0.7-0.3-0.9-0.8-0.7C124.7,18.7,124.3,19.2,124.9,19.3z"/>
		<linearGradient id="SVGID_52_" gradientUnits="userSpaceOnUse" x1="7.2379" y1="86.8212" x2="163.3062" y2="86.8212">
			<stop  offset="0" style="stop-color:#E9C063"/>
			<stop  offset="0.3273" style="stop-color:#C23C47"/>
			<stop  offset="0.6485" style="stop-color:#924F93"/>
			<stop  offset="1" style="stop-color:#5B5E9F"/>
		</linearGradient>
		<path class="st51" d="M62.8,166.6c0.3,0,0.6,0,0.8-0.2c-1-0.4-2.2-1-2.3-2.1c0.9,0,0.9,1.1,1.4,0.8c-0.7-0.9-1.3-1.2-2.1-1.3
			c-0.8-0.2-1.7-0.3-2.6-0.9c0.1-0.2,0.2-0.3,0.4-0.4c-0.5-0.6-1.5-0.6-2.2-0.8c-0.7-0.7-1.5-1.2-2.4-1.7c-0.9-0.5-1.8-1-2.7-1.4
			c-0.9-0.5-1.8-1-2.6-1.5c-0.8-0.6-1.5-1.2-2-2c-0.7,0-1.4-0.4-2.2-0.9c-0.4-0.2-0.8-0.5-1.2-0.8c-0.4-0.3-0.8-0.6-1.1-0.8
			c0.8-0.4,1.9,1.3,2.6,0.8c-0.6-0.5-3.2-2.2-3.1-3c-0.2,0.2-0.4,0.4-0.7,0.2c-0.5-0.3-0.1-0.5-0.3-0.8c-0.5,0.2-1.2-0.3-1.9-1
			c-0.4-0.3-0.7-0.8-1-1.1c-0.3-0.4-0.5-0.7-0.7-0.9c0.1,0.1,0.1,0.3-0.1,0.4c0-0.5-1.6-0.8-1.6-1.7c0.3,0.4,0.5,0.5,0.8,0.3
			c-0.1-1-1,0-1.4-0.8c0.3-0.3,0.5,0.3,0.8,0.1c-0.6-0.5-1.4-1.4-2.1-2.3c-0.7-0.9-1.4-1.8-2-2.2c-0.6,0.2,0.3,0.6-0.3,0.7
			c-0.1-0.3-0.8-0.7-0.5-0.9c0.2-0.1,0.4,0.1,0.6,0c-0.5-0.6-0.9-1.2-1.4-1.8c-0.5-0.6-0.9-1.2-1.4-1.8c-0.5-0.6-0.9-1.3-1.4-2
			c-0.4-0.7-0.9-1.5-1.3-2.3c0.2-0.4-0.2-1-0.7-1.6c-0.5-0.6-1.1-1.3-1.3-1.8c-0.2-0.7-0.7-1.5-1.2-2.3c-0.1-0.2-0.3-0.4-0.4-0.6
			c-0.1-0.2-0.3-0.4-0.4-0.7c-0.3-0.4-0.5-0.9-0.8-1.3c-0.4-0.7-0.7-1.4-1-2.2c-0.3-0.7-0.5-1.5-0.8-2.2c-0.1-0.4-0.3-0.7-0.4-1.1
			l0,0l-0.3-0.9l0,0l0,0l0,0l0,0l0-0.1l-0.1-0.1c0-0.1-0.1-0.2-0.1-0.3c-0.2-0.3-0.4-0.7-0.8-0.9c0.3-0.1,0.6-0.2,0.4-0.4
			c-0.3,0.1-0.6,0.2-0.7,0.1c0-0.1,0-0.1,0-0.2c0,0,0-0.1,0-0.1l0-0.1c0-0.1,0-0.1,0-0.2c0-0.3,0-0.5,0-0.7c0-0.4,0.2-0.8,0.4-1.1
			c-0.4-0.1-0.7-0.4-1.1-0.7c0.1,0.4,0.8,1,0.4,1.4c-0.2-0.4-0.6-0.3-0.7-1.1c0.8-1.3,0.2-0.5,0.1-2.1c0.1,0.4,0.3,0.6,0.5,0.6
			c-0.2-0.2-0.3-0.5-0.4-0.8c0-0.2-0.1-0.3-0.1-0.4c0-0.1,0-0.3,0-0.4c0-0.6-0.1-1.1-0.4-1.5c0,1.1,0.2,1.3,0,2.2
			c-0.4-1-0.3-1.2-0.8-2.1c0.3-0.3,0.7,0.5,0.7-0.2c-0.5-0.4-0.3-1.1-0.2-1.8c0.1-0.7,0.3-1.4-0.2-2c0.2,0.4-0.1,1.1-0.2,0.6
			c-0.1-0.5,0.2-0.7,0.2-1c-0.6-0.3-0.8-0.8-0.8-1.4c0-0.6,0-1.2-0.3-1.6c0.2-0.5,0.4-0.5,0.6-0.7c-0.6-0.3-1-2.1-1-2.5
			c0.5-0.1,0.2,0.9,0.6,0.9c-0.3-2-0.9-2.6-1.3-3.5c-0.1-0.5,0.5-0.2,0.5-0.6c-0.7,0.4-1-1.2-1.1-2.2c0.6,0.1,0.9,0,1,0.2
			c-0.2,0.2,0,0.9,0.2,1.2c0.3-0.6,0.6,0.6,1,0.5C14.5,95,14.3,95,14,94.8c0.2,0.7,0.3,1.5,0.3,2.4c0,0.8,0.1,1.6,0.4,2.4
			c-0.2,0-0.4-0.3-0.5,0.1c0.6-0.4,0.2,0.7,0.6,0.5c0.3-0.6,0.8,0.4,0.9,0.7c-0.3-0.2-0.4-0.2-0.5,0.3c0.5,0.2,0.6,0.5,0.5,0.9
			c0,0.2,0,0.4,0,0.6c0,0.2,0.1,0.3,0.3,0.4c-0.2,0.5-0.6-0.3-0.4,0.5c0.2,0,0.5-0.1,0.7-0.1c0.2,0.7,0.6,2.7,0.7,3.2
			c0,0.5,0.7-0.7,0.8,0.2c-0.4,0-0.2,0.5,0,1.1c0.2,0.6,0.3,1.2-0.3,1.4c0.1,0.2,0.2,0.4,0.3,0.6c0,0.1,0.1,0.2,0.1,0.3
			c0,0.1,0.1,0.2,0.1,0.3c0.1,0.4,0.2,0.8,0.3,1.1c0.2,0.7,0.3,1.4,1,2.2c-0.1,0.1-0.2,0.5-0.1,0.8c0,0.2,0.1,0.4,0.1,0.5
			c0,0.1,0.1,0.1,0.2,0.1c0,0-0.1-0.1,0-0.1c0,0,0-0.1,0-0.1c0-0.1,0-0.1,0-0.1c0.1-0.2,0.2-0.2,0.2,0c0,0.1,0,0.2,0,0.2
			c0,0.1,0,0.1,0,0.2c0,0.1,0,0.2,0,0.3c0,0.2,0,0.4,0.1,0.7c0,0.2,0.1,0.4,0.1,0.7l0,0.2l0,0.1l0,0l0,0l0.3,0.9
			c0.1,0.2,0.1,0.4,0.2,0.6c0.6,1.6,1.2,3.1,1.7,4.6c-0.1-0.2,0-0.4,0.2-0.5c0.1,0.2,0.2,0.5,0.3,0.7c-0.2,0.1-0.4,0.1-0.5,0
			c0.7,0.4,0.1,1.8,0.6,2.1c-0.1-0.6,0.3,0.2,0.2,0.4c0.5-0.1,0.4-0.1,0.9,0.2c-0.1-0.3-0.4-0.6-0.2-0.8c0.7,0.6,1.1,1.5,1.5,2.5
			c0.4,1,0.7,2,1.1,2.7c0.6,0.4,0.2-0.9,0.7-0.4c-0.2,0.8,1.5,0.9,0.9,1.5c-0.5,0.1-1.2-1.6-1.5-0.5c0.9,0.6,2.1,0.5,2.1,1.9
			c1.3-1,2.1,1.5,3.2,1.7c0,0.6,0.3,1.9,1.2,2.2c-0.6-1.2-1-2.4-0.5-3.3c0.1,0.2,0.3,0.4,0.5,0.4c-0.2-0.5-0.4-0.5-0.7-0.6
			c-0.2,0-0.5,0-0.7-0.5c-0.6,0.3,0.4,1.1-0.1,1.4c-0.9-1.2-1.7-2.3-2-3.4c0.2,0.6,0.6-0.1,0.8,0.4c0,0.2,0.2,1.2,0.5,1
			c0.4-0.1,1.1,0.2,1.6,0.6c0.5,0.5,0.9,1.2,0.9,1.9c1.1-0.1,0.9,1.3,1.1,1.5c-0.2-0.5,0.6-0.3,0.8-0.1c-0.6,0.5,0.7,1.8,0.7,0.6
			c0.5,0.6,0.2,1,0,1.1c0.7,0.2,1.3,0.5,2,0.5c-0.3,0.3-0.6,0.1-0.4,0.6c0.5,0.2,0.3-0.1,0.6-0.1c0.1,0.1,0,0.3-0.1,0.4
			c0.7-0.1,0.9,0.4,1.1,0.9c0.2,0.5,0.3,1.1,0.6,1c-0.1-0.2-0.2-0.4,0-0.5c0.2,0.3,0.5,0.7,0.7,1c0.2,0.3,0.3,0.6,0.2,0.9
			c0.7-0.3,0.2,0.6,0.8,1c0.5-0.3,1.3,0.1,1.9,0.6c0.6,0.5,1,1.1,0.6,1.4c0.7,0.1,1.4,0,1.6,1c0.8-0.5-0.8-1-0.6-1.5
			c0.3,0,0.7,0.4,1,0.7c0.4,0.3,0.7,0.7,1.1,0.7c0,0.6,0.1,1.1-0.3,1.5c0.4,0.2,0.8-0.1,1.2-0.1c-0.1-0.2-0.4-0.3-0.3-0.5
			c0.5,0,0.9,0.2,1.1,0.6c0.2,0.4,0.3,0.8,0,1.2c-0.2-0.4-1,0.2-0.7,0.3c0.7-0.4,1.5,0.4,2.2,0.2c-0.5-0.7-0.7,0.1-1.2-0.5
			c0.1-0.6,0.6-0.4,0.3-1c0.8,0.7,1.2,1,1.9,1.3c-0.2,0.3-0.5-0.1-0.7,0.3c0.4,0.5,0.6-0.3,1-0.1c0.1,0.4,0.5,0.7,0.3,1.1
			c0.9,0.1,1.5,0.3,2.1,0.7c0.3,0.2,0.6,0.4,0.9,0.7c0.3,0.2,0.7,0.5,1.2,0.7c0.6-0.5-0.9-0.6-0.6-1c1.1,0.1,2,0.5,3,0.9
			c0.9,0.3,1.9,0.7,2.9,0.8c-0.1,0.2-0.4,0.1-0.5,0.3c0.3,0,0.6,0,0.8,0.1c0.2,0.1,0.4,0.2,0.5,0.3c0.3,0.2,0.5,0.3,0.8,0
			c0.5,0.5,1.1,0.9,1.9,1.4c0.8,0.4,1.7,0.9,2.6,1.3c0.9,0.4,1.8,0.8,2.6,1.2c0.2,0.1,0.4,0.2,0.6,0.3c0.2,0.1,0.4,0.2,0.5,0.3
			c0.3,0.2,0.6,0.4,0.9,0.6c0.6,0.2,1.4,0.2,2.2,0.3c0.7,0.1,1.3,0.3,1.6,1c0.4-0.2,1-0.1,1.5,0.1c0.6,0.2,1.1,0.3,1.4,0.1
			c-0.3-0.1,0-0.3,0.2-0.3c0.6,0.3,1.2,0.5,1.8,0.6c0.6,0.1,1.1,0,1.7,0c0.6,0,1.1-0.1,1.7,0c0.6,0,1.3,0.1,2,0.3
			c0-0.9-2.2,0-1.7-1.3c-0.4-0.1-0.7-0.2-1-0.3c-0.1-0.1-0.3-0.1-0.4-0.2c0.3,0.1,0.6,0.1,0.9,0.1c0.8,0.1,1.6,0.2,2.4,0.4
			c0.4,0.1,0.8,0.1,1.2,0.1l1.2,0.1c0.4,0,0.8,0.1,1.2,0.1l1.2,0.1l1.2,0.1c0.4,0,0.8,0,1.2,0c0.8,0,1.7,0,2.5,0c0.4,0,0.8,0,1.2,0
			l1.2-0.1c0.4,0,0.8,0,1.2-0.1l1.2-0.1l1.2-0.1l0.6-0.1c0.2,0,0.4-0.1,0.6-0.1c0.8-0.1,1.7-0.2,2.5-0.4c0.2,0,0.4-0.1,0.6-0.1
			l0.6-0.1l1.2-0.2c0.4-0.1,0.8-0.2,1.2-0.2l1.2-0.3l1.2-0.3l0.6-0.2c0.2-0.1,0.4-0.1,0.6-0.2c0.8-0.2,1.6-0.5,2.4-0.7
			c0.4-0.1,0.8-0.3,1.2-0.4l1.2-0.4l1.2-0.4l1.2-0.5l1.2-0.5c0.4-0.2,0.8-0.3,1.2-0.5l2.3-1.1c0.2-0.1,0.4-0.2,0.6-0.3l0.6-0.3
			l1.1-0.6l1.1-0.6c0.4-0.2,0.7-0.4,1.1-0.6l2.2-1.3l2.1-1.4c0.3-0.2,0.7-0.5,1-0.7l1-0.8l1-0.8l0.5-0.4c0.2-0.1,0.3-0.3,0.5-0.4
			l1.9-1.6c0.3-0.3,0.6-0.6,0.9-0.8l0.9-0.9l0.9-0.9l0.9-0.9l0.9-0.9c0.3-0.3,0.6-0.6,0.9-0.9l1.7-1.9c0.1-0.2,0.3-0.3,0.4-0.5
			l0.4-0.5l0.8-1l0.8-1c0.3-0.3,0.5-0.7,0.7-1l0.7-1l0.4-0.5c0.1-0.2,0.2-0.3,0.4-0.5c0.5-0.7,0.9-1.4,1.4-2.1
			c0.1-0.2,0.2-0.3,0.3-0.5l0.3-0.5l0.6-1.1l0.6-1.1c0.2-0.4,0.4-0.7,0.6-1.1l0.6-1.1c0.2-0.4,0.4-0.7,0.6-1.1
			c0.4-0.8,0.7-1.5,1.1-2.3c0.2-0.4,0.3-0.8,0.5-1.1l0.5-1.1l0.5-1.1c0.1-0.4,0.3-0.8,0.4-1.2l0.4-1.2c0.1-0.4,0.3-0.8,0.4-1.2
			c0.2-0.8,0.5-1.6,0.7-2.4c0.1-0.4,0.2-0.8,0.3-1.2l0.3-1.2l0.3-1.2c0.1-0.4,0.2-0.8,0.2-1.2c0.2-0.8,0.3-1.6,0.5-2.4
			c0.1-0.8,0.2-1.6,0.4-2.4c0.9-6.4,0.8-12.9-0.1-19.2c-0.1-0.4-0.1-0.8-0.2-1.2c-0.1-0.4-0.1-0.8-0.2-1.2c-0.1-0.8-0.3-1.5-0.5-2.3
			c-0.4-1.5-0.7-3-1.2-4.5c-0.8-3-2-5.9-3.2-8.6c-0.6-1.4-1.3-2.8-2-4.1c-0.2-0.3-0.4-0.7-0.5-1c-0.2-0.3-0.3-0.7-0.5-1
			c-0.4-0.6-0.8-1.3-1.1-1.9c-0.2-0.3-0.4-0.6-0.6-0.9c-0.2-0.3-0.4-0.6-0.6-0.9c-0.4-0.6-0.8-1.2-1.2-1.8c-0.4-0.6-0.9-1.2-1.3-1.8
			c-0.4-0.6-0.9-1.2-1.3-1.7c-0.5-0.6-0.9-1.1-1.4-1.7l-0.3-0.4l-0.4-0.4c-0.2-0.3-0.5-0.5-0.7-0.8c-0.2-0.3-0.5-0.5-0.7-0.8
			c-0.2-0.3-0.5-0.5-0.7-0.8c-0.5-0.5-1-1-1.5-1.5c-0.3-0.2-0.5-0.5-0.8-0.7c-0.3-0.2-0.5-0.5-0.8-0.7c-0.5-0.5-1-0.9-1.6-1.4
			c-0.5-0.4-1.1-0.9-1.6-1.3c-0.3-0.2-0.5-0.4-0.8-0.6c-0.1-0.1-0.3-0.2-0.4-0.3l-0.4-0.3c-4.4-3.3-8.9-5.9-13.6-8
			c-4.6-2-9.3-3.5-13.8-4.4c-1.1-0.2-2.2-0.4-3.3-0.6c-0.1-0.2-0.3-0.3-0.5-0.1c0.2,0,0.2,0,0.3,0.1c-1-0.2-2-0.3-3-0.4
			c0.3-0.6,0.3-0.3,1-0.1c0.1-0.6-0.1-0.5,0.1-1c-0.8-0.3-0.9,0.2-1.2,0.4c0.3-1.1-1.9-0.6-2.5-1.2c0,0.4-0.2,0.5-0.5,0.5
			c0.1-0.2,0.2-0.3,0-0.5c-1.7,0-3.2,0.1-4.8,0.2c-0.4,0-0.8,0.1-1.1,0.1c-0.2,0-0.4,0-0.6,0c-0.2,0-0.4,0-0.6,0
			c-0.8,0-1.5,0.1-2.3,0c-1,0.6-3.8,1.5-3.9-0.2c-0.9-0.1-1.9-0.1-2.8,0c-0.5,0.1-0.9,0.1-1.4,0.2c-0.5,0.1-0.9,0.2-1.4,0.3
			c-0.5,0.1-0.9,0.2-1.4,0.3L78.6,23l-0.2,0l-0.2,0.1c-0.3,0.1-0.6,0.1-0.8,0.2c-0.6,0.1-1.1,0.3-1.7,0.4c-0.3,0.1-0.6,0.1-0.9,0.2
			l-0.4,0.1l-0.1,0l-0.1,0l0,0l-0.1,0c-0.2,0.5-0.6,0.8-1,1c-0.2,0.1-0.4,0.1-0.6,0.2l-0.1,0l0,0l0,0h0h0h-0.7h0l0,0.1l0,0.1
			c-0.1,0-0.2,0.1-0.2,0.1c-0.2,0-0.3,0.1-0.5,0.1c0.2,0-0.2,0.5-0.6,0.4c-0.7-0.2-0.6-0.5-0.2-0.9c0.2-0.2,0.5-0.4,0.8-0.5
			c0.1,0,0.1-0.1,0.2-0.1l0.1-0.1l0.1,0l0,0l0.7-0.3h0l0,0l0,0c0.1,0,0.2-0.1,0.2-0.1c-0.5,0.2-0.4-1.1-0.4-1.5
			c0.5-0.4,1-0.7,1.4-0.9l0.2-0.1c0,0,0,0,0.1,0l0.1,0l0.2-0.1c0.2-0.1,0.5-0.2,0.7-0.3c0.5-0.2,1-0.4,1.4-0.7
			c0.6-0.1,0.8,0.3,1.4,0.1c0.1-0.1,0.2-0.2,0.3-0.3c0.1,0,0.1-0.1,0.2-0.1c0,0,0.1,0,0.1,0c0.2,0,0.4,0,0.6,0c0.4,0,0.9,0.2,1.4,0
			c0.5-0.2,0.7-1,1.2-1.2c0.6-0.1,1.2,0.5,1.7,0.4c0.3-0.1,0.8-0.4,1-0.5c0,0-0.1,0.4-0.1,0.4c0.5-0.1,0.7-0.6,1.2-0.7
			c0.1,0,0.2,0.5,0.3,0.5c0.7,0.2,1.4-0.8,2.1-1c0.6,0.4-0.5,0.8,0.3,0.8c0-0.6,0.8-0.6,1-1c0.6,0.9,2.1-0.2,1.9,0.7
			c0.6-0.2,1.4-0.5,2.3-0.6c0.8-0.2,1.7-0.3,2.2-0.3c-0.2,0-0.2-0.3-0.2-0.5c1.4,0,1.8,0,2.6-0.3c0,0.2-0.2,0.2-0.2,0.3
			c1,0,2-0.1,2.9,0c0.9,0,1.6,0.1,2.3,0.3c0.2-0.2,0.3-0.5,0.6-0.6c0.4,0.5,0.6,0.3,0.9-0.1c0.3,0.4,0.1,1,0.7,0.8
			c-0.6-0.6,0.8-0.5,1.2-0.5c0,0.3,0.5,0.3,0.3,0.7c0,0.4-0.6,0.1-0.6,0.4c1.2,0.1,1.3-0.4,1.5-1.2c-0.4-0.3-1.2-0.4-1.6-0.7
			c-0.2,0.5-0.8,0.5-1.4,0.3c-0.6-0.2-1.2-0.4-1.4-0.6c0.2,0,0.2-0.3,0.4-0.3c0,0.2-0.1,0.5,0.1,0.5c0.6-0.5,1.2-0.5,1.8-0.4
			c0.6,0.1,1.3,0.4,2,0.5c-0.3-0.7,0.4-0.5,0.5-1.1c-0.8-0.1-1.5-0.2-2.2-0.3c-0.7-0.1-1.5-0.2-2.1-0.3c0.6,0.4-0.6,0.5-0.8,0.6
			c-0.3-0.3-1.4-0.8-1.7-0.6c0.2,0,0.2,0.3,0.2,0.5c-0.8-0.8-1.9-0.5-3-0.8c1.2,0.1,0.7-0.3,1.6-0.5c-0.8-0.3-1.3-0.5-1.9,0.1
			c0-0.2,0-0.3,0-0.5c-0.5,0.1-1,0.1-1.5,0.1c-0.6,0-1.2-0.1-1.8-0.1c-0.6-0.1-1.2-0.1-1.9-0.1c-0.6,0-1.2,0.1-1.8,0.3
			c0-0.2,0-0.5-0.2-0.5c-0.5,0.2-1.1,0.3-1.6,0.3c-0.6,0-1.2,0.1-1.7,0.1c-1.1,0-2.1,0-2.6,0.4c-0.1-0.3,0.1-0.6,0.4-0.7
			c0.3-0.1,0.6-0.1,0.9,0C85,12,84,13.1,83.6,13.3c0,0-0.1-0.3-0.1-0.3c-0.7,0.3-1,1.1-1.7,1.3c-0.5,0.1-0.9,0-1.3-0.1
			c-0.4-0.1-0.8-0.2-1.5,0.1c0.6,0.7-1.4,0.4-1.8,0.9c1-0.2,0.5,0.1-0.3,0.4c-0.1,0-0.1,0-0.2,0c-0.1,0-0.1,0-0.2,0
			c-0.1,0-0.3,0.1-0.4,0.1c-0.3,0.1-0.5,0.1-0.8,0.1c-0.5,0-0.8,0-0.9-0.3c0.8-0.2,0.8-0.6,1.2-0.9c-1.3,0.4-0.7,0-1.2-0.6
			c-1,0.5-1.2,0-2,0.2c0.3,0.5,1.2,0.2,1.6,0.4c-0.3,0.1-0.5,0.2-0.6,0.4c-0.6,0-1.2-0.8-1.5,0.1c-0.1-0.3-0.2-0.5-0.4-0.6
			c1.8-0.8,3.1-1.3,4.3-1.6c1-0.3,2.1-0.4,3.6-0.4c0.4-0.2,0.9-0.3,1.3-0.4c0.5-0.1,0.9-0.1,1.4-0.1c0.9-0.1,1.9-0.2,2.7-0.7
			c0.1,0.3,0.7,0,0.7,0.4c1.2-0.4,2.5-0.2,3.8-0.1c0.6,0.1,1.2,0.1,1.8,0.1c0.3,0,0.6-0.1,0.8-0.2c0.3-0.1,0.5-0.2,0.8-0.4
			c-0.3,0-0.6,0-0.9,0c-0.3,0-0.5-0.1-0.5-0.3c0.6,0,3.4-0.7,2.8,0.6c0.5-0.1,0.9-0.3,1.6-0.2c0.3-0.7-1,0-1-0.5
			c0.5,0,1.2-0.2,1.9-0.1c0.7,0,1.4,0.2,1.7,0.7c0.5,0,0.9,0,1.3,0c0.4,0,0.8,0,1.2,0.1c0.8,0,1.6,0.1,2.3,0.2
			c0.7,0.1,1.4,0.2,2,0.4c0.6,0.2,1.2,0.4,1.8,0.7c0.2-0.9,0.3,0.4,0.7,0.4c0.5-0.1-0.1-0.9,0.3-0.8c0.2,0,0.3-0.1,0.4-0.1
			c0.8,0,0.6,0.5,1.1,0.7c0.3-0.4,1.3-0.1,2,0c-0.1,1.3,1.4,0.8,2.2,1c1.6,0.4,3.3,1.1,5,1.8c0.8,0.3,1.6,0.7,2.4,1
			c0.4,0.1,0.7,0.3,1.1,0.4c0.3,0.1,0.7,0.3,1,0.4c-0.8-0.6-1.5-0.8-2.1-1.1c-0.6-0.2-1.1-0.5-1.8-1.1c-1.2,0-2.5-0.4-3.7-0.9
			c-1.3-0.5-2.6-1-3.9-1.2c0.1-0.4-0.2-0.6-0.2-0.9c0.3-0.2,0.8-0.1,1.1-0.3c-0.2-0.1-0.4-0.2-0.8-0.2c-0.3,0-0.7,0-1.1-0.1
			c-0.8-0.1-1.6-0.2-2.2-0.8c-0.1,0.3-0.3,0.3-0.5,0.2c-0.2-0.1-0.5-0.2-0.7-0.3c-0.4,0.5-1.3,0.7-2.3,0.7c-1,0-2-0.2-2.6-0.3
			c0.1-0.3,1.8,0.1,1.2-0.2c-0.6-0.1-1.2-0.1-1.2-0.6c0.4-0.1,1.2,0.3,1.2-0.1c-0.6-0.3-2-0.1-1.5-1.2c-0.8-0.2,0.2,0.7-0.7,0.6
			c0-0.1-0.2-0.2-0.4-0.2c-0.2-0.8,0.4-0.8,0.7-1.2c-0.9-0.5-1,0.2-1.1,0.4c-0.6-0.5,0.6-0.6,0.1-1c-0.4-0.2-0.9-0.3-1.3-0.4
			c-0.4-0.1-0.8-0.1-1-0.1c0.2,0,0.3,0.2,0.4,0.4c-0.4-0.1-0.9,0.5-1,0c0.2,0,0.6,0,0.6-0.2c-0.6-0.3-1.3-0.3-2.1-0.4
			c-0.7-0.1-1.4-0.1-1.7-0.5c-0.5,0.2,0.4,0.5-0.2,0.7c-1.2,0.3-1.1-0.6-1.9-0.6C92.6,7,93,7.6,92.5,7.6c-0.7-0.1-2,0.4-1.9-0.4
			c0.2-0.1,1.6-0.3,1-0.4c-1.2,0.4-2,0.1-2.5,0.9c-0.9-0.1,0.1-0.9-0.7-1c-0.3,0.1,0,0.7-0.4,0.7c-0.3-0.3-2.6-0.8-1.5-0.2
			c-0.9-0.1-1.1,0-2.3,0.1c0,0.3,0.2,0.6-0.1,0.7c-0.4,0-0.9,0-1.3,0c-0.4,0-0.8,0.1-1.2,0.1c-0.8,0.1-1.6,0.3-2.4,0.5
			C78.5,8.8,77.7,9,77,9.1c-0.4,0.1-0.8,0.2-1.1,0.2c-0.2,0-0.4,0.1-0.6,0.1c-0.1,0-0.2,0-0.3,0l-0.4,0c0,0.3,0.5,0.3,0.1,0.5
			c-1.5,0.1-2.7,0.2-3.4,1.1c-0.1-0.2,0-0.4,0.1-0.6c-0.2,0.1-0.5,0.3-0.8,0.4c-0.1,0-0.3,0.1-0.4,0.1l-0.1,0l0,0l0,0l0,0
			c0,0-0.1,0-0.1,0c-0.3,0-0.5-0.1-0.8-0.1c0-0.4,0.2-0.5,0.4-0.6c0.1-0.1,0.1-0.1,0.2-0.3c0,0,0,0,0-0.1c0,0,0,0,0-0.1
			c0,0,0-0.1,0.1-0.1c0-0.1,0-0.2,0-0.4c-0.1,0-0.2,0.1-0.3,0.1c0,0,0,0,0,0l0,0c0,0,0,0,0,0.1c-0.1,0.1-0.1,0.2-0.2,0.2
			c-0.1,0.2-0.2,0.4-0.2,0.6c-0.2,0.4-0.4,0.8-0.8,0.7c0,0.4,0.5,0.5,0.2,0.7c-0.2,0-0.3,0-0.4,0c0,0,0,0-0.1,0.1c0,0,0,0,0,0l0,0
			c-0.1,0-0.4,0.1-1,0.3l0,0l0,0l0,0c-0.1,0.1-0.1,0.2-0.2,0.3c-0.2-0.6-0.8-0.4-1.3-0.4c-0.7,0.6-1.5,0.8-2.2,1
			c-0.4,0.1-0.8,0.2-1.1,0.4c-0.3,0.2-0.6,0.5-0.9,0.9c-0.8,0.2-1.7,0.5-2.6,0.9c-0.9,0.4-1.8,0.8-2.6,1.3c-0.4,0.2-0.8,0.5-1.2,0.7
			c-0.4,0.3-0.8,0.5-1.1,0.8c-0.7,0.5-1.3,1-1.8,1.5c-0.4-0.3-1.1,0.5-1.3-0.2c-0.7,1.2-1.8,0.6-2.1,1.8c0.2-0.1,0.4-0.2,0.5,0.1
			c-0.3,0.4-0.4,0.4-1.1,0.9c-0.2-0.2-0.3-0.5-0.6-0.2c0.1,1.3-1.9,1.4-2.8,1.8c0.2,0.3,0.4,0.1,0.6,0.2c-0.6,0.5-1.7,1.6-2.4,1
			c0.3-0.5,1,0.1,0.9-0.5c-0.3,0.1-0.4-0.1-0.6-0.1c-0.3,0.5-0.7,1.1-1.1,1.5c-0.2,0.2-0.4,0.5-0.7,0.7c-0.2,0.2-0.5,0.4-0.7,0.7
			c-0.9,0.8-1.9,1.5-2.5,2c-0.4,0.3-0.2,0.9-0.4,1.1c-0.5,0.4-1.4,0.2-2,1.2c0.1-0.2-0.2,0.2-0.6,0.6c-0.1,0.2-1.4,2-2.2,1.9
			c-0.4-0.2,0.9-1.4,0.3-1.1c-0.5,0.6-0.5,0.9-1.1,1.2c0.4,0.2,0.3,0.6,0.1,0.8c-0.2,0.3-0.6,0.5-0.8,0.5c0.1-0.3,0.3-0.7,0.5-1
			c0.2-0.3,0.2-0.7,0.1-1c-0.2,0.3-0.4,0.6-0.6,1c-0.2,0.4-0.4,0.7-0.7,1c-0.5,0.6-1,0.9-1.5,0.3c0.1,0.1-0.1,0.4-0.3,0.3
			c0.2-0.9-0.3-0.9-0.1-1.7c-0.2,0.8-0.5,1.3-0.9,1.8c-0.4,0.5-0.8,0.9-1.3,1.4c-0.4,0.4-0.8,0.9-1.1,1.4c-0.1,0.3-0.3,0.6-0.3,0.9
			c-0.1,0.3-0.1,0.7,0,1.1c-0.3-0.1-0.2-0.4-0.4-0.6c-0.4,0.5,0.1,0.8-0.6,1.4c-0.2-0.2-0.4,0-0.7-0.2c-0.3,0.5-0.6,1-0.6,1.4
			c0.5-0.8,1-1,1.5-0.8c-0.5,0.5-0.7,1-0.9,1.5c-0.2,0.5-0.5,0.9-1.2,1.2c0.6-0.6-0.1-0.8,0.5-1.4c-0.5,0-1-0.5-1.3,0.2
			c0.2,0.2,0.6,0.3,0.5,0.5c-0.3-0.3-0.9,0.2-1.4,0.8c-0.3,0.3-0.6,0.7-0.8,1c-0.3,0.3-0.5,0.7-0.6,1c0.4,0.5,0.7-0.2,1.1,0.1
			c-0.3,0.1-0.5,0.6-0.8,1c-0.1-0.6-0.2-0.4-0.8-0.7c-0.5,0.5,0.3,0.5,0,1c-0.6-0.3-0.9,0.8-1.4,0.7c0,0.5-0.1,0.8-0.3,0.9
			c-0.2,0.1-0.4,0-0.6-0.1c0,0.9-0.2,1.2,0,1.9c-0.5,0.2-0.2-0.1-0.6-0.3c-0.3,0.9-0.3,0.8-0.8,1.3c0,0.4,0.2,0.7,0.3,1.1
			c-0.5,0.2-0.5,0.8-0.6,0c-0.6,1-0.6,1.9-0.5,2.6c0.1,0.4,0.1,0.7,0.1,1c0,0.3,0,0.6-0.2,0.8c1.1,0.6,0.3,1.3-0.4,1.9
			c0.3,0.4,0.8-0.3,0.6,0.2c-0.6,0.4-0.7,0.9-0.8,1.7c-0.6,0-0.4-0.5-0.7-0.7c0.1,0.5-0.4,1.1-0.2,1.3c0.2-0.3,0.4-0.4,0.7-0.4
			c-0.2,0.5,0.1,0.7-0.2,1.3c-0.2-0.1-0.3-0.1-0.5-0.2c0.1,0.5,0,1,0,1.5c0,0.2-0.1,0.5-0.2,0.7c-0.1,0.2-0.1,0.5-0.2,0.7
			c-0.3,0.9-0.5,1.7-0.2,2.2c0,0.7-0.5,0.3-0.7,0.7c0.2,0.1,0.4,0,0.6-0.1c0.1,0.2,0,0.4-0.1,0.7c-0.1,0.3-0.3,0.6-0.4,0.8
			c-0.3,0.5-0.4,0.7,0.2,0.2c-0.3,1-1,1.1-0.8,1.8c0.2-0.5,0.6-0.4,0.5,0.1c-0.2-0.3-0.5-0.3-0.6,0.3c0.2,0.3,0.2,0.7,0.3,1.1
			c-0.4-0.6-0.5,0.9-0.4,1.2c0.1-0.2,0.1-0.4,0.2-0.4c0,0.4,0.1,1.6-0.3,1.9c-0.2-0.2,0.1-0.8-0.2-0.9c-0.4,0.7,0.1,1,0.1,1.7
			C9.8,78,9.9,78.5,10,79c0.1,0.5,0.2,1-0.5,1.1c0.4-0.8,0.1-1.5-0.1-2.2c-0.2-0.7-0.3-1.2,0.5-1.6c-0.9-0.2-0.3-0.8-0.4-1.8
			C9,74.7,9.2,74.1,9,74c-0.3,1,0.1,0.6,0.2,0.9c-0.2,0.2-0.2,0.8-0.6,0.5c0-0.3,0.1-0.6-0.1-0.7c0,0.9-0.3,1.3-0.8,1.4
			c0.1,0.6,0,1.1-0.1,1.7c-0.1,0.6-0.3,1.4-0.3,2.6c0.2,0.4,0.6-0.2,0.6,0.5c-0.1,0.3-0.2,0.7-0.3,1c-0.1,0.3-0.1,0.7-0.1,1
			c0,0.7,0,1.3,0.1,2c0.1,1.3,0.4,2.5,0.1,3.5c0.5,0.4,1-0.4,1,0.7c-0.3,0.5-0.6,0.4-1,0.2c0.2,0.5,0.2,0.9,0.2,1.4
			c0,0.4-0.1,0.8-0.1,1.3c-0.1,0.8-0.3,1.7-0.2,2.8c0.7,0.4,0.8,1.4,0.9,2.4c0,1,0.1,2.1,0.7,2.7c-0.2-0.5-0.3-1-0.3-1.5
			c0-0.5,0.1-1,0.4-1.2c0.3,0.4,0.6,1.2,0.6,1.8c0,0.7-0.1,1.2-0.7,1.1c0.7,1.1-0.4,2.2,0.6,2.5c-0.5,0.2-0.7,0.9-0.6,1.7
			c0.1,0.8,0.3,1.7,0.6,2.4c-0.1-0.2-0.1,0.3,0,0.9c0.3,1.4,0.7,2.9,1.1,4.4l0,0.1l0,0.2l0.1,0.3c0.1,0.2,0.1,0.5,0.2,0.7
			c0.1,0.4,0.3,0.9,0.5,1.3c0.3,0.9,0.7,1.7,1.1,2.4c-0.1,0.1-0.3,0.1-0.4,0.2c0,0-0.1,0.1-0.1,0.2c0,0,0,0.1,0,0.1
			c0.4-0.1,0.8-0.3,0.9,0c-0.3,0.2-0.6-0.1-0.5,0.3c0.3,0,0.6,0.2,0.3,0.4c0.3,0.1,0.4-0.3,0.5-0.1c0,0.2,0,0.4-0.2,0.5
			c-0.3,0.1-0.2-0.2-0.6,0c0.2,0.1,0.3,0.2,0.4,0.3c0,0.1,0.1,0.1,0.1,0.2c0,0,0.1,0.1,0.1,0.1l0,0l0,0.2l0,0.2h0
			c0.2,0.6,0.3,0.7,0.4,0.8l0-0.1c0,0,0,0,0,0c0,0,0.1,0.1,0.1,0.1c0.1,0,0.2-0.1,0.2-0.2c0,0,0-0.1,0-0.1l0,0l0,0
			c-0.1-0.3-0.2-0.7-0.3-1l0,0l0,0c0-0.1,0-0.2,0.3-0.4c0.1,0,0.2,0.1,0.3,0.1l0.1,0l0,0.1l0,0.1h0c0.7,1.8,0.2,0.5,0.3,0.9l0,0l0,0
			l0.2,0.2c0.2,0.2,0.4,0.5,0.6,0.7c0.4,0.5,0.7,1,1.1,1.5c0.3,0.5,0.6,1,1,1.5c0.3,0.5,0.6,1.1,0.9,1.6c0.3,0.5,0.6,1.1,0.8,1.6
			c0.3,0.5,0.6,1.1,0.9,1.6c0.3,0.5,0.6,1.1,0.9,1.6c0.1,0.3,0.3,0.5,0.4,0.8c0.2,0.2,0.3,0.5,0.5,0.7c-0.3,0.4-0.9-1-0.7-0.3
			c1.4,1.5,2,1.6,2.1,3.3c0.4,0.6,0.9,0.3,1.4,0.6c0,0.4,0.6,0.9,1,1.4c0.2,0.3,0.5,0.6,0.6,0.8c0.1,0.3,0.2,0.6,0.1,0.9
			c0.6-0.3,0.5,0.9,1.2,0.9c-0.5,0.4-0.2,0.6,0.2,0.6c-0.7,0.7,0.5,1,0.2,1.7c0.7-0.1,0.9,0.4,1.1,1.2c0.5,0.2,0.2-0.5,0.5-0.2
			c0.2,0.5,0.6,0.9,1,1.3c0.4,0.4,0.7,0.8,0.4,1.4c1-0.1,2.5,2.1,2.5,3c0.8-0.6,2.2,1.2,1.9,1.5c0.8,0.2,1.7,0.5,2.6,0.8
			c-0.2,0.1-0.5,0.1-0.8,0.2c0.6,0.7,1.3,1.2,2,1.8c0.7,0.5,1.4,1,2.1,1.6c0.4,0.3,0.7,0.5,1.1,0.8c0.4,0.3,0.7,0.6,1.1,0.9
			c0.4,0.3,0.8,0.6,1.2,1c0.4,0.4,0.8,0.7,1.2,1.2c0.2-0.2,0.4-0.3,0.6-0.2c0.2,0.9,1.3,1.4,2.2,1.8c0.9,0.4,1.6,0.8,1.1,1.6
			c0.9,0.5,0.4-0.5,1.1-0.3c0.5,0.3,0.9,0.6,1.4,0.9c0.4,0.2,0.9,0.4,1.2,0.6c0.8,0.4,1.4,0.8,1.8,1.4c1.3,0.2,1.8,0.6,3.3,0.9
			c-0.1,0.4-0.6-0.1-0.8,0.2c0.4,0.2,0.8,0.3,1.2,0.5c0.4,0.1,0.7,0.2,1,0.4c0.6,0.3,1.1,0.6,1.6,1.3
			C62.2,166.6,62.5,166.6,62.8,166.6z M112,34.5c0.2,0,0.4,0,0.7,0.1c0,0,0,0,0.1,0c0,0,0,0,0.1,0C112.4,34.5,112.2,34.5,112,34.5z
			 M112.1,34.4c0.1,0,0.2,0,0.4,0l0,0C112.3,34.4,112.2,34.4,112.1,34.4z M111.7,34.4C111.7,34.3,111.6,34.3,111.7,34.4
			c0-0.1,0.1-0.1,0.1-0.1C111.8,34.3,111.7,34.3,111.7,34.4z M109.5,33.7c0.1,0,0.2,0,0.2-0.1c0,0,0,0,0,0
			C109.6,33.7,109.6,33.7,109.5,33.7z M105.1,31.8c-0.7-0.4-1.3-0.6-2.2-0.6c0,0,0,0,0,0c0,0,0,0.1,0,0.1
			C103.8,31.3,104.5,31.5,105.1,31.8c0,0,0.1,0.1,0.1,0.1C105.2,31.9,105.2,31.9,105.1,31.8C105.2,31.9,105.2,31.8,105.1,31.8z
			 M72.7,31.9c0-0.2,0-0.3-0.1-0.5c0,0,0,0,0,0C72.6,31.6,72.7,31.8,72.7,31.9z M113.4,28.5c0,0,0.1,0,0.2,0l0,0
			C113.5,28.5,113.4,28.5,113.4,28.5z M113.8,29.3C113.8,29.3,113.8,29.3,113.8,29.3c0.3,0.1,0.4,0.1,0.4,0
			C114.2,29.4,114.1,29.4,113.8,29.3z M110.7,28.1C110.8,28.1,110.8,28.2,110.7,28.1C110.8,28.2,110.7,28.1,110.7,28.1
			C110.7,28.1,110.7,28.1,110.7,28.1z M113.3,28.9c-0.3,0-0.5-0.1-0.7-0.2c-0.1,0-0.2-0.1-0.3-0.1c-0.1,0-0.2-0.1-0.3-0.2
			c0.1,0,0.2,0.1,0.3,0.1c0.1,0,0.2,0.1,0.3,0.2C112.8,28.8,113,28.9,113.3,28.9c0.1,0.1,0.7,0.3,0.6,0.3
			C113.9,29.2,113.4,29,113.3,28.9z M112.4,28.1c0,0,0.2,0,0.3,0C112.6,28.1,112.4,28,112.4,28.1z M110.8,28c0,0-0.1,0-0.1,0.1
			c0,0,0,0,0,0c-0.1-0.1-0.1-0.2,0-0.2c0,0,0,0,0,0C110.7,27.8,110.8,28,110.8,28z M107.7,27.3C107.7,27.3,107.7,27.3,107.7,27.3
			c0,0,0.1-0.1,0.1-0.1C107.7,27.3,107.7,27.3,107.7,27.3z M93.8,27.4L93.8,27.4C93.8,27.4,93.8,27.4,93.8,27.4L93.8,27.4
			C93.8,27.4,93.8,27.4,93.8,27.4z M92.5,27.9c-0.1,0-0.2,0-0.4,0c-0.2,0-0.2-0.1-0.2-0.1c0,0,0,0.1,0.2,0.1
			C92.2,27.9,92.3,27.9,92.5,27.9c0.3-0.1,0.3-0.1,0.3-0.2C92.8,27.8,92.7,27.8,92.5,27.9z M86.7,28.6c0.3,0,0.8-0.1,0.8,0
			C87.4,28.5,87,28.6,86.7,28.6C86.7,28.6,86.7,28.6,86.7,28.6z M112.9,28.5C112.9,28.5,112.9,28.5,112.9,28.5
			c0.3,0,0.5,0.3,0.8,0.2c0,0,0,0,0,0C113.4,28.8,113.3,28.5,112.9,28.5z M93.9,27.5C93.9,27.5,93.9,27.5,93.9,27.5
			c-0.3,0.1-0.5,0-0.8,0c-0.3,0.1-0.3,0.1-0.3,0.2c0,0,0.1-0.1,0.3-0.2C93.5,27.6,93.6,27.6,93.9,27.5z M92.1,27.7
			C92.1,27.7,92.1,27.7,92.1,27.7c-0.3-0.1-0.7,0-1-0.1c-0.1,0-0.1,0-0.1,0.1c0,0,0,0,0.1-0.1C91.5,27.6,91.8,27.5,92.1,27.7z
			 M91.1,27.7C91.1,27.7,91.1,27.7,91.1,27.7c-0.6,0.1-1.3-0.2-2.1,0.2C89.7,27.5,90.4,27.7,91.1,27.7z M106.3,30.5
			C106.3,30.5,106.3,30.5,106.3,30.5c0,0.6-0.6,0.1-1,0.2c0,0,0,0,0,0C105.6,30.6,106.3,31.1,106.3,30.5z M87.2,27.7
			c0-0.1,0-0.1,0-0.2c0,0,0,0,0,0C87.3,27.5,87.3,27.6,87.2,27.7z M103.5,30.8c0.3-0.1,1-0.3,1,0.2
			C104.4,30.5,103.8,30.7,103.5,30.8z M104,31.4c-0.5,0-1-0.3-1.1,0.1C103,30.9,103.5,31.3,104,31.4z M105.4,31.1
			c0,0.2-0.3,0.3-0.3,0.5C105.2,31.3,105.4,31.3,105.4,31.1z M73.9,32c-0.3-0.1-1,0-1,0.1c0,0,0,0,0,0C72.9,32,73.7,31.9,73.9,32
			C74,32,73.9,32,73.9,32z M72.5,32.6c0.2-0.1,0.5-0.1,0.7-0.2c0.4-0.1,0.7-0.3,1.1-0.4c0,0,0-0.1,0-0.1h0c0,0,0,0.1,0,0.1
			c0,0,0.1,0,0.1,0c0,0,0,0,0,0.1c0.3-0.1,0.6-0.1,0.8-0.2c0,0,0,0,0,0c0.2-0.1,0.5-0.1,0.7-0.2c1.4-0.3,2.8-0.6,4.3-0.8
			c2.8-0.4,5.7-0.6,8.7-0.6c0.5,0,1.1,0,1.6,0c0.3,0,0.6,0,0.9,0c3.5,0.1,6.9,0.6,10.2,1.3c0.1,0,0.3,0.1,0.4,0.1c0,0,0,0,0,0
			c0.3,0.1,0.7,0.2,1,0.2c0.3,0.1,0.6,0.2,0.9,0.2c0.1,0,0.2,0.1,0.3,0.1c1,0.3,2,0.6,2.9,0.9c0.1,0,0.2,0.1,0.3,0.1
			c0.5,0.2,0.9,0.3,1.4,0.5c0,0,0,0,0,0c0.4,0.1,0.7,0.3,1.1,0.4c0,0,0,0,0,0c0,0,0,0,0,0c0.3,0.1,0.8,0.3,1.1,0.4h0c0,0,0,0,0,0
			c0.1,0,0.1,0,0.2,0c-0.1,0-0.1,0-0.2,0c0.3,0.1,0.7,0.3,1,0.4c0,0,0,0,0,0c0.1,0.1,0.2,0.1,0.4,0.2c0.1,0,0.2,0.1,0.3,0.1
			c4.8,2.1,9.3,4.9,13.3,8.1c0.1,0.1,0.2,0.1,0.3,0.2c0.1,0,0.1,0.1,0.2,0.1c0,0,0.1,0.1,0.1,0.1c0,0,0,0,0.1,0
			c10,8.3,17.2,19.9,20,33c0.4,2,0.7,4,1,6c0.2,2.1,0.3,4.2,0.3,6.4c0,18.6-8.6,35.1-21.9,45.9c0,0-0.1,0.1-0.1,0.1
			c-0.4,0.3-0.7,0.6-1.1,0.8c-0.2,0.1-0.4,0.3-0.6,0.4c0,0-0.1,0.1-0.1,0.1c-0.2,0.2-0.4,0.3-0.6,0.4c-0.2,0.1-0.4,0.3-0.6,0.4
			c-0.2,0.2-0.4,0.3-0.7,0.5c-1.2,0.8-2.5,1.6-3.7,2.4c-0.6,0.3-1.2,0.7-1.8,1c-2.8,1.5-5.7,2.8-8.7,3.8c0,0-0.1,0-0.1,0
			c-1.5,0.5-3,1-4.5,1.3c0,0-0.1,0-0.1,0c-0.5,0.1-1,0.2-1.5,0.3c-4.2,0.9-8.5,1.4-13,1.4c-32.6,0-59.1-26.5-59.1-59.1
			c0-19.6,9.5-37,24.2-47.7c1.9-1.4,3.9-2.7,6-3.9C64.1,35.6,68.2,33.9,72.5,32.6z M21.8,116.4C21.7,116.3,21.7,116.3,21.8,116.4
			C21.8,116.4,21.8,116.4,21.8,116.4z M21.4,116.6c-0.1-0.3-0.2-0.6-0.3-0.8c0,0,0,0,0,0C21.3,116,21.3,116.3,21.4,116.6L21.4,116.6
			L21.4,116.6z M69.8,17.3L69.8,17.3c0.4-0.2,0.6-0.2,0.9-0.3c0.3-0.1,0.5-0.2,0.7-0.3c0.1-0.1,0.2-0.1,0.3-0.2c0,0,0,0,0.1-0.1
			c0,0,0,0-0.1,0.1c-0.1,0.1-0.2,0.2-0.3,0.2c-0.2,0.1-0.5,0.2-0.7,0.3C70.4,17.1,70.2,17.2,69.8,17.3L69.8,17.3L69.8,17.3
			L69.8,17.3L69.8,17.3L69.8,17.3L69.8,17.3L69.8,17.3z M68.7,18.4c0.1,0,0.2,0,0.3,0c0,0,0.1,0,0.1,0l0,0c0.4-0.1,0.6-0.2,0.8-0.3
			c0,0,0,0,0.1,0l0,0c0,0,0,0-0.1,0c0,0,0.1,0,0.1,0c0,0-0.1,0-0.1,0c-0.1,0-0.4,0.1-0.8,0.3l0,0c0,0-0.1,0-0.1,0
			C68.9,18.4,68.8,18.4,68.7,18.4c-0.4,0-0.6,0-0.8-0.1c0,0,0,0,0,0C68,18.4,68.3,18.4,68.7,18.4z M70.4,18c-0.1,0-0.2,0-0.3,0
			C70.1,18,70.2,18,70.4,18c0.3-0.1,0.5-0.2,0.5-0.3C70.8,17.8,70.6,17.9,70.4,18z M70.6,17.3c0.6-0.1,0.7-0.3,1.4-0.3
			c0-0.3,0.3-0.4,0.3-0.7c0,0.3-0.3,0.4-0.3,0.7C71.4,17.1,71.3,17.2,70.6,17.3C70.6,17.3,70.6,17.3,70.6,17.3z M70.5,15.9
			C70.5,15.9,70.5,15.9,70.5,15.9c-0.1,0-0.2-0.2-0.3-0.5h0C70.3,15.7,70.4,15.9,70.5,15.9z M70.1,15.1
			C70.2,15.1,70.2,15.1,70.1,15.1C70.2,15.1,70.2,15.1,70.1,15.1c-0.3,0-0.6,0-0.8,0l-0.2,0l0,0c0,0,0.1,0,0,0l0-0.1l0,0.1l0.2,0
			C69.6,15.1,69.9,15.1,70.1,15.1z M69,15.2C69,15.2,69,15.2,69,15.2C69,15.2,69,15.2,69,15.2z M70.9,14.9c0,0.1,0,0.1,0,0.2
			C71,15,71,14.9,70.9,14.9c-0.2-0.1-0.5-0.1-0.7-0.1c-0.1,0-0.1,0.1-0.1,0.2c0-0.1,0-0.2,0.1-0.2C70.5,14.7,70.7,14.8,70.9,14.9z
			 M69.1,14.9c0,0.2,0,0.3,0,0.3c0,0,0,0,0,0c0,0,0,0,0,0C69,15.1,69,15,69.1,14.9L69.1,14.9z M14.1,120.1L14.1,120.1L14.1,120.1
			L14.1,120.1z"/>
		<linearGradient id="SVGID_53_" gradientUnits="userSpaceOnUse" x1="41.4924" y1="150.1546" x2="41.7492" y2="150.1546">
			<stop  offset="0" style="stop-color:#E9C063"/>
			<stop  offset="0.3273" style="stop-color:#C23C47"/>
			<stop  offset="0.6485" style="stop-color:#924F93"/>
			<stop  offset="1" style="stop-color:#5B5E9F"/>
		</linearGradient>
		<path class="st52" d="M41.5,150.3c0.1-0.1,0.2-0.2,0.3-0.3C41.6,150.1,41.5,150.2,41.5,150.3z"/>
		<linearGradient id="SVGID_54_" gradientUnits="userSpaceOnUse" x1="67.962" y1="12.0646" x2="68.0473" y2="12.0646">
			<stop  offset="0" style="stop-color:#E9C063"/>
			<stop  offset="0.3273" style="stop-color:#C23C47"/>
			<stop  offset="0.6485" style="stop-color:#924F93"/>
			<stop  offset="1" style="stop-color:#5B5E9F"/>
		</linearGradient>
		<path class="st53" d="M68,12.1C68,12.1,68,12.1,68,12.1C68,12.1,68,12.1,68,12.1z"/>
		<linearGradient id="SVGID_55_" gradientUnits="userSpaceOnUse" x1="6.6938" y1="126.1581" x2="30.332" y2="126.1581">
			<stop  offset="0" style="stop-color:#E9C063"/>
			<stop  offset="0.3273" style="stop-color:#C23C47"/>
			<stop  offset="0.6485" style="stop-color:#924F93"/>
			<stop  offset="1" style="stop-color:#5B5E9F"/>
		</linearGradient>
		<path class="st54" d="M29.7,148.3c-0.7,0-2.3-1.8-2.2-2.3c0.7,0.4,1.1,0.3,1.2,1.2c0.5-0.2,0-0.5,0.2-0.8
			c-0.5-0.5-0.9-0.2-1.3-0.8c0.4-0.2,0.9,0.1,1.3,0c-0.4-0.6-0.9,0-1.3-0.5c0.1-0.4,0.8,0.1,0.5-0.4c-0.7,0-0.5-1-0.6-1.4
			c-0.7,0.7-0.6-0.9-1.3-0.8c0.6,0.4,0.4,1.2-0.2,0.9c0.2-0.7-0.4-0.8-0.6-1.7c0.1-0.1,0.1-0.3,0.2-0.4c0.6,0.8,1.2,0.1,0.3,0.1
			c-0.3-0.6-0.6-1.2-0.9-1.7c-0.3-0.6-0.5-1.1-0.7-1.5c0.1,0.3,0.1,0.5,0.1,0.7c-0.7-1,0-1.2-0.8-0.9c-0.5-0.7,0.2-1,0.2-1.6
			c-0.4,0.5-0.6-0.7-1-0.3c0.1,0.4,0.9,0.9,0.3,1.1c-0.3-0.6-0.5-0.9-0.7-1.2c-0.1-0.1-0.2-0.3-0.4-0.4c-0.1-0.2-0.3-0.3-0.5-0.5
			c0.3-0.1,0.2-0.4,0.5-0.5c0.1,0.3,0.2,0.7,0.4,0.9c0.2,0.2,0.5,0.4,0.8,0.3c-0.1-0.3-0.2-0.5-0.4-0.7c-0.1-0.2-0.3-0.3-0.4-0.5
			c-0.3-0.3-0.7-0.4-1.1-0.6c0.2-0.7-0.5-1.2-0.8-1c-0.1-0.7,0.4-0.5,0.9-0.5c-0.7-1-0.9-1.3-0.9-2.3c0.2,0.2,0.4,0,0.6,0.1
			c-0.8-0.5-0.6-0.7-0.6-1.5c-0.4-0.2-1-0.8-1.5-1.6c-0.5-0.8-0.8-1.7-0.8-2.5c-0.5-0.2-0.7-0.5-1-1c-0.3-0.5-0.5-1.1-0.9-1.9
			c-0.8,0,0.4,1.1,0,1.3c-0.6,0-1.6-1.2-1.1-2c0.4-0.2,0.2,0.9,0.7,0.4c-0.7-1-1-0.8-1.2-0.1c-0.2,0.6-0.1,1.7,0,2.2
			c-0.2-0.4-0.5-0.1-0.6-0.7c0-0.5-0.1-1-0.3-1.4c-0.1-0.2-0.2-0.4-0.4-0.6c0,0-0.1-0.1-0.1-0.1l0,0l0,0l0,0c0,0,0,0,0,0
			c0-0.1-0.2-0.4-0.3-1h0l0,0l0,0c-0.1-0.2-0.1-0.2,0,0l0,0c-0.1,0-0.2,0-0.3-0.1c0-0.2,0.2-0.3,0.5-0.3c-0.5-0.5-0.7-1-0.9-1.5
			l-0.1-0.2l0,0l0-0.1l-0.1-0.2c-0.1-0.3-0.3-0.6-0.4-0.9c-0.3-0.6-0.6-1.2-1-1.8c0.4,0.2,0.3-0.4,0.1-1c-0.2-0.6-0.6-1.2-0.8-0.7
			c0-0.1,0-0.2,0-0.3c0-0.1,0-0.2,0-0.3c0-0.2,0-0.4-0.1-0.6c-0.1-0.4-0.1-0.8-0.2-1.3c-0.1-0.4-0.2-0.9-0.3-1.3
			c-0.1-0.4-0.2-0.9-0.3-1.3c-0.2-0.9-0.5-1.8-0.8-2.6c-0.2-0.4-0.3-0.8-0.5-1.2c-0.2-0.4-0.3-0.7-0.5-1c0.1,0.3,0.1,0.6,0.2,0.9
			c0,0.3,0.1,0.7,0.1,1.1c0.1,0.7,0.2,1.4,0.7,1.8c-0.8-0.4,0.1,1,0.4,1c-0.2,0-0.3,0.1-0.5,0.1c0.2,1.2,0.5,2.3,0.8,3.5
			c0.1,0.3,0.1,0.6,0.2,0.9l0.1,0.4l0.1,0.5c0.2,0.7,0.4,1.4,0.6,2.2c0.2,0.7,0.4,1.4,0.7,2.2l0.2,0.5l0,0.1l0,0l0,0.1l0,0.1
			l0.2,0.4c0.1,0.3,0.2,0.6,0.3,0.8l0.2,0.4l0.1,0.2l0,0l0,0l0.4,1.1l0,0.1l0.1,0.2c1.7,4.4,3.6,8.6,5.5,12.2
			c0.5,0.2,0.9,1.1,1.4,1.9c0.5,0.8,1.1,1.6,1.9,1.6c0.3,1.2,0.4,1.6,1.4,2.4c-1.1,0.1,0.6,1.2-0.1,1.4c0.9,0.6,0.9,2,1.6,2
			c-0.6-1.2-1.5-1.6-1.1-2.4c0.6,1.1,1.7,2,1.6,3.1c0.2,0.2,0.4,0.4,0.7,0.6c0.3,0.2,0.5,0.4,0.8,0.7c0.5,0.5,0.9,1,0.9,1.5
			c0.7-0.4,0.6,1,1.4,1.1c0.3-0.1,0.1-0.5,0.4-0.3c0.8,0.4,0.9,1.7,1.7,1.9c-0.2-0.2-0.3-0.4,0-0.5c0.5,0.4,0.2,0.7,0.7,1.1
			C30.7,149.3,29.8,148.8,29.7,148.3z"/>
		<linearGradient id="SVGID_56_" gradientUnits="userSpaceOnUse" x1="109.39" y1="160.4716" x2="111.3727" y2="160.4716">
			<stop  offset="0" style="stop-color:#E9C063"/>
			<stop  offset="0.3273" style="stop-color:#C23C47"/>
			<stop  offset="0.6485" style="stop-color:#924F93"/>
			<stop  offset="1" style="stop-color:#5B5E9F"/>
		</linearGradient>
		<path class="st55" d="M109.4,160.6c0.3-0.1,0.8-0.1,1.3-0.1c0.1,0,0.2,0,0.3,0c0.1,0,0.2,0,0.3,0c0.1,0,0.2-0.1,0.1-0.2
			c-0.1,0-0.2,0-0.3,0c-0.1,0-0.2,0-0.3,0c-0.2,0-0.4,0-0.5-0.1C109.9,160.3,109.6,160.3,109.4,160.6z"/>
		<linearGradient id="SVGID_57_" gradientUnits="userSpaceOnUse" x1="84.4078" y1="166.4626" x2="86.0905" y2="166.4626">
			<stop  offset="0" style="stop-color:#E9C063"/>
			<stop  offset="0.3273" style="stop-color:#C23C47"/>
			<stop  offset="0.6485" style="stop-color:#924F93"/>
			<stop  offset="1" style="stop-color:#5B5E9F"/>
		</linearGradient>
		<path class="st56" d="M84.4,166.5c0.5,0.2,1.5,0.2,1.7-0.1C85.6,166.4,84.8,166.2,84.4,166.5z"/>
		<linearGradient id="SVGID_58_" gradientUnits="userSpaceOnUse" x1="69.5886" y1="163.5765" x2="71.0347" y2="163.5765">
			<stop  offset="0" style="stop-color:#E9C063"/>
			<stop  offset="0.3273" style="stop-color:#C23C47"/>
			<stop  offset="0.6485" style="stop-color:#924F93"/>
			<stop  offset="1" style="stop-color:#5B5E9F"/>
		</linearGradient>
		<path class="st57" d="M69.7,163.5c0.4,0.1,0.7-0.1,0.7,0.4c-0.1,0-0.2,0.1-0.1,0.2c0.1-0.2,0.3-0.3,0.5-0.4c0,0.1,0,0.2,0.1,0.2
			c0.2-0.5-0.2-0.6-0.7-0.8C70.4,163.8,69.2,163,69.7,163.5z"/>
		<linearGradient id="SVGID_59_" gradientUnits="userSpaceOnUse" x1="64.3531" y1="162.2879" x2="69.3178" y2="162.2879">
			<stop  offset="0" style="stop-color:#E9C063"/>
			<stop  offset="0.3273" style="stop-color:#C23C47"/>
			<stop  offset="0.6485" style="stop-color:#924F93"/>
			<stop  offset="1" style="stop-color:#5B5E9F"/>
		</linearGradient>
		<path class="st58" d="M65.6,161.3c0.1,0.1,0.3,0.1,0.3,0.3c-0.5-0.2-0.8,0.3-1.5-0.2c-0.2,0.4,0.2,0.6,0.5,0.8
			c0.8-0.1,3.8,0.3,3.7,1.4c0.3-0.2,0.6-0.2,0.8-0.5c-0.3-0.2-0.6-0.5-0.9-0.7c-0.3-0.3-0.6-0.5-0.9-0.7
			C66.9,161.2,66.2,161,65.6,161.3z"/>
		<linearGradient id="SVGID_60_" gradientUnits="userSpaceOnUse" x1="60.1956" y1="159.3809" x2="61.467" y2="159.3809">
			<stop  offset="0" style="stop-color:#E9C063"/>
			<stop  offset="0.3273" style="stop-color:#C23C47"/>
			<stop  offset="0.6485" style="stop-color:#924F93"/>
			<stop  offset="1" style="stop-color:#5B5E9F"/>
		</linearGradient>
		<path class="st59" d="M61,160.3c0.1-0.2,0.4,0,0.5-0.1c-0.3-0.3-0.3-0.7-0.3-1.1c-0.4-0.3-0.5,0.1-0.8,0c0.1-0.3,0.1-0.5-0.1-0.6
			C59.9,159.5,61.1,159.4,61,160.3z"/>
		<linearGradient id="SVGID_61_" gradientUnits="userSpaceOnUse" x1="58.8879" y1="158.6098" x2="59.8655" y2="158.6098">
			<stop  offset="0" style="stop-color:#E9C063"/>
			<stop  offset="0.3273" style="stop-color:#C23C47"/>
			<stop  offset="0.6485" style="stop-color:#924F93"/>
			<stop  offset="1" style="stop-color:#5B5E9F"/>
		</linearGradient>
		<path class="st60" d="M59.9,158.8c-0.3-0.1-0.3-0.3-0.1-0.6c-0.3-0.1-1.1,0-0.8,0.4c0.1-0.2,0.3,0,0.6,0.1
			C59.4,158.9,59.7,159.4,59.9,158.8z"/>
		<linearGradient id="SVGID_62_" gradientUnits="userSpaceOnUse" x1="50.2646" y1="154.4719" x2="53.6192" y2="154.4719">
			<stop  offset="0" style="stop-color:#E9C063"/>
			<stop  offset="0.3273" style="stop-color:#C23C47"/>
			<stop  offset="0.6485" style="stop-color:#924F93"/>
			<stop  offset="1" style="stop-color:#5B5E9F"/>
		</linearGradient>
		<path class="st61" d="M52.3,155.3c0.3,0.2,0.5,0.3,0.8,0.5c0.2-0.4,0.8,0,0.4-0.6c-0.2,0.2-0.5-0.1-0.8-0.4
			c-0.3-0.3-0.5-0.8-0.6-0.9c0.2,0.1,0.4,0.3,0.6,0.2c-0.3-0.2-0.5-0.4-0.5-0.6c-0.3,0.3-0.6,0.2-0.9,0.4c-0.2-0.4-0.4-0.9-0.9-0.6
			c0.3,0.7,0.9,1.1,1.7,1.2c-0.2,0.2-0.5-0.2-0.6,0.2c0.6,0.7,0.7-0.4,1.1,0C52.4,154.9,52.8,155.2,52.3,155.3z"/>
		<linearGradient id="SVGID_63_" gradientUnits="userSpaceOnUse" x1="48.0089" y1="152.152" x2="49.5691" y2="152.152">
			<stop  offset="0" style="stop-color:#E9C063"/>
			<stop  offset="0.3273" style="stop-color:#C23C47"/>
			<stop  offset="0.6485" style="stop-color:#924F93"/>
			<stop  offset="1" style="stop-color:#5B5E9F"/>
		</linearGradient>
		<path class="st62" d="M49.6,153c0.1-0.9-0.9-0.9-1.3-1.6c-0.3,0.5,0.9,1.1-0.2,0.9c0.2,0.2,0.4,0.3,0.6,0.5c0.2-0.4,0-0.6,0.6-0.4
			C49,152.5,49.2,152.8,49.6,153z"/>
		<linearGradient id="SVGID_64_" gradientUnits="userSpaceOnUse" x1="45.8166" y1="150.4877" x2="47.029" y2="150.4877">
			<stop  offset="0" style="stop-color:#E9C063"/>
			<stop  offset="0.3273" style="stop-color:#C23C47"/>
			<stop  offset="0.6485" style="stop-color:#924F93"/>
			<stop  offset="1" style="stop-color:#5B5E9F"/>
		</linearGradient>
		<path class="st63" d="M45.9,150.1c0.1-0.3,0.5-0.2,0.3-0.4c-0.8,0.1,0,1,0.2,1.5c0.2-0.2,0.4,0,0.6-0.2
			C47,150.7,46.3,150.7,45.9,150.1z"/>
		<linearGradient id="SVGID_65_" gradientUnits="userSpaceOnUse" x1="40.9154" y1="144.9923" x2="43.1615" y2="144.9923">
			<stop  offset="0" style="stop-color:#E9C063"/>
			<stop  offset="0.3273" style="stop-color:#C23C47"/>
			<stop  offset="0.6485" style="stop-color:#924F93"/>
			<stop  offset="1" style="stop-color:#5B5E9F"/>
		</linearGradient>
		<path class="st64" d="M43.1,145.2c-0.2,0.2-0.6,0-1-0.2c-0.4-0.3-0.6-0.6-0.4-0.9c0.2,0.1,0.3,0.4,0.5,0.3
			c-0.1-0.1-0.3-0.3-0.4-0.4c-0.4,0.1-0.3,0.4-0.9,0.3c0.9,0.5,1.1,0.9,2.1,1.8C43.3,145.8,43,145.5,43.1,145.2z"/>
		<linearGradient id="SVGID_66_" gradientUnits="userSpaceOnUse" x1="35.8551" y1="145.7815" x2="37.472" y2="145.7815">
			<stop  offset="0" style="stop-color:#E9C063"/>
			<stop  offset="0.3273" style="stop-color:#C23C47"/>
			<stop  offset="0.6485" style="stop-color:#924F93"/>
			<stop  offset="1" style="stop-color:#5B5E9F"/>
		</linearGradient>
		<path class="st65" d="M37.5,146.6c-0.4-0.7-0.9-1.5-1.6-1.7C36.7,145.5,36.9,146.3,37.5,146.6z"/>
		<linearGradient id="SVGID_67_" gradientUnits="userSpaceOnUse" x1="29.8772" y1="150.3996" x2="31.3581" y2="150.3996">
			<stop  offset="0" style="stop-color:#E9C063"/>
			<stop  offset="0.3273" style="stop-color:#C23C47"/>
			<stop  offset="0.6485" style="stop-color:#924F93"/>
			<stop  offset="1" style="stop-color:#5B5E9F"/>
		</linearGradient>
		<path class="st66" d="M31.4,150.9c-0.7-0.4,0.1-0.6-0.5-1c0.3,1.2-1,0.1-1,0.9C30.3,150.4,30.9,151.1,31.4,150.9z"/>
		<linearGradient id="SVGID_68_" gradientUnits="userSpaceOnUse" x1="35.9608" y1="143.3016" x2="37.1347" y2="143.3016">
			<stop  offset="0" style="stop-color:#E9C063"/>
			<stop  offset="0.3273" style="stop-color:#C23C47"/>
			<stop  offset="0.6485" style="stop-color:#924F93"/>
			<stop  offset="1" style="stop-color:#5B5E9F"/>
		</linearGradient>
		<path class="st67" d="M36,142.7c0.1-0.1,0.2-0.2,0.3-0.2c0.2,0.5,0.8,1.1,0.8,1.6C37.7,143.7,35.9,141.7,36,142.7z"/>
		<linearGradient id="SVGID_69_" gradientUnits="userSpaceOnUse" x1="29.433" y1="145.2456" x2="30.4251" y2="145.2456">
			<stop  offset="0" style="stop-color:#E9C063"/>
			<stop  offset="0.3273" style="stop-color:#C23C47"/>
			<stop  offset="0.6485" style="stop-color:#924F93"/>
			<stop  offset="1" style="stop-color:#5B5E9F"/>
		</linearGradient>
		<path class="st68" d="M29.5,144.7c0.9,0.3,0,1,0.3,1.4c0.2-0.1,0.4,0,0.7-0.3c-0.4-0.4-0.2-0.7-0.3-1.1
			C30,144.8,29.2,144.1,29.5,144.7z"/>
		<linearGradient id="SVGID_70_" gradientUnits="userSpaceOnUse" x1="33.5385" y1="139.2965" x2="36.2676" y2="139.2965">
			<stop  offset="0" style="stop-color:#E9C063"/>
			<stop  offset="0.3273" style="stop-color:#C23C47"/>
			<stop  offset="0.6485" style="stop-color:#924F93"/>
			<stop  offset="1" style="stop-color:#5B5E9F"/>
		</linearGradient>
		<path class="st69" d="M35.1,141.2c-0.4-0.5-1.1-1-0.5-1.4c0.3,0.4,0.6,0.2,0.6,0.7c0.4-0.5,0.3-1.1,1-0.6
			c-0.1-0.4-0.2-0.8-0.3-1.2c-0.7,0.2,0.3,0.6,0,0.8c-0.5-0.2-0.5,0-0.8,0.4c0-0.3-0.1-0.5-0.5-0.8c0.1-0.1,0.3-0.2,0.4-0.3
			c-0.8-0.7-0.8-0.5-1.2-1.5c-0.5,0.3-0.5,0.6-0.1,1c0.2,0.2,0.3-0.1,0.5,0.1c0.3,0.6-0.5,0.9,0.3,1.2c-0.2,0.2-0.3,0.2-0.5,0.2
			C34.3,140.2,34.4,141.5,35.1,141.2z"/>
		<linearGradient id="SVGID_71_" gradientUnits="userSpaceOnUse" x1="28.4443" y1="144.4033" x2="29.2128" y2="144.4033">
			<stop  offset="0" style="stop-color:#E9C063"/>
			<stop  offset="0.3273" style="stop-color:#C23C47"/>
			<stop  offset="0.6485" style="stop-color:#924F93"/>
			<stop  offset="1" style="stop-color:#5B5E9F"/>
		</linearGradient>
		<path class="st70" d="M28.4,144.2c0.5,0.4,0.5,0.5,0.7,1.1c0.4-0.4-0.5-1.7-0.5-1.7C28.7,143.8,28.7,144,28.4,144.2z"/>
		<linearGradient id="SVGID_72_" gradientUnits="userSpaceOnUse" x1="32.6123" y1="137.1829" x2="33.3564" y2="137.1829">
			<stop  offset="0" style="stop-color:#E9C063"/>
			<stop  offset="0.3273" style="stop-color:#C23C47"/>
			<stop  offset="0.6485" style="stop-color:#924F93"/>
			<stop  offset="1" style="stop-color:#5B5E9F"/>
		</linearGradient>
		<path class="st71" d="M33.3,136.9c0-0.4-0.1-0.6-0.7-0.4c0.2,0.3,0.4,0.2,0.6,0.2c-0.2,0.3-0.7,1.2,0.1,1.3
			c-0.1-0.1-0.1-0.3-0.1-0.5C33.3,137.2,33.3,137,33.3,136.9z"/>
		<linearGradient id="SVGID_73_" gradientUnits="userSpaceOnUse" x1="8.8256" y1="73.4139" x2="9.8508" y2="73.4139">
			<stop  offset="0" style="stop-color:#E9C063"/>
			<stop  offset="0.3273" style="stop-color:#C23C47"/>
			<stop  offset="0.6485" style="stop-color:#924F93"/>
			<stop  offset="1" style="stop-color:#5B5E9F"/>
		</linearGradient>
		<path class="st72" d="M9.9,73c-0.4,0.3-1.2,0.4-1,0.5C9,74.1,9.8,73.6,9.9,73z"/>
		<linearGradient id="SVGID_74_" gradientUnits="userSpaceOnUse" x1="11.8237" y1="60.664" x2="13.8411" y2="60.664">
			<stop  offset="0" style="stop-color:#E9C063"/>
			<stop  offset="0.3273" style="stop-color:#C23C47"/>
			<stop  offset="0.6485" style="stop-color:#924F93"/>
			<stop  offset="1" style="stop-color:#5B5E9F"/>
		</linearGradient>
		<path class="st73" d="M13.2,61.4c0.3-0.8,0.9-1.3,0.5-1.9c-0.3,0.3-0.9,1.2-1.1,0.5c0.1,0.3-0.2,0.8-0.4,1.2
			c-0.3,0.4-0.5,0.7-0.2,0.6C12.3,61.4,13.1,60.3,13.2,61.4z"/>
		<linearGradient id="SVGID_75_" gradientUnits="userSpaceOnUse" x1="24.2681" y1="35.7415" x2="25.3163" y2="35.7415">
			<stop  offset="0" style="stop-color:#E9C063"/>
			<stop  offset="0.3273" style="stop-color:#C23C47"/>
			<stop  offset="0.6485" style="stop-color:#924F93"/>
			<stop  offset="1" style="stop-color:#5B5E9F"/>
		</linearGradient>
		<path class="st74" d="M24.8,36.5c0.2-0.3,0.5-0.3,0.4-0.5c-0.7,0.4,0.3-0.8,0.1-1c-0.5,0.3-1.3,1.5-0.9,1.5
			C24.9,35.7,24.7,36.1,24.8,36.5z"/>
		<linearGradient id="SVGID_76_" gradientUnits="userSpaceOnUse" x1="43.4956" y1="18.8264" x2="46.2969" y2="18.8264">
			<stop  offset="0" style="stop-color:#E9C063"/>
			<stop  offset="0.3273" style="stop-color:#C23C47"/>
			<stop  offset="0.6485" style="stop-color:#924F93"/>
			<stop  offset="1" style="stop-color:#5B5E9F"/>
		</linearGradient>
		<path class="st75" d="M45.3,18.9c-0.3,0-0.8,0.3-1,0.1c0.4-0.3,1.1-0.5,1.5-0.7c0.5-0.2,0.7-0.3,0.3-0.6c-0.1,0.5-1.2,0.6-1.6,0.5
			c0,0.5-1.4,2.1-0.9,1.7C44.2,19,45.2,19.4,45.3,18.9z"/>
		<linearGradient id="SVGID_77_" gradientUnits="userSpaceOnUse" x1="49.2104" y1="16.773" x2="50.2966" y2="16.773">
			<stop  offset="0" style="stop-color:#E9C063"/>
			<stop  offset="0.3273" style="stop-color:#C23C47"/>
			<stop  offset="0.6485" style="stop-color:#924F93"/>
			<stop  offset="1" style="stop-color:#5B5E9F"/>
		</linearGradient>
		<path class="st76" d="M50.3,17.4c-0.3-0.7,0.1-1.8-0.9-1.9c0.2,0.3-0.1,0.4-0.1,0.7c0.8,0,1.1,1-0.1,1.5
			C49.3,18.3,49.9,17.6,50.3,17.4z"/>
		<linearGradient id="SVGID_78_" gradientUnits="userSpaceOnUse" x1="52.1333" y1="13.5015" x2="55.4433" y2="13.5015">
			<stop  offset="0" style="stop-color:#E9C063"/>
			<stop  offset="0.3273" style="stop-color:#C23C47"/>
			<stop  offset="0.6485" style="stop-color:#924F93"/>
			<stop  offset="1" style="stop-color:#5B5E9F"/>
		</linearGradient>
		<path class="st77" d="M52.5,14l0.8-0.4c0.1,0.2,0.3,0.5,0.4,0.8c0.4-0.8,1.6-1.2,0.9-1.6c0.4,0.1,0.9-0.3,0.9-0.6
			c-0.8,0.3-1.2,0.6-1.6,0.9c-0.2,0.1-0.4,0.3-0.6,0.4c-0.2,0.1-0.5,0.2-0.8,0.3c0.1,0.2,0.1,0.4-0.2,0.5c0.8,0.1,0.4,1,1.2,0.7
			C53.6,14.6,52.6,14.5,52.5,14z"/>
		<linearGradient id="SVGID_79_" gradientUnits="userSpaceOnUse" x1="56.9466" y1="3.3734" x2="58.8379" y2="3.3734">
			<stop  offset="0" style="stop-color:#E9C063"/>
			<stop  offset="0.3273" style="stop-color:#C23C47"/>
			<stop  offset="0.6485" style="stop-color:#924F93"/>
			<stop  offset="1" style="stop-color:#5B5E9F"/>
		</linearGradient>
		<path class="st78" d="M58.8,3.3c-0.5-0.1-1.4,0.6-1.4-0.3c-0.8,0.4-0.5,0.6,0,0.7C58,3.8,58.7,3.7,58.8,3.3z"/>
		<linearGradient id="SVGID_80_" gradientUnits="userSpaceOnUse" x1="68.6018" y1="9.24" x2="69.4132" y2="9.24">
			<stop  offset="0" style="stop-color:#E9C063"/>
			<stop  offset="0.3273" style="stop-color:#C23C47"/>
			<stop  offset="0.6485" style="stop-color:#924F93"/>
			<stop  offset="1" style="stop-color:#5B5E9F"/>
		</linearGradient>
		<path class="st79" d="M69.4,9.3c-0.1,0-0.3-0.1-0.4-0.2C68,9.7,69.2,9.4,69.4,9.3z"/>
		<linearGradient id="SVGID_81_" gradientUnits="userSpaceOnUse" x1="68.7827" y1="7.8824" x2="72.2944" y2="7.8824">
			<stop  offset="0" style="stop-color:#E9C063"/>
			<stop  offset="0.3273" style="stop-color:#C23C47"/>
			<stop  offset="0.6485" style="stop-color:#924F93"/>
			<stop  offset="1" style="stop-color:#5B5E9F"/>
		</linearGradient>
		<path class="st80" d="M72.2,6.8c-0.3,0.3-1.2,0.6-1.6,0.4c-0.2,0.5,0.3,0.5,0,0.7c-0.2-0.2-0.6-0.3-1-0.2c-0.1,0-0.2,0-0.3,0.1
			l-0.2,0c0,0,0,0-0.1,0c-0.1,0-0.2,0.1-0.2,0.1c0.1,0.2,0.3,0.3,0.4,0.4c0.1,0.1,0.1,0.1,0.1,0.2c0,0.1,0,0.2,0,0.3l0.1,0l0,0
			l0.1,0c0.1,0,0.2,0,0.2-0.1c0.2,0,0.3-0.1,0.4-0.1c0.3-0.1,0.5-0.2,0.8-0.3c0.5-0.2,0.9-0.4,1.3-0.7C71.2,7.4,72.7,6.9,72.2,6.8z"
			/>
		<linearGradient id="SVGID_82_" gradientUnits="userSpaceOnUse" x1="72.2986" y1="9.0257" x2="72.445" y2="9.0257">
			<stop  offset="0" style="stop-color:#E9C063"/>
			<stop  offset="0.3273" style="stop-color:#C23C47"/>
			<stop  offset="0.6485" style="stop-color:#924F93"/>
			<stop  offset="1" style="stop-color:#5B5E9F"/>
		</linearGradient>
		<path class="st81" d="M72.3,9.1c0-0.1,0.1-0.1,0.1-0.2C72.4,9,72.3,9,72.3,9.1z"/>
		<linearGradient id="SVGID_83_" gradientUnits="userSpaceOnUse" x1="90.5836" y1="20.6081" x2="105.1379" y2="20.6081">
			<stop  offset="0" style="stop-color:#E9C063"/>
			<stop  offset="0.3273" style="stop-color:#C23C47"/>
			<stop  offset="0.6485" style="stop-color:#924F93"/>
			<stop  offset="1" style="stop-color:#5B5E9F"/>
		</linearGradient>
		<path class="st82" d="M102.6,22.4c1.1,0.1,1.5-0.4,2.5-0.7c-0.7,0-1.6-0.3-0.8-0.6c-0.4-0.2-1-0.4-1.2,0c-0.6-0.4-0.9-1.6-1.7-1.3
			c0-0.3,0.1-0.5,0.2-0.7c-0.6,0.1-0.8,0.5-1.3,0.8c-0.3-0.1-0.1-0.7-0.7-0.6c-0.2,0.5-1.3,0.6-2.3,0.5c-0.5-0.1-1-0.2-1.3-0.3
			c-0.3-0.2-0.5-0.4-0.3-0.6c-0.8,0.1-1.7,0-2.6,0c-0.8,0-1.6,0.1-2.1,0.7c0.2,0.1,0.4,0.2,0.6,0.3c-0.2,0.3-1.1,0.1-1,0.6
			c0.6-0.1,1.3-0.2,2-0.2c0.7,0,1.4,0,2.1,0c0.4,0,0.7,0,1,0c0.3,0,0.7,0,1,0c0.6,0,1.3,0.1,1.8,0.1c-0.1,0.2-0.2,0.4-0.4,0.5
			c-0.5,0-0.9-0.7-1.1,0c0.5,0,0.8,0.2,1.2,0.4c0.2-0.5,0.7-0.6,1.2-0.6c0.5,0,1,0.1,1.3-0.1c-0.2,0.2-0.3,0.6-0.1,0.9
			c0.7-0.1,1.7,0.1,2.2,0.7C102.9,22.2,102.7,22.2,102.6,22.4z"/>
		<linearGradient id="SVGID_84_" gradientUnits="userSpaceOnUse" x1="95.097" y1="12.3525" x2="98.4456" y2="12.3525">
			<stop  offset="0" style="stop-color:#E9C063"/>
			<stop  offset="0.3273" style="stop-color:#C23C47"/>
			<stop  offset="0.6485" style="stop-color:#924F93"/>
			<stop  offset="1" style="stop-color:#5B5E9F"/>
		</linearGradient>
		<path class="st83" d="M95.7,12.5c-0.3,0-0.5,0.1-0.6,0.4c1.2-0.3,1.8-0.1,2.9-0.3c-1.3,0,0.1-0.5,0.4-0.7c-0.5,0.2-1,0.3-1.4,0.4
			c-0.5,0.1-1,0-1.5-0.3C95.5,12.2,95.6,12.4,95.7,12.5z"/>
		<linearGradient id="SVGID_85_" gradientUnits="userSpaceOnUse" x1="100.5647" y1="12.5974" x2="101.3768" y2="12.5974">
			<stop  offset="0" style="stop-color:#E9C063"/>
			<stop  offset="0.3273" style="stop-color:#C23C47"/>
			<stop  offset="0.6485" style="stop-color:#924F93"/>
			<stop  offset="1" style="stop-color:#5B5E9F"/>
		</linearGradient>
		<path class="st84" d="M100.8,12.3c0.6,0.1-0.3,0.2-0.2,0.5c0.3,0,0.6,0.1,0.8,0.2C101.6,12.5,100.5,11.8,100.8,12.3z"/>
		<linearGradient id="SVGID_86_" gradientUnits="userSpaceOnUse" x1="102.0493" y1="8.6587" x2="104.4873" y2="8.6587">
			<stop  offset="0" style="stop-color:#E9C063"/>
			<stop  offset="0.3273" style="stop-color:#C23C47"/>
			<stop  offset="0.6485" style="stop-color:#924F93"/>
			<stop  offset="1" style="stop-color:#5B5E9F"/>
		</linearGradient>
		<path class="st85" d="M102.1,8.5c0.5,0.1,1.2,0.1,2,0.3c0,0.3-0.1,0.6,0.4,0.6c0.3-1.2-1.9-0.6-2.2-1.4c0,0.1,0,0.2,0,0.3
			C102.1,8.3,102,8.3,102.1,8.5z"/>
		<linearGradient id="SVGID_87_" gradientUnits="userSpaceOnUse" x1="108.0462" y1="20.6015" x2="123.7227" y2="20.6015">
			<stop  offset="0" style="stop-color:#E9C063"/>
			<stop  offset="0.3273" style="stop-color:#C23C47"/>
			<stop  offset="0.6485" style="stop-color:#924F93"/>
			<stop  offset="1" style="stop-color:#5B5E9F"/>
		</linearGradient>
		<path class="st86" d="M115.9,16.5c-0.4,0-0.7,0.1-1.1,0.2c-0.4,0.1-0.8,0.1-1.3-0.1c-0.2,0.4,0.3,0.4,0,0.9
			c-0.5-0.2-0.9-0.2-1.2,0.1c1.1,0.3,1.4-0.5,2.4-0.3c-0.3,0.6,0.2,0.9,0.6,0.7c0.4-0.5-0.6-0.3-0.4-0.6c0.3,0.1,0.3-0.4,0.6-0.2
			c-0.6,0.8,1.5,0.4,1.8,1.2c-0.1,0.3-0.3,0.5-0.6,0.6c-1.3-0.6-0.8,0.1-1.4,0.3c-0.6-0.1-0.4-0.6-0.8-0.7c-0.3,0.8-1.3,0.6-2,0.2
			c-0.8,0.1-1.6,0.5-2.4,0.8c-0.8,0.4-1.5,0.7-2.2,0.7c0.6,0.2,1.3,0.2,1.9,0.3c0.6,0.1,1.1,0.3,1.3,1c-0.6,0.3-0.9-0.3-1.6-0.3
			c0,0.5-0.4,0.3-0.5,0.6c0.6-0.1,3.1,0.4,2.1,1.3c0.7,0,0.8,0.5,1.2,0.3c0.4-0.6-0.9-0.2-0.7-0.7c1.3-0.2,1.6-0.9,2.6-1.1
			c-0.6-0.3-1-0.2-1.4-0.1c-0.4,0.1-0.7,0.3-1,0.1c1.4-0.8,3.4-0.3,5.2,0.5c0.9,0.4,1.9,0.9,2.8,1.4c0.9,0.4,1.7,0.8,2.5,1
			c-0.3-0.1,0.9-0.2,1.2,0.3c-0.1-1.2-1.9-2.2-2.3-3.6c-0.7-0.3-1.2-0.8-1.3-1.4c-0.3-0.1-0.6-0.1-0.8-0.1c0-0.4-0.2-0.7-0.6-1
			c-0.2-0.2-0.4-0.3-0.6-0.4c-0.2-0.1-0.5-0.3-0.7-0.4C116.4,17.3,115.5,16.9,115.9,16.5z"/>
		<linearGradient id="SVGID_88_" gradientUnits="userSpaceOnUse" x1="116.5988" y1="25.5445" x2="119.2894" y2="25.5445">
			<stop  offset="0" style="stop-color:#E9C063"/>
			<stop  offset="0.3273" style="stop-color:#C23C47"/>
			<stop  offset="0.6485" style="stop-color:#924F93"/>
			<stop  offset="1" style="stop-color:#5B5E9F"/>
		</linearGradient>
		<path class="st87" d="M118,26c0.5,0.4,1,0.6,1.3-0.1c-0.5-0.6-1.6-0.9-2.7-1.2C117,25,117.5,25.6,118,26z"/>
		<linearGradient id="SVGID_89_" gradientUnits="userSpaceOnUse" x1="34.4315" y1="143.4277" x2="35.8455" y2="143.4277">
			<stop  offset="0" style="stop-color:#E9C063"/>
			<stop  offset="0.3273" style="stop-color:#C23C47"/>
			<stop  offset="0.6485" style="stop-color:#924F93"/>
			<stop  offset="1" style="stop-color:#5B5E9F"/>
		</linearGradient>
		<path class="st88" d="M35.8,143.6c-0.5-0.3-0.9-1.6-1.4-1.1c0.4,0.6,1.2,1.2,0.5,1.6c0.3,0.4,0.6,0.1,0.9,0.2
			C35.4,144.1,35.9,143.9,35.8,143.6z"/>
		<linearGradient id="SVGID_90_" gradientUnits="userSpaceOnUse" x1="110.1685" y1="34.0923" x2="110.2104" y2="34.0923">
			<stop  offset="0" style="stop-color:#E9C063"/>
			<stop  offset="0.3273" style="stop-color:#C23C47"/>
			<stop  offset="0.6485" style="stop-color:#924F93"/>
			<stop  offset="1" style="stop-color:#5B5E9F"/>
		</linearGradient>
		<path class="st89" d="M110.2,34.1C110.2,34.1,110.2,34.1,110.2,34.1C110.2,34.1,110.2,34.1,110.2,34.1
			C110.2,34.1,110.2,34.1,110.2,34.1z"/>
	</g>
</g>
</svg>
